<svg xmlns="http://www.w3.org/2000/svg" width="98" height="88" viewBox="0 0 98 88" fill="none">
  <path d="M24.0954 70.2525C21.6901 71.2338 19.5355 72.4338 17.2262 72.9938C12.4103 74.1618 7.3384 71.9165 4.63979 67.7192C3.62647 66.1459 2.71449 64.5033 1.79184 62.8713C-1.81342 56.4874 0.154541 49.2662 6.50109 45.5916C11.365 42.7757 16.1756 39.8531 21.1248 37.1918C29.8393 32.4985 36.8472 25.9653 42.6551 18.0295C44.5484 15.4429 46.5857 12.9682 48.5963 10.4723C49.1189 9.82164 49.3109 9.25098 49.135 8.36567C48.4523 4.99506 50.3723 1.69913 53.5775 0.477815C56.7828 -0.743495 60.3454 0.424483 62.1374 3.43243C64.7133 7.76301 67.1933 12.1469 69.7159 16.5095C69.9292 16.8775 70.1532 17.2402 70.4359 17.7095C72.5905 16.4455 74.8305 16.0829 77.1611 17.0482C78.7771 17.7148 79.9877 18.8348 80.777 20.3974C82.5263 23.848 81.4063 27.336 77.5931 30.0666C77.7744 30.4079 77.9557 30.7759 78.1584 31.1332C80.617 35.3945 83.1023 39.6397 85.5289 43.9223C88.3129 48.8289 85.4809 54.3221 79.9397 54.8021C77.9184 54.9781 76.1851 54.3061 74.6865 52.9408C74.4091 52.6902 73.9398 52.4395 73.6038 52.4928C66.8893 53.5115 60.1427 54.3861 53.4762 55.6768C47.3323 56.8661 41.7111 59.5327 36.2872 62.898C36.4952 63.282 36.6872 63.6553 36.8899 64.0126C39.0925 67.8365 41.3111 71.6498 43.5084 75.4791C45.4977 78.9403 44.6337 82.1189 41.1671 84.1402C39.7165 84.9882 38.2552 85.8149 36.7992 86.6522C34.8419 87.7722 34.1326 87.5908 33.0233 85.6762C30.2286 80.8443 27.434 76.0071 24.6394 71.1698C24.4261 70.8018 24.2021 70.4445 24.0848 70.2525H24.0954ZM51.3322 13.0429C48.943 16.0775 46.6337 18.9361 44.4097 21.8534C40.4738 27.0053 36.1112 31.7306 30.794 35.4852C28.3727 37.1918 25.8394 38.7384 23.2741 40.4024C26.9434 46.7596 30.6446 53.1648 34.3672 59.6127C35.1032 59.1967 35.7485 58.834 36.3885 58.4607C41.3218 55.6181 46.5003 53.3035 52.0736 52.1408C57.1881 51.0742 62.3827 50.3862 67.5453 49.5436C68.9852 49.3089 70.4359 49.1116 72.0252 48.8716C65.092 36.8611 58.2601 25.032 51.3322 13.0376V13.0429ZM19.9515 42.1624C15.7116 44.621 11.5357 46.9143 7.4984 49.4316C3.8718 51.6929 2.72516 56.4554 4.68245 60.3007C5.47711 61.8633 6.39442 63.3673 7.28507 64.8819C9.99436 69.5059 14.9063 70.8338 19.5568 68.1779C23.1141 66.1459 26.6607 64.0873 30.2073 62.034C30.5006 61.8633 30.7726 61.6607 31.0873 61.4527C27.3647 55.0101 23.7008 48.6582 19.9515 42.1677V42.1624ZM56.6228 3.78975C54.2442 3.74175 52.6335 5.25106 52.8309 7.17102C52.9269 8.131 53.4175 9.09632 53.9082 9.95497C59.1348 19.0641 64.3933 28.1573 69.6519 37.2505C72.0359 41.373 74.4091 45.5063 76.8464 49.5969C77.7531 51.1169 79.4597 51.4849 81.049 50.6689C82.6703 49.8369 83.3263 48.1729 82.649 46.5249C82.457 46.061 82.1903 45.6183 81.9397 45.181C76.9851 36.5891 72.0305 27.9973 67.0759 19.4108C64.4573 14.8775 61.828 10.355 59.2254 5.81638C58.5374 4.6164 57.6201 3.82175 56.6281 3.77909L56.6228 3.78975ZM32.9966 64.7593C30.986 65.9219 29.114 67.0099 27.2154 68.1032C30.106 73.1058 32.9272 77.991 35.7752 82.9136C37.1618 82.1083 38.4632 81.399 39.7165 80.6203C40.8204 79.9377 41.1351 78.9137 40.5111 77.8044C38.0472 73.4684 35.5405 69.1592 32.9966 64.7539V64.7593ZM72.3452 21.0694C73.4278 22.9467 74.5158 24.8294 75.6038 26.712C77.6518 25.688 78.3557 23.656 77.3371 21.9227C76.3131 20.1788 74.1585 19.7948 72.3452 21.0748V21.0694Z" fill="white"/>
  <path d="M95.5876 28.8987C93.7956 28.3867 91.785 27.896 89.8384 27.2187C88.9157 26.8934 88.697 25.944 88.9904 25.0321C89.2943 24.1041 90.0517 23.5921 90.9957 23.8001C92.825 24.2001 94.6382 24.6961 96.4249 25.2507C97.3475 25.5387 97.7635 26.328 97.6035 27.2987C97.4382 28.2693 96.7609 28.7493 95.5876 28.8987Z" fill="white"/>
  <path d="M86.5796 18.6268C86.0517 18.1362 85.353 17.7362 85.0383 17.1335C84.6597 16.4029 84.8837 15.5335 85.641 15.0696C87.2676 14.0669 88.9263 13.1123 90.6116 12.2163C91.4542 11.7736 92.2275 12.1203 92.7715 12.8509C93.3315 13.6029 93.4008 14.5842 92.6755 15.0802C90.9156 16.2802 89.0063 17.2722 87.1556 18.3388C87.065 18.3922 86.9263 18.3655 86.809 18.3762C86.729 18.4615 86.6543 18.5415 86.5743 18.6268H86.5796Z" fill="white"/>
  <path d="M81.3368 10.3924C79.7261 10.4137 78.8301 9.4697 79.0915 8.23239C79.4754 6.40309 79.9661 4.59513 80.5368 2.81383C80.8514 1.83251 81.7314 1.46985 82.7234 1.73118C83.6674 1.97651 84.254 2.70716 84.046 3.65648C83.63 5.59777 83.1234 7.52307 82.4887 9.40037C82.3181 9.90169 81.5661 10.2004 81.3314 10.3924H81.3368Z" fill="white"/>
</svg>