<svg xmlns="http://www.w3.org/2000/svg" width="105" height="110" viewBox="0 0 105 110" fill="none">
  <path d="M58.4683 0.00599896C60.8901 0.935839 62.467 2.54356 62.5384 5.29709C62.5741 6.69484 62.5503 8.0926 62.5503 9.49036C62.5503 10.0963 62.5503 10.7022 62.5503 10.9961C66.787 12.7958 70.863 14.5235 75.2009 16.3712C76.147 15.4113 77.355 14.1636 78.5867 12.9278C81.0502 10.4502 84.3705 10.4562 86.8042 12.9518C88.7203 14.9194 90.6244 16.8991 92.5226 18.8907C94.8016 21.2843 94.7659 24.5778 92.4393 26.9533C91.3147 28.0991 90.19 29.251 89.0357 30.3608C88.6191 30.7627 88.4823 31.0686 88.8155 31.6265C90.8803 35.1239 92.4214 38.8433 93.3438 42.8086C93.4747 43.3725 93.7305 43.5525 94.2899 43.5405C95.8191 43.5105 97.3484 43.5165 98.8777 43.5345C102.864 43.5705 104.995 45.7361 104.995 49.7314C104.995 52.383 105.007 55.0345 104.995 57.6861C104.977 61.0155 102.668 63.3431 99.3537 63.3791C97.7887 63.3971 96.2238 63.3491 94.6648 63.4091C94.3494 63.4211 93.8376 63.733 93.7662 63.997C92.6595 68.1362 90.9695 72.0176 88.6905 75.7669C89.9401 77.0147 91.1778 78.2325 92.4036 79.4683C94.8433 81.9339 94.8135 85.3233 92.3262 87.7469C90.3626 89.6665 88.393 91.5862 86.4115 93.4879C84.067 95.7375 80.7943 95.7135 78.4915 93.4279C76.7956 91.7482 75.1235 90.0445 73.4872 88.3947C74.3857 87.4949 75.2307 86.6431 76.1768 85.7012C77.7239 87.2849 79.2829 88.9047 80.8598 90.5004C82.026 91.6822 82.8651 91.7002 84.0492 90.5604C85.9236 88.7547 87.792 86.937 89.6545 85.1133C90.7732 84.0155 90.7672 83.1456 89.6366 81.9998C88.1847 80.5241 86.715 79.0664 85.2631 77.5906C84.2693 76.5828 84.1741 75.8209 84.9537 74.6331C87.6313 70.5598 89.4879 66.1386 90.5292 61.3694C90.8148 60.0556 91.4456 59.5877 92.7963 59.5757C94.9266 59.5637 97.0628 59.5757 99.193 59.5697C100.675 59.5637 101.282 58.9698 101.288 57.4941C101.305 54.8065 101.305 52.119 101.288 49.4315C101.276 47.9257 100.639 47.3078 99.1097 47.3018C96.8724 47.2898 94.6291 47.3018 92.3917 47.3018C90.9338 47.3018 90.3269 46.7919 90.0651 45.3402C89.2142 40.703 87.429 36.4437 84.9715 32.4544C83.8707 30.6667 83.9242 30.1868 85.3761 28.729C86.834 27.2593 88.3037 25.8015 89.7556 24.3258C90.7256 23.336 90.7375 22.4481 89.7735 21.4283C87.9051 19.4606 86.0247 17.505 84.1325 15.5673C83.1685 14.5775 82.2581 14.5775 81.2703 15.5493C79.7946 17.0011 78.3487 18.4828 76.8849 19.9466C75.7067 21.1224 75.0521 21.2183 73.7014 20.3245C69.7086 17.6789 65.3886 15.8493 60.7235 14.8114C59.3192 14.4995 58.8729 13.9356 58.867 12.5018C58.8551 10.3182 58.867 8.1286 58.867 5.94497C58.861 4.26526 58.3731 3.77935 56.707 3.77935C54.2197 3.77935 51.7324 3.77935 49.2451 3.77935C47.3112 3.77935 46.8292 4.26526 46.8233 6.17294C46.8233 8.35656 46.8352 10.5462 46.8233 12.7298C46.8114 14.1636 46.3294 14.7695 44.9489 15.0214C40.3076 15.8673 36.053 17.6789 32.0603 20.1625C30.2989 21.2603 29.8408 21.2003 28.371 19.7246C26.9607 18.3088 25.5564 16.8871 24.1402 15.4773C22.9978 14.3375 22.1706 14.3135 21.0282 15.4053C19.1002 17.259 17.1782 19.1247 15.2741 21.0024C14.2982 21.9622 14.3042 22.886 15.2741 23.8819C16.7498 25.3876 18.2493 26.8634 19.725 28.3631C20.7723 29.4309 20.8675 30.1748 20.0523 31.4106C17.3925 35.4539 15.5478 39.8391 14.5124 44.5783C14.209 45.9521 13.5961 46.42 12.1858 46.432C10.0556 46.444 7.91936 46.426 5.78911 46.438C4.37291 46.444 3.75406 47.0439 3.74216 48.4476C3.72431 51.1712 3.72431 53.8947 3.74216 56.6182C3.75406 58.088 4.38481 58.6999 5.83076 58.6999C8.03242 58.7059 10.24 58.6999 12.4417 58.6999C13.84 58.7059 14.4827 59.2098 14.7267 60.5835C15.5776 65.3347 17.4341 69.678 19.9571 73.7573C20.8973 75.275 20.8199 75.8749 19.5644 77.1407C18.0589 78.6644 16.5356 80.1702 15.0361 81.6999C14.1078 82.6477 14.0781 83.5596 14.9825 84.5194C16.8926 86.5411 18.8265 88.5447 20.7782 90.5364C21.6589 91.4362 22.611 91.4002 23.569 90.4404C25.128 88.8747 26.6632 87.2789 28.1508 85.7492C29.0672 86.697 29.9003 87.5549 30.6917 88.3708C29.0374 90.0865 27.3475 92.0961 25.3958 93.7878C23.3072 95.6055 20.1892 95.2696 18.2255 93.2779C16.1726 91.1963 14.1435 89.0846 12.1382 86.955C10.0734 84.7654 10.0913 81.4539 12.1561 79.2883C13.3402 78.0465 14.5481 76.8347 15.7858 75.6469C16.2083 75.239 16.3214 74.9331 15.9941 74.3752C13.9293 70.8778 12.3881 67.1584 11.4658 63.1931C11.3349 62.6292 11.085 62.4492 10.5257 62.4552C8.96069 62.4852 7.39573 62.4732 5.83671 62.4612C2.2367 62.4612 0.0112397 60.2176 0.00528927 56.6422C0.00528927 53.8467 -0.00661159 51.0512 0.00528927 48.2557C0.0231406 45.0462 2.30811 42.7186 5.51539 42.6586C7.11606 42.6286 8.71672 42.6826 10.3114 42.6226C10.6328 42.6106 11.1504 42.3107 11.2219 42.0467C12.3286 37.9075 14.0126 34.0201 16.3214 30.2348C15.0837 29.011 13.84 27.7992 12.6143 26.5694C10.1567 24.1098 10.1746 20.7384 12.6559 18.2968C14.6434 16.3472 16.6367 14.4035 18.642 12.4778C20.8973 10.3122 24.1878 10.3182 26.4074 12.4958C27.7819 13.8456 29.1029 15.2434 30.406 16.5751C32.5601 15.5313 34.5535 14.4455 36.648 13.5937C38.7069 12.7478 40.861 12.1359 43.0864 11.386C43.0864 9.65833 43.0864 7.84065 43.0864 6.01696C43.0864 2.8975 44.217 1.28378 47.1327 0.191967C47.222 0.155973 47.2934 0.0659886 47.3707 0C51.0659 0 54.7671 0 58.4623 0L58.4683 0.00599896Z" fill="#DDDDDD"/>
  <path d="M64.0502 99.7996C64.0916 101.608 64.2572 103.244 64.133 104.855C63.9319 107.595 61.4243 109.899 58.6032 109.946C54.2562 110.018 49.9151 110.018 45.5681 109.946C42.5222 109.899 40.0619 107.422 39.9554 104.36C39.9081 102.885 40.0619 101.399 40.1269 99.7996C38.1515 99.0595 36.5842 97.5793 36.2649 95.2336C35.8686 92.3448 35.9455 89.5037 38.6661 87.5162C38.9204 87.3311 38.9322 86.6149 38.8494 86.1911C37.9919 81.9415 36.0224 78.3245 32.7518 75.4595C28.458 71.6993 25.4654 67.0915 23.7975 61.5944C18.936 45.5805 28.9075 28.5938 45.1777 25.2334C54.6524 23.2757 63.4292 24.8694 71.0409 31.0469C83.6206 41.2592 85.1288 60.0604 74.4831 72.326C73.4185 73.5555 72.2238 74.6776 71.0232 75.7818C67.9123 78.6527 66.0788 82.222 65.2331 86.3523C65.1089 86.9551 65.1858 87.361 65.7476 87.7967C67.2321 88.9427 67.9892 90.5184 67.9773 92.4284C67.9773 93.3893 68.0306 94.3682 67.865 95.3052C67.4983 97.4062 66.3686 98.6357 64.0443 99.8056L64.0502 99.7996ZM58.0117 86.4597C58.408 86.4597 58.686 86.4597 58.9639 86.4597C60.545 86.4716 61.5307 85.7176 61.9211 84.1976C63.1099 79.5421 65.5288 75.6923 69.0951 72.4812C79.7645 62.8657 80.8409 47.0607 71.5555 36.5798C67.1375 31.596 61.4834 28.9758 54.9422 28.3491C48.0935 27.6866 41.706 29.125 36.1348 33.3329C23.7029 42.7215 22.869 61.2363 34.4847 71.9321C38.6602 75.7759 41.5404 80.2046 42.5754 85.833C42.6168 86.0658 42.9244 86.4179 43.1255 86.4299C44.1664 86.4896 45.2132 86.4597 46.2482 86.4597V66.7334C44.9352 66.7334 43.7051 66.7692 42.469 66.7274C37.9741 66.5603 35.0229 62.048 36.6907 57.9237C37.9091 54.9095 41.1205 53.3278 44.6809 53.9903C47.7918 54.5693 49.9032 57.0522 49.9979 60.2693C50.0215 61.1408 49.9979 62.0182 49.9979 62.8955H54.2266C54.2266 61.9644 54.2029 61.1169 54.2266 60.2634C54.333 57.3925 56.1133 54.9334 58.7629 54.2171C59.7624 53.9486 60.8565 53.9247 61.9033 53.9366C64.5589 53.9665 66.9009 55.7451 67.7526 58.2698C69.1306 62.3703 66.1735 66.5961 61.8028 66.7274C60.549 66.7692 59.2892 66.7274 58.0058 66.7274V86.4597H58.0117ZM52.0679 96.3259C55.3503 96.3259 58.6327 96.3438 61.9211 96.3199C63.4056 96.308 64.2158 95.5022 64.2986 94.0279C64.3282 93.4609 64.34 92.882 64.2809 92.3209C64.1567 91.0675 63.376 90.3214 62.134 90.2498C61.5367 90.214 60.9334 90.2319 60.3361 90.2319C54.3685 90.2319 48.401 90.2259 42.4335 90.2319C40.6355 90.2319 39.8726 91.0317 39.8371 92.8462C39.8371 93.0968 39.8371 93.3475 39.8371 93.5922C39.8608 95.544 40.606 96.308 42.5399 96.3139C45.7159 96.3259 48.8978 96.3139 52.0738 96.3139L52.0679 96.3259ZM52.0856 100.11C50.0393 100.11 47.9929 100.092 45.9466 100.11C44.4976 100.128 43.6637 100.975 43.6104 102.438C43.5927 102.969 43.5809 103.506 43.6163 104.037C43.6991 105.279 44.4739 106.15 45.6982 106.162C49.9328 106.204 54.1674 106.21 58.4021 106.162C59.6796 106.15 60.4543 105.261 60.5194 103.96C60.549 103.464 60.5371 102.963 60.5194 102.462C60.4721 100.946 59.6263 100.11 58.1064 100.098C56.0955 100.08 54.0846 100.098 52.0679 100.098L52.0856 100.11ZM50.0807 66.7752V86.4H54.1379V66.7752H50.0807ZM57.994 62.9194C59.4548 62.9194 60.7915 63.003 62.1163 62.8955C63.5712 62.7762 64.5529 61.3974 64.3578 59.9411C64.1685 58.4907 62.9975 57.6431 61.1759 57.6431C59.3543 57.6431 58.1951 58.4787 57.9999 59.9411C57.9999 59.9769 57.994 60.0127 57.994 60.0485C57.994 60.9677 57.994 61.8868 57.994 62.9194ZM46.3251 62.9075C46.3251 62.2569 46.2955 61.7257 46.3251 61.2004C46.5321 58.246 44.604 57.2253 41.9071 57.7744C40.6888 58.0251 39.8963 59.183 39.9554 60.4603C40.0086 61.666 40.8958 62.7821 42.0905 62.8776C43.4448 62.991 44.8169 62.9015 46.3192 62.9015L46.3251 62.9075Z" fill="#DDDDDD"/>
</svg>