<svg xmlns="http://www.w3.org/2000/svg" width="116" height="115" viewBox="0 0 116 115" fill="none">
  <path d="M64.1097 0C66.5847 0.910264 68.2558 2.48462 68.3706 5.27838C68.4165 6.46344 68.3764 7.65423 68.3764 8.97096C68.8645 8.97096 69.2664 8.97096 69.6627 8.97096C73.3724 8.97096 77.082 8.95951 80.7917 8.97096C85.0584 8.99386 88.1536 12.0681 88.1651 16.3447C88.1823 24.6744 88.1709 33.0042 88.1709 41.334C88.1709 41.7748 88.1709 42.2099 88.1709 42.5992C90.9445 43.6068 93.5114 42.7309 96.2277 42.2958C96.1013 41.5916 95.975 40.9447 95.8774 40.2978C95.6936 39.1184 96.1874 38.2998 97.3704 38.0708C100.236 37.5212 103.107 37.0059 105.99 36.5479C107.42 36.3189 108.074 36.8914 108.35 38.4372C109.493 44.8663 110.63 51.2954 111.767 57.7244C112.858 63.8959 113.938 70.0731 115.034 76.2446C115.339 77.9678 114.891 78.6433 113.134 78.9639C110.446 79.4563 107.759 79.9314 105.065 80.4009C103.647 80.6471 103.142 80.1891 102.493 78.1224C101.545 78.0136 100.971 78.3743 100.535 79.2903C99.386 81.7062 97.7322 83.7786 95.8084 85.6449C95.5213 85.9254 95.2572 86.3663 95.2285 86.7556C94.8265 91.3412 91.7772 94.009 87.2004 93.7228C86.9477 93.7056 86.6893 93.7228 86.4424 93.7228C84.8861 99.3962 83.037 100.833 77.3979 100.684C77.2256 102.911 76.4102 104.864 74.5725 106.26C72.7751 107.629 70.7538 108.087 68.4682 107.566C68.3936 108.012 68.3304 108.407 68.2558 108.802C67.3197 113.88 61.8873 116.359 57.4483 113.697C56.7822 113.296 56.2424 113.21 55.4844 113.451C51.7517 114.642 47.8123 112.575 46.6121 108.859C46.5088 108.545 46.4169 108.23 46.3193 107.898C41.9779 110.382 36.6259 108.653 35.1902 103.117C32.0606 104.806 29.0113 104.743 26.3755 102.264C23.7454 99.7912 23.4697 96.7685 25.0317 93.4881C24.7044 93.3278 24.4173 93.1904 24.1244 93.053C21.6379 91.8393 20.2539 89.8756 19.9381 87.1162C19.8749 86.5552 19.5418 85.9712 19.1973 85.4961C17.7042 83.4523 16.0906 81.4943 14.6779 79.399C14.1553 78.6262 13.7821 77.9678 12.6623 78.1338C12.5934 78.3685 12.5015 78.6834 12.4096 78.9926C12.0938 80.086 11.3358 80.6127 10.2217 80.4238C7.37915 79.9372 4.5366 79.4677 1.71701 78.8838C1.09682 78.7521 0.568511 78.1682 0 77.796C0 77.2751 0 76.7484 0 76.2274C0.0689104 76.1015 0.172256 75.9812 0.195227 75.8496C1.33225 69.4605 2.46355 63.0715 3.58908 56.6825C4.66294 50.5855 5.73105 44.4884 6.82213 38.3971C7.08629 36.9086 7.74092 36.3361 9.1019 36.5479C12.0191 37.0059 14.9306 37.5269 17.8306 38.0879C18.9906 38.3112 19.4672 39.1528 19.2777 40.3493C19.1801 40.9733 19.0652 41.5916 18.9561 42.2042C22.3844 43.2518 24.5551 43.3663 26.9899 42.6049C26.9899 42.1927 26.9899 41.7519 26.9899 41.3111C26.9899 32.987 26.9784 24.663 26.9899 16.3332C27.0014 12.0739 30.1024 8.99959 34.3748 8.98241C38.0845 8.96524 41.7884 8.98241 45.4981 8.98241C45.8943 8.98241 46.2963 8.98241 46.7787 8.98241C46.7787 7.66568 46.7385 6.47489 46.7844 5.28983C46.8935 2.49607 48.5761 0.933163 51.0454 0.0171748H64.0867L64.1097 0ZM40.8352 83.0801C44.5333 84.019 46.4628 86.3892 46.7959 90.1104C51.143 89.8756 53.865 91.8679 55.025 95.9841C55.203 95.9154 55.3063 95.8811 55.404 95.8296C60.4114 93.3392 65.5108 96.1158 66.1368 101.635C66.177 102.007 66.4928 102.396 66.7857 102.671C67.1647 103.02 67.6413 103.272 68.0835 103.547C69.8924 104.657 72.0229 104.234 73.1312 102.562C74.2452 100.873 73.8031 98.7836 72.0344 97.5585C70.8055 96.7055 69.5421 95.904 68.2902 95.0796C66.6076 93.9632 64.9193 92.8526 63.2368 91.7362C62.5132 91.2554 62.0538 90.5226 62.4443 89.7382C62.72 89.1829 63.3631 88.6391 63.9489 88.4673C64.4025 88.3356 65.0916 88.702 65.5683 89.0112C69.3354 91.4557 73.068 93.9461 76.8236 96.4078C78.7876 97.6959 80.9984 97.3238 82.1412 95.5433C83.2667 93.7972 82.7269 91.7133 80.786 90.4252C78.667 89.0112 76.5365 87.6257 74.4175 86.2231C72.6373 85.0495 70.8169 83.9274 69.1114 82.6508C68.6405 82.3016 68.273 81.4371 68.3419 80.8703C68.4051 80.3551 69.054 79.6624 69.5823 79.5135C70.1163 79.3647 70.9031 79.6452 71.4256 79.983C74.8597 82.1813 78.2478 84.4484 81.6531 86.6926C83.1519 87.683 84.6277 88.7078 86.161 89.6409C87.4932 90.4596 88.8887 90.4252 90.1693 89.5092C91.4154 88.6162 91.8404 87.3567 91.559 85.8567C91.3408 84.706 90.5885 83.9732 89.6409 83.3549C83.4218 79.2616 77.2141 75.1511 70.995 71.0635C70.5413 70.7658 69.9957 70.554 69.4674 70.4166C64.5461 69.1113 61.0661 66.1573 59.0792 61.4686C58.9529 61.1709 58.8093 60.8789 58.66 60.564C56.6903 60.959 54.778 61.3083 52.8887 61.7548C52.4408 61.8578 51.9757 62.2357 51.7 62.6193C50.7582 63.9188 49.9371 65.31 48.9896 66.6038C46.7615 69.6724 43.7122 71.0006 39.9795 70.3594C34.2025 69.3689 32.7726 64.4169 35.6037 60.7071C37.5734 58.1252 39.3076 55.3601 41.0132 52.5949C42.512 50.1675 44.4989 48.473 47.1921 47.4997C49.0642 46.8185 50.8674 45.954 52.9002 45.0838C50.3161 43.7671 47.8353 43.206 45.211 43.5839C39.6579 44.3911 34.1049 45.2269 28.5634 46.1315C25.738 46.5895 22.9472 46.9501 20.1276 46.1601C19.5648 45.9998 18.9676 45.9712 18.2957 45.8681C16.6017 55.4345 14.9306 64.8978 13.248 74.4183C13.627 74.5099 13.9084 74.6302 14.1955 74.6416C15.9183 74.7046 16.9577 75.4946 17.6009 77.1606C18.3646 79.1414 19.651 80.8532 21.0694 82.2443C24.0555 79.7482 26.8923 77.2465 29.8669 74.9279C32.3477 72.9928 35.8506 73.1073 38.3314 75.0538C40.9443 77.1033 41.6506 79.8112 40.8352 83.0801ZM96.8823 45.8738C96.331 45.9654 95.929 46.0399 95.5213 46.0914C93.9364 46.3089 92.2998 46.8643 90.7665 46.6696C84.8287 45.9139 78.9139 44.9464 72.9991 44.0018C69.789 43.4866 66.6249 43.1488 63.5067 44.4999C58.1891 46.8013 52.8256 48.9997 47.5252 51.3526C46.5145 51.7991 45.5038 52.5835 44.8664 53.4766C42.5752 56.7054 40.4274 60.0373 38.251 63.3463C37.4356 64.5886 37.7399 65.6077 39.0492 66.3118C41.4496 67.5999 44.407 66.9015 46.0264 64.6001C47.1692 62.9799 48.2086 61.2911 49.3398 59.6709C49.6442 59.2358 50.0921 58.7091 50.5573 58.6004C53.5836 57.9076 56.6271 57.2894 59.6822 56.7226C60.8364 56.5108 61.4853 57.0432 61.8299 58.2053C62.0194 58.8465 62.1687 59.5106 62.4156 60.1289C65.0859 66.7985 73.4355 69.3919 79.8901 65.5562C81.0157 64.8863 82.0781 64.1135 83.2036 63.4436C84.1224 62.8998 85.1388 63.1631 85.6671 63.9932C86.1725 64.789 86.0289 65.7909 85.1905 66.3748C82.859 68.0007 80.5218 69.6323 77.6965 70.3479C77.4725 70.4052 77.2543 70.5025 76.9213 70.6227C77.283 70.8861 77.5185 71.0635 77.7654 71.2296C82.1355 74.1149 86.5228 76.9831 90.8756 79.8914C91.9552 80.6127 92.9544 81.4543 94.0799 82.3073C95.5845 80.773 96.8995 78.9181 97.7551 76.7999C98.2662 75.5347 99.03 74.8477 100.385 74.7561C100.885 74.7218 101.373 74.5615 101.918 74.4527C100.23 64.8921 98.5649 55.4574 96.8766 45.8853L96.8823 45.8738ZM79.1723 26.8728C82.2905 26.724 84.4957 24.5256 84.5588 21.6116C84.599 20.0029 84.5703 18.3999 84.5703 16.7912C84.5703 13.9058 83.2036 12.5548 80.2979 12.5548C65.1548 12.5548 50.0117 12.5548 34.8744 12.5548C34.6102 12.5548 34.3518 12.549 34.0877 12.5548C32.1639 12.6521 30.6709 14.0833 30.6192 15.9954C30.5675 17.9362 30.5503 19.8827 30.6192 21.8234C30.7283 24.6515 33.1861 26.9301 36 26.8041C36 26.2545 35.977 25.6992 36 25.1496C36.0631 24.0275 36.7235 23.3405 37.8605 23.3234C40.2207 23.289 42.5809 23.289 44.9411 23.3234C46.0666 23.3405 46.7155 24.039 46.7787 25.1725C46.8074 25.7164 46.7787 26.266 46.7787 26.8156H68.3706C68.3706 26.369 68.3706 25.9969 68.3706 25.6248C68.3821 23.9245 68.9793 23.3119 70.6561 23.3062C72.8326 23.3005 75.0033 23.289 77.1797 23.3062C78.4488 23.3234 79.1149 23.9932 79.1666 25.2412C79.1895 25.7565 79.1666 26.2717 79.1666 26.8556L79.1723 26.8728ZM68.3075 30.5654H46.7902C46.7902 31.052 46.7902 31.4585 46.7902 31.8649C46.7672 33.4107 46.1413 34.0633 44.6195 34.069C42.4833 34.0805 40.347 34.0805 38.2166 34.069C36.6201 34.0633 36.0114 33.4279 36 31.802C36 31.3726 36 30.9432 36 30.8173C34.0475 30.1589 32.3419 29.5807 30.602 28.991C30.602 33.0672 30.602 37.2407 30.602 41.4141C30.602 41.6317 30.6364 41.8492 30.6651 42.1641C34.438 41.5859 38.1821 41.105 41.886 40.418C46.124 39.6279 50.2874 39.5879 54.1349 41.7004C56.5869 43.0457 58.7232 42.9312 61.1293 41.666C64.5863 39.8398 68.3074 39.5764 72.1607 40.2577C76.2436 40.979 80.361 41.5114 84.4842 42.1297V29.0368C82.7442 29.6151 81.0329 30.1818 79.1781 30.8001C79.1781 30.9604 79.1781 31.3268 79.1781 31.6932C79.1666 33.5023 78.5866 34.069 76.7317 34.0748C75.0836 34.0748 73.4355 34.0232 71.7874 34.0862C69.1057 34.1893 68.1581 33.8229 68.3764 30.8516C68.3764 30.7829 68.3477 30.7085 68.3132 30.5597L68.3075 30.5654ZM9.21676 76.5824C11.307 64.7547 13.3744 53.0644 15.4589 41.2653C13.6385 40.9447 11.9272 40.647 10.1413 40.3321C8.05102 52.1713 5.97797 63.8959 3.90492 75.6549C5.75976 75.9812 7.4136 76.2675 9.21676 76.5824ZM111.273 75.6606C109.177 63.81 107.104 52.0854 105.025 40.3207C103.182 40.6527 101.499 40.9561 99.7134 41.2767C101.804 53.093 103.877 64.8176 105.961 76.5881C107.782 76.2675 109.43 75.9812 111.273 75.6606ZM43.0288 89.6352C43.0058 88.7536 42.3627 87.6601 41.0706 87.0418C39.7556 86.4178 38.4176 86.4865 37.2691 87.4254C34.4897 89.6982 31.7333 91.9939 29.0055 94.3296C27.4321 95.675 27.2713 97.8161 28.5174 99.3447C29.7923 100.902 31.9802 101.131 33.6283 99.7855C36.3502 97.5642 39.032 95.2857 41.7252 93.0301C42.6096 92.2916 43.0575 91.3412 43.0288 89.6352ZM37.6251 81.3341C37.539 79.3475 36.9302 78.2369 35.6497 77.5957C34.2427 76.8915 32.876 77.0518 31.6643 78.0537C29.4133 79.9085 27.1737 81.7806 24.9456 83.6698C23.2917 85.0724 23.0678 87.3051 24.3828 88.8509C25.6921 90.3966 27.8226 90.5741 29.5051 89.2115C31.7964 87.3452 34.0934 85.4846 36.2756 83.4923C36.9877 82.8397 37.3437 81.8035 37.6308 81.3398L37.6251 81.3341ZM62.5821 102.602C62.4788 100.581 61.8356 99.4706 60.5033 98.8294C59.1136 98.1596 57.7986 98.3714 56.6271 99.3275C54.801 100.816 52.9978 102.322 51.2119 103.856C49.6614 105.184 49.4432 107.354 50.6549 108.871C51.901 110.434 54.1176 110.697 55.7542 109.392C57.6206 107.898 59.4927 106.398 61.2326 104.766C61.939 104.102 62.3065 103.077 62.5879 102.608L62.5821 102.602ZM42.3914 105.568C43.046 105.327 43.8098 105.23 44.3324 104.823C46.4112 103.186 48.4727 101.509 50.4309 99.7282C51.7862 98.4974 51.7689 96.3448 50.5917 94.9537C49.4145 93.5625 47.3013 93.2075 45.8427 94.3411C43.7811 95.9383 41.7827 97.6329 39.8302 99.3618C38.7219 100.341 38.4807 101.938 39.0779 103.272C39.7039 104.663 40.8065 105.367 42.3914 105.562V105.568ZM64.7815 8.92516C64.7815 7.68858 64.8102 6.57222 64.7758 5.46158C64.7413 4.32805 64.0752 3.61243 62.9612 3.60098C59.3721 3.57236 55.783 3.57808 52.1882 3.60098C51.2521 3.60098 50.5458 4.13912 50.4596 5.04366C50.3391 6.32032 50.4309 7.61988 50.4309 8.92516H64.7815ZM39.6464 30.428H43.1207V26.9873H39.6464V30.428ZM75.4914 30.4452V26.9587H72.0401V30.4452H75.4914ZM59.6764 110.835C61.3762 111.493 62.674 111.178 63.7823 110.079C64.7356 109.134 64.9883 107.829 64.4887 106.753C62.9324 108.075 61.3819 109.392 59.6764 110.835Z" fill="white"/>
</svg>