<svg xmlns="http://www.w3.org/2000/svg" width="118" height="101" viewBox="0 0 118 101" fill="none">
  <path d="M24.8646 33.5567C23.7046 33.5567 22.6652 33.5567 21.6315 33.5567C19.7939 33.5509 19.2541 33.1559 18.7258 31.3812C16.9743 25.4845 15.2114 19.5993 13.5173 13.6854C13.2589 12.7809 12.8742 12.5519 11.9841 12.5634C8.87735 12.6206 5.76489 12.592 2.65244 12.5805C0.757402 12.5748 0.0223579 11.8477 0.0108729 9.97569C-0.000612206 7.48534 -0.00635474 4.99501 0.0108729 2.5104C0.0223579 0.781467 0.77463 0.00858739 2.48591 0.00858739C10.6346 -0.00286246 18.7832 -0.00286246 26.9319 0.00858739C28.6661 0.00858739 29.4414 0.770008 29.4528 2.46459C29.4758 4.995 29.4701 7.53116 29.4528 10.0616C29.4414 11.8306 28.6719 12.5748 26.8572 12.5805C23.8022 12.592 20.7529 12.5805 17.5601 12.5805C18.8866 16.9887 20.1614 21.2424 21.442 25.496C21.465 25.5819 21.4994 25.662 21.5282 25.7421C21.9014 26.8986 21.9416 28.5245 22.7398 29.0912C23.5955 29.6981 25.1689 29.3889 26.415 29.3202C26.9261 29.2916 27.5865 28.9653 27.8794 28.5588C33.9091 20.2462 41.9831 15.151 52.0669 13.1988C52.7561 13.0672 53.4509 12.9641 54.1457 12.884C55.7996 12.695 56.7586 13.508 56.7988 15.1568C56.8275 16.4678 56.8045 17.7788 56.8045 19.0898C56.8045 27.826 56.8045 36.5565 56.8045 45.2928C56.8045 47.6056 56.1671 48.2354 53.8356 48.2354C43.9815 48.2354 34.1215 48.2354 24.2673 48.2354C21.7579 48.2354 21.086 47.3995 21.4478 44.9207C21.9818 41.2682 23.0155 37.7702 24.5487 34.4154C24.6521 34.1864 24.7267 33.9402 24.8703 33.5567H24.8646ZM32.5768 29.366C34.4201 29.366 35.9419 29.3546 37.4637 29.366C39.0142 29.3832 39.9502 30.179 39.9617 31.4499C39.9674 32.7208 39.0199 33.5395 37.4867 33.551C35.2069 33.5681 32.9328 33.5395 30.653 33.5738C30.2683 33.5796 29.6883 33.7112 29.539 33.9746C27.776 37.089 26.4954 40.3865 25.9097 43.9589H52.5263V17.3837C44.504 18.9925 37.9805 22.8969 32.5768 29.3603V29.366ZM4.30629 4.25649V8.29256H25.1804V4.25649H4.30629Z" fill="white"/>
  <path d="M100.23 12.5863C97.1975 12.5863 94.2746 12.5863 91.3574 12.5863C88.9685 12.5863 88.3655 11.968 88.3598 9.54633C88.3598 7.23345 88.3483 4.91487 88.3598 2.602C88.3713 0.781476 89.1063 0.0143247 90.8808 0.0143247C99.0294 0.00287484 107.178 0.00287484 115.332 0.0143247C117.038 0.0143247 117.79 0.792918 117.802 2.52185C117.819 5.05799 117.819 7.58841 117.802 10.1245C117.79 11.8249 117.015 12.5805 115.287 12.5863C112.088 12.6034 108.889 12.6149 105.691 12.5748C104.898 12.5634 104.565 12.7981 104.336 13.5767C102.63 19.4848 100.867 25.3758 99.1213 31.2724C98.5528 33.196 98.0589 33.5567 96.0376 33.5624C95.0786 33.5624 94.1138 33.5624 92.994 33.5624C93.1261 33.9574 93.2065 34.2723 93.3386 34.5585C94.9063 37.9992 95.9112 41.6002 96.4453 45.3386C96.7209 47.2793 95.9112 48.2411 93.9243 48.2411C83.8461 48.2468 73.768 48.2468 63.6899 48.2411C61.812 48.2411 61.0483 47.4912 61.0425 45.6248C61.0311 35.5776 61.0311 25.5303 61.0425 15.4831C61.0425 13.445 62.0303 12.6435 64.0516 12.9412C74.8706 14.5385 83.4959 19.7367 89.939 28.5645C90.2491 28.9939 90.9784 29.2973 91.5297 29.3317C92.7356 29.4118 94.2516 29.6981 95.0786 29.1141C95.8481 28.5703 95.9112 27.0074 96.2558 25.8853C97.4502 21.9637 98.6274 18.0364 99.8104 14.1091C99.9482 13.6568 100.063 13.1988 100.23 12.592V12.5863ZM65.3093 17.3895V43.9531H91.9259C91.2827 40.438 90.1055 37.2149 88.3942 34.1979C88.199 33.8601 87.5788 33.591 87.1539 33.5796C84.7879 33.5166 82.422 33.5796 80.0618 33.5338C78.5343 33.5052 77.5236 32.2342 77.9256 30.9175C78.2644 29.8126 79.0798 29.3374 80.2226 29.3488C81.8076 29.3603 83.3925 29.3488 85.2416 29.3488C79.8379 22.8797 73.3201 18.9753 65.315 17.378L65.3093 17.3895ZM92.6207 8.2983H113.535V4.26794H92.6207V8.2983Z" fill="white"/>
  <path d="M100.258 88.0752C98.7652 83.0888 97.3238 78.2913 95.8825 73.4995C95.2221 71.3012 95.2106 71.4214 92.9423 71.2611C91.231 71.1409 90.2491 71.7248 89.2097 73.1159C82.8584 81.6289 74.3078 86.5294 63.7817 88.0179C62.0073 88.2698 61.0138 87.4283 61.0081 85.6192C60.9966 75.4861 60.9966 65.3529 61.0081 55.2198C61.0081 53.4336 61.7718 52.6894 63.5865 52.6894C73.7048 52.6837 83.8232 52.678 93.9472 52.6894C95.8997 52.6894 96.7094 53.6798 96.428 55.632C95.8997 59.2788 94.9522 62.8054 93.4132 66.1659C93.2926 66.4292 93.2179 66.7155 93.0744 67.1162C94.1884 67.1162 95.1876 67.1162 96.1811 67.1162C98.013 67.1219 98.5527 67.517 99.0811 69.2974C100.775 75.0281 102.504 80.7473 104.117 86.4951C104.479 87.7889 105.025 88.1782 106.357 88.121C109.286 88.0008 112.226 88.0752 115.16 88.0866C117.049 88.0924 117.785 88.8194 117.796 90.6972C117.807 93.1875 117.813 95.6779 117.796 98.1682C117.785 99.8628 117.004 100.653 115.292 100.653C107.144 100.664 98.9949 100.664 90.8463 100.653C89.135 100.653 88.3712 99.8628 88.3598 98.1511C88.3425 95.6206 88.3425 93.0845 88.3598 90.5541C88.3712 88.8366 89.1235 88.0924 90.852 88.0809C93.9128 88.0637 96.9793 88.0809 100.253 88.0809L100.258 88.0752ZM65.2977 56.9259V83.5353C73.4464 81.8808 80.0331 77.902 85.4196 71.3069C83.5245 71.3069 81.9626 71.3183 80.4063 71.3069C78.8272 71.2954 77.8969 70.5455 77.8567 69.2745C77.8165 67.9578 78.7869 67.1277 80.4121 67.1162C82.6919 67.1048 84.9717 67.1277 87.2457 67.099C87.6362 67.099 88.2277 66.9903 88.3712 66.7384C90.0997 63.6985 91.3172 60.4639 91.9259 56.9316H65.3035L65.2977 56.9259ZM113.541 92.3689H92.6265V96.3992H113.541V92.3689Z" fill="white"/>
  <path d="M17.5888 88.0809C20.6209 88.0809 23.5381 88.0809 26.461 88.0809C28.8557 88.0809 29.4586 88.6934 29.4586 91.1208C29.4586 93.4337 29.4701 95.7523 29.4586 98.0652C29.4471 99.88 28.7063 100.659 26.9376 100.659C18.789 100.67 10.6403 100.67 2.49742 100.659C0.786143 100.659 0.0281289 99.8799 0.0166438 98.1625C-0.000583756 95.6321 -0.000583756 93.0959 0.0166438 90.5655C0.0281289 88.8537 0.791886 88.098 2.51465 88.0866C5.53522 88.0694 8.56153 88.0179 11.5821 88.1152C12.788 88.1553 13.3164 87.829 13.6552 86.6267C15.2746 80.8789 17.0031 75.1597 18.6914 69.4291C19.2714 67.4711 19.7365 67.1162 21.7521 67.1162C22.7054 67.1162 23.6644 67.1162 24.6234 67.1162C23.8367 64.7747 23.0098 62.5362 22.3494 60.252C21.9014 58.7063 21.6373 57.1033 21.3789 55.5118C21.0803 53.6683 21.9474 52.6951 23.8539 52.6894C33.9723 52.6779 44.0906 52.6779 54.2089 52.6894C56.0753 52.6894 56.7988 53.4393 56.8046 55.34C56.8103 65.4273 56.8103 75.5147 56.8046 85.602C56.8046 87.5656 55.9317 88.3041 53.9965 88.0179C43.0857 86.4035 34.3742 81.1881 27.9943 72.1885C27.5406 71.5473 27.087 71.2324 26.2887 71.2954C25.0828 71.3927 23.5668 70.9805 22.7399 71.5702C21.9704 72.114 21.9072 73.677 21.5684 74.799C20.3739 78.7206 19.1967 82.6479 18.0137 86.5695C17.8759 87.0218 17.7611 87.4798 17.5945 88.0866L17.5888 88.0809ZM52.5034 83.5353V56.9716H25.8925C26.484 60.2806 27.6325 63.2748 29.0854 66.183C29.4529 66.9158 29.9008 67.1505 30.7047 67.1334C33.0707 67.0818 35.4366 67.0876 37.8025 67.1334C39.0716 67.1563 39.9273 68.0093 39.9675 69.1428C40.0077 70.3221 39.1233 71.2267 37.8083 71.3011C37.2397 71.3355 36.6712 71.3126 36.1027 71.3126C34.96 71.3126 33.8115 71.3126 32.3988 71.3126C37.814 77.9134 44.395 81.8865 52.5092 83.541L52.5034 83.5353ZM4.2776 96.382H25.146V92.3402H4.2776V96.382Z" fill="white"/>
</svg>