<svg xmlns="http://www.w3.org/2000/svg" width="116" height="99" viewBox="0 0 116 99" fill="none">
  <path d="M115.896 94.1128C115.764 94.4162 115.626 94.7139 115.505 95.0231C114.242 98.3035 110.406 99.8606 107.403 98.0458C103.762 95.8475 100.253 93.4258 96.7675 90.987C95.1481 89.8535 94.4647 88.0616 94.6714 86.1265C94.8552 84.3862 94.1431 83.4759 92.7362 82.5542C85.7246 78.0029 78.7876 73.3371 71.8391 68.6884C71.2534 68.2934 70.7768 68.2762 70.0934 68.4251C68.2673 68.8258 66.4067 69.2724 64.5519 69.3067C58.5911 69.4155 52.6304 69.364 46.6753 69.3411C44.2577 69.3296 42.1043 69.9823 40.0887 71.3391C34.1222 75.358 28.1212 79.3253 22.1145 83.2813C21.4771 83.7049 21.1498 84.1457 21.2531 84.9129C21.3048 85.3193 21.2531 85.7373 21.2646 86.1552C21.2991 88.4852 20.3516 90.2886 18.3991 91.5767C15.3843 93.569 12.3637 95.5612 9.36036 97.5764C7.34473 98.9275 5.22573 99.2195 3.06654 98.0573C0.901605 96.9009 -0.00571546 94.983 2.70767e-05 92.5556C0.0115121 80.5218 0.0172547 68.488 2.70767e-05 56.4542C2.70767e-05 54.067 0.953288 52.2751 2.95743 50.9755C5.8287 49.1092 8.67125 47.1856 11.5253 45.2906C15.6542 42.5484 19.4328 43.7449 21.2072 48.4737C24.1933 46.4871 27.1565 44.5235 30.2574 42.4625C28.2131 40.9798 26.9785 39.1363 27.0818 36.6403C27.1852 34.1213 28.4773 32.3409 30.7168 31.11C29.666 27.6063 30.6996 24.8698 33.8867 22.9863C32.9966 19.8147 33.7489 17.2614 36.5972 15.4466C36.7867 15.3264 36.8958 14.8798 36.8499 14.6222C36.0631 10.5289 37.9869 7.81526 42.1387 7.19697C43.5571 6.98515 44.9641 6.73325 46.3882 6.57868C47.0601 6.50425 47.2324 6.21801 47.2841 5.57682C47.554 2.38231 49.9486 0.115234 53.1989 0.0522597C56.6329 -0.0107145 60.0669 -0.0278891 63.4952 0.0637098C66.1483 0.132409 68.0146 1.53502 69.1574 3.91086C71.3568 8.47935 73.5791 13.0421 75.744 17.6278C76.0943 18.3663 76.5135 18.7441 77.3405 18.767C77.9779 18.7842 78.6096 18.9216 79.247 19.0132C82.0494 19.4254 85.2078 22.2593 83.8066 26.9193C85.7476 28.0472 87.0856 29.6501 87.2004 31.9916C87.2464 32.9133 86.7525 33.9553 87.0511 34.7339C87.3325 35.4667 88.4351 35.8388 89.0093 36.5086C90.577 38.3577 90.7895 40.4989 90.043 42.8404C91.9552 43.8422 93.2071 45.3364 93.6148 47.489C93.7067 47.9585 94.0168 48.3878 94.1374 48.6454C95.3605 47.0997 96.0611 45.8002 97.1235 44.97C99.1277 43.4071 101.425 43.3957 103.567 44.7639C106.897 46.8936 110.159 49.1321 113.455 51.3133C114.747 52.172 115.339 53.5002 115.907 54.8513V94.1185L115.896 94.1128ZM21.2589 79.1937C21.6781 78.9418 21.8733 78.833 22.0571 78.7128C27.3575 75.1862 32.6693 71.6883 37.9467 68.1274C40.594 66.3355 43.471 65.471 46.6639 65.4882C52.5844 65.5168 58.505 65.4596 64.4255 65.5111C67.4576 65.5397 70.1049 64.6523 72.511 62.8318C77.7654 58.853 83.06 54.9257 88.3317 50.9755C88.659 50.7293 88.9978 50.466 89.2562 50.1511C89.8994 49.3439 90.02 48.4393 89.5548 47.5119C89.1127 46.6245 88.3489 46.1379 87.3727 46.1551C86.8329 46.1666 86.2701 46.3784 85.759 46.6074C82.0149 48.2848 78.288 49.9965 74.5439 51.6797C73.2346 52.2693 72.155 51.9316 71.6726 50.8438C71.2075 49.7904 71.6496 48.7943 72.8958 48.2161C75.2847 47.1112 77.6908 46.0292 80.0854 44.9414C81.7278 44.1972 83.3931 43.4873 85.0182 42.703C86.3103 42.0847 86.8099 40.808 86.3275 39.6058C85.8452 38.4035 84.599 37.854 83.2381 38.2547C82.9854 38.3291 82.7442 38.4322 82.4915 38.5238C78.9484 39.789 75.4053 41.0599 71.8564 42.3194C70.438 42.8232 69.3526 42.3938 68.9966 41.2259C68.6405 40.0695 69.2205 39.1707 70.5987 38.7127C71.351 38.4665 72.0918 38.1975 72.8383 37.9284C75.813 36.8521 78.7876 35.7873 81.7507 34.6881C82.9107 34.2587 83.5252 33.3198 83.4333 32.2893C83.3414 31.276 82.6006 30.3772 81.6244 30.2513C81.0789 30.1826 80.4931 30.2398 79.9476 30.3486C76.3987 31.0413 72.8556 31.7684 69.3124 32.4783C67.4461 32.8504 66.4239 32.3867 66.1655 31.0814C65.9243 29.8391 66.7627 29.049 68.6578 28.6712C71.9827 28.0128 75.3076 27.3487 78.6268 26.656C79.7007 26.4327 80.3381 25.6255 80.3036 24.6866C80.2692 23.7363 79.5743 22.9863 78.5177 22.8031C77.7367 22.6715 76.9557 22.557 76.169 22.4539C71.9942 21.9387 67.8653 20.8853 63.6043 21.8757C61.4566 22.3738 59.2515 22.6314 57.3794 22.9462C56.8856 24.4576 56.6788 25.8488 56.007 26.9594C55.3179 28.0987 54.1693 28.9689 53.13 30.0566C53.7961 31.6195 53.9052 33.4171 53.2103 35.2262C52.5155 37.041 51.1718 38.249 49.472 39.0905C49.5351 39.3195 49.5638 39.4627 49.6155 39.6001C50.8157 43.0007 49.8682 46.344 47.129 48.3592C44.3726 50.3858 40.8926 50.3286 37.9869 48.1932C36.8039 47.323 35.598 46.4757 34.4725 45.5425C33.8236 45.0044 33.3699 44.9529 32.6348 45.4567C29.1549 47.8382 25.6404 50.1683 22.103 52.464C21.4426 52.8933 21.2417 53.3571 21.2417 54.107C21.2646 62.0761 21.2589 70.0509 21.2589 78.0201C21.2589 78.3464 21.2589 78.6727 21.2589 79.1994V79.1937ZM112.037 74.4706C112.037 68.5338 112.02 62.5971 112.054 56.6603C112.06 55.481 111.641 54.691 110.647 54.0498C107.741 52.172 104.864 50.2427 101.993 48.3077C101.195 47.7695 100.414 47.4089 99.4837 47.9413C98.6108 48.4393 98.4845 49.2637 98.4845 50.174C98.496 62.0876 98.5017 73.9954 98.4788 85.909C98.4788 87.0826 98.8922 87.8784 99.8857 88.5196C102.763 90.3802 105.605 92.2866 108.442 94.2044C109.263 94.7597 110.084 95.1662 111.055 94.6338C111.985 94.1185 112.048 93.2255 112.048 92.2866C112.037 86.3498 112.043 80.4131 112.043 74.4763L112.037 74.4706ZM3.85327 74.4305C3.85327 80.4417 3.85901 86.4529 3.84753 92.464C3.84753 93.3857 4.00257 94.2044 4.89841 94.6624C5.73108 95.0861 6.48335 94.8456 7.22413 94.3475C10.193 92.3553 13.1734 90.3802 16.1595 88.4222C17.0266 87.8497 17.4056 87.1055 17.4056 86.0636C17.3884 74.0412 17.3942 62.0132 17.4056 49.9908C17.4056 49.1034 17.1817 48.3477 16.3433 47.9069C15.5049 47.4604 14.7641 47.7295 14.029 48.2275C11.1233 50.1797 8.22334 52.1434 5.28316 54.0326C4.2495 54.6967 3.8303 55.5096 3.84178 56.729C3.88198 62.6257 3.85901 68.5281 3.85901 74.4248L3.85327 74.4305ZM94.637 79.2337C94.637 78.5525 94.637 78.1403 94.637 77.7281C94.637 70.0281 94.637 62.3223 94.637 54.6223C94.637 52.8132 94.5623 52.7101 93.0119 52.0747C87.0798 57.0096 80.7803 61.2575 74.7391 66.0092C81.3545 70.4059 87.8895 74.7454 94.6312 79.2337H94.637ZM71.6267 17.977C69.4732 13.5116 67.4805 9.34954 65.4592 5.20469C64.9825 4.22573 64.1039 3.87079 63.0301 3.87079C59.9004 3.88224 56.7707 3.86506 53.6468 3.87079C52.1997 3.87079 51.3038 4.52915 51.1316 5.63979C50.9306 6.96225 51.6139 7.94694 53.0496 8.38776C54.669 8.88582 56.2941 9.35527 57.902 9.88196C60.0727 10.5976 61.1293 12.5326 60.4287 14.6737C59.9751 16.0706 59.3204 17.4045 58.7519 18.7842C62.8348 18.2862 67.0441 16.9751 71.6381 17.9713L71.6267 17.977ZM46.3365 42.3194C46.2447 40.9454 45.6934 39.7833 44.4415 39.1879C41.0764 37.5906 37.6768 36.0563 34.2657 34.5621C33.1057 34.0583 31.8366 34.5907 31.2452 35.6327C30.6824 36.6116 30.8489 37.9799 31.7964 38.7012C34.7826 40.9912 37.7916 43.2583 40.8582 45.4509C41.9837 46.2581 43.2987 46.178 44.5047 45.4853C45.7163 44.7926 46.2906 43.6991 46.3423 42.3194H46.3365ZM36.7235 26.3469C35.4429 26.3354 34.4954 27.0453 34.2255 28.1044C33.9556 29.1635 34.3691 30.3085 35.397 30.7837C38.877 32.4038 42.357 34.0125 45.8944 35.5067C47.6343 36.2453 49.5351 35.0201 49.7821 33.2053C49.983 31.734 49.1963 30.4974 47.5999 29.9478C44.2577 28.7914 40.9041 27.6693 37.5562 26.5415C37.2404 26.4327 36.9016 26.3927 36.7178 26.3526L36.7235 26.3469ZM40.215 18.4808C38.6817 18.4407 37.6423 19.1678 37.4011 20.267C37.1715 21.3032 37.6998 22.4367 38.7794 22.8203C42.2938 24.0626 45.8082 25.2877 49.3629 26.3984C51.0799 26.9365 52.6706 25.8889 53.0898 24.2C53.4917 22.5799 52.4408 20.9711 50.6951 20.5761C49.6672 20.3414 48.6278 20.1525 47.5942 19.9464C45.0445 19.4426 42.5005 18.9388 40.2093 18.4865L40.215 18.4808ZM56.6961 13.42C55.0365 12.9505 53.4228 12.567 51.8666 12.0174C50.965 11.7025 50.1668 11.0956 49.2939 10.6777C48.8288 10.4545 48.2775 10.1854 47.8009 10.2369C46.0035 10.4316 44.2233 10.7407 42.4374 11.0269C41.1166 11.2388 40.4906 11.8685 40.4791 12.9448C40.4619 14.0268 41.0534 14.6737 42.3627 14.9428C45.4579 15.5783 48.5646 16.1908 51.6599 16.8263C54.5771 17.4217 56.0644 16.4542 56.7018 13.42H56.6961Z" fill="white"/>
</svg>