<svg xmlns="http://www.w3.org/2000/svg" width="100" height="100" viewBox="0 0 100 100" fill="none">
  <path d="M4.12866 100C2.55316 99.5103 1.23315 98.6958 0.503947 97.1308C-0.528644 94.927 0.0674913 92.7392 2.19655 90.8495C2.03154 90.0031 1.74944 89.1886 1.74944 88.3742C1.74944 87.5544 2.01558 86.7293 2.15396 85.9841C1.59509 85.2228 0.8925 84.5095 0.482657 83.6578C-0.299771 82.0502 -0.108156 80.416 0.8925 78.9362C1.19589 78.4837 1.20121 78.2175 0.903145 77.7544C-0.299771 75.9073 -0.251867 74.0388 0.919113 72.1651C1.06815 71.9202 1.07879 71.4252 0.929758 71.1856C-0.124124 69.4982 -0.294448 67.7681 0.637013 66.0008C1.58977 64.1963 3.18123 63.3446 5.18787 63.3339C8.99355 63.3073 12.7992 63.3073 16.6102 63.3392C17.2756 63.3446 17.5683 63.1689 17.744 62.5035C20.5011 52.2723 26.0792 43.8936 34.3985 37.3461C34.5262 37.245 34.6433 37.1385 34.8243 36.9842C34.6753 36.7712 34.5369 36.5689 34.3879 36.3667C32.658 34.0191 33.1477 30.8572 35.5642 29.2496C36.1443 28.8663 36.2188 28.5416 36.0379 27.9188C34.6646 23.1439 33.302 18.3637 31.9873 13.5728C30.9335 9.7401 33.1264 5.9979 36.9268 5.21539C38.0871 4.97585 39.3273 5.13555 40.5195 5.01311C40.9347 4.97053 41.467 4.74695 41.6958 4.42756C45.9327 -1.48117 54.0497 -1.47585 58.345 4.44353C58.5633 4.74695 59.0476 4.95988 59.4362 5.00779C60.176 5.09828 60.9318 5.01844 61.677 5.03973C66.2758 5.18345 69.2564 9.14923 68.0429 13.5834C66.7442 18.3477 65.3816 23.0906 64.019 27.8389C63.8327 28.483 63.838 28.8344 64.482 29.2602C66.8613 30.8359 67.3616 33.9659 65.6903 36.2975C65.5413 36.5051 65.3922 36.7073 65.2751 36.8617C67.0582 38.4959 68.8679 40.029 70.5286 41.7111C76.2344 47.5081 80.1199 54.375 82.2224 62.232C82.4459 63.0678 82.7547 63.3552 83.6435 63.3446C87.6462 63.2913 91.6488 63.3818 95.6461 63.2967C97.69 63.2541 99.1803 63.8875 100 65.8252V97.4555C99.5156 98.6639 98.6693 99.5103 97.4611 99.9947H47.4815C47.2633 99.9415 47.0504 99.8776 46.8322 99.835C43.926 99.2228 41.0145 98.632 38.1137 97.9932C37.4377 97.8441 36.7937 97.53 36.1017 97.2799C35.3406 98.7703 34.0685 99.489 32.6367 100H4.12866ZM35.4311 71.67C37.129 73.9111 37.0918 76.1362 35.4364 78.3559C36.8629 80.1499 37.0492 82.0769 36.0698 84.1103C37.5122 85.2229 38.3372 86.5856 38.3319 88.3901C38.3213 90.1947 37.4164 91.5095 36.1337 92.5316C36.2348 93.5217 36.7724 93.9422 37.5814 94.251C40.7857 95.4913 44.0751 96.3164 47.5082 96.5399C56.8228 97.1468 65.0729 94.5597 71.9337 88.1346C77.0168 83.3704 79.8219 77.4616 79.9869 70.4297C80.0933 65.756 78.8585 61.3537 76.953 57.1377C73.621 49.7651 68.9158 43.4891 62.1188 38.9431C61.5706 38.5758 60.8094 38.3575 60.1441 38.3522C53.7356 38.3096 47.3272 38.3788 40.9241 38.2883C39.3219 38.267 38.0658 38.7248 36.8203 39.6564C30.9015 44.08 26.5583 49.7545 23.4498 56.4031C22.4279 58.5856 21.6774 60.8959 20.7353 63.3179C21.3953 63.3179 21.7466 63.3179 22.1032 63.3179C25.1265 63.3179 28.155 63.302 31.1783 63.3286C31.8862 63.3339 32.6154 63.4191 33.2861 63.6214C36.1709 64.489 38.0232 68.3058 35.4364 71.6594L35.4311 71.67ZM40.0299 8.37736C39.5987 8.37736 39.2421 8.37736 38.8855 8.37736C35.8888 8.38269 34.489 10.2298 35.3033 13.1097C36.65 17.8952 38.0179 22.6701 39.3326 27.4663C39.5242 28.1636 39.8169 28.3659 40.5302 28.3659C46.8428 28.3393 53.1555 28.3393 59.4681 28.3659C60.1494 28.3659 60.4847 28.2222 60.6817 27.4929C62.0123 22.6382 63.4175 17.7994 64.7641 12.95C64.9238 12.3698 65.0143 11.715 64.9132 11.1348C64.5459 8.97356 62.6564 7.98877 59.9897 8.50512C59.9897 11.1294 59.9951 13.7591 59.9897 16.3834C59.9897 17.6024 59.3191 18.3743 58.3238 18.3637C57.3337 18.353 56.6737 17.5705 56.6684 16.3515C56.6578 14.3021 56.6897 12.2526 56.6524 10.2032C56.6365 9.46329 56.5513 8.70208 56.3331 7.99942C55.375 4.91729 52.2347 2.94239 49.1422 3.41616C45.8049 3.92718 43.4257 6.57813 43.3725 9.8998C43.3405 12.077 43.3725 14.2595 43.3565 16.442C43.3459 17.5865 42.6699 18.3477 41.7118 18.369C40.7431 18.3903 40.0405 17.6344 40.0352 16.5005C40.0192 13.839 40.0352 11.1774 40.0352 8.38801L40.0299 8.37736ZM96.6254 74.8905C92.181 73.8578 89.4665 71.1058 88.4392 66.7195H83.2284C84.1439 80.6981 77.4799 90.1681 65.5466 96.6198H88.4658C88.9076 94.5278 89.8125 92.7232 91.3081 91.2381C92.7985 89.7582 94.6241 88.9012 96.6254 88.454V74.8905ZM18.4146 73.3362C17.7653 73.3362 17.1159 73.3362 16.4612 73.3362C12.8205 73.3362 9.17452 73.3362 5.53384 73.3362C4.13399 73.3362 3.35688 73.959 3.36753 75.0183C3.37817 76.0776 4.14995 76.6578 5.56578 76.6738C5.62965 76.6738 5.69352 76.6738 5.76271 76.6738C14.1512 76.6738 22.545 76.6738 30.9335 76.6738C31.2901 76.6738 31.652 76.6738 32.0033 76.6046C32.8603 76.4449 33.2861 75.8647 33.3446 75.0343C33.4032 74.2358 32.807 73.5385 31.9767 73.3947C31.6254 73.3309 31.2635 73.3362 30.9068 73.3362C26.7445 73.3362 22.5822 73.3362 18.4199 73.3362H18.4146ZM18.388 93.346C14.0607 93.346 9.73872 93.3513 5.41142 93.3407C4.64496 93.3407 3.98495 93.4951 3.58575 94.2031C2.90446 95.4114 3.81463 96.6677 5.40077 96.6677C14.0181 96.673 22.6408 96.6677 31.2581 96.6677C32.5622 96.6677 33.3499 96.0289 33.3553 95.0069C33.3553 93.9795 32.5782 93.346 31.2688 93.346C26.9734 93.346 22.6834 93.346 18.388 93.346ZM18.3348 69.9985C22.529 69.9985 26.7233 69.9985 30.9228 69.9985C31.2794 69.9985 31.6414 70.0092 31.9927 69.9506C32.8017 69.8122 33.2541 69.2693 33.3233 68.4868C33.3925 67.6989 33.0253 67.0868 32.2588 66.8153C31.9288 66.6982 31.5562 66.6716 31.2049 66.6716C22.6514 66.6662 14.098 66.6662 5.54448 66.6716C5.16125 66.6716 4.75141 66.6982 4.40012 66.8366C3.69221 67.1081 3.32495 67.6936 3.38349 68.4442C3.44204 69.232 3.8785 69.7803 4.68222 69.94C5.02819 70.0092 5.39545 69.9985 5.75207 69.9985C9.94631 69.9985 14.1405 69.9985 18.3401 69.9985H18.3348ZM18.372 80.0168C16.4878 80.0168 14.5983 80.0168 12.7141 80.0168C10.1752 80.0168 7.6416 80.0008 5.10271 80.0327C4.06479 80.0434 3.38882 80.7141 3.36753 81.6297C3.34624 82.5293 4.01689 83.232 5.02287 83.3384C5.21448 83.3597 5.41142 83.3544 5.60836 83.3544C14.098 83.3544 22.5822 83.3544 31.0719 83.3491C31.487 83.3491 31.9288 83.3225 32.3173 83.1787C33.0412 82.9179 33.483 82.2791 33.302 81.5818C33.1583 81.0335 32.6633 80.5172 32.2002 80.1392C31.9554 79.9369 31.4498 80.0274 31.0612 80.0274C26.835 80.0221 22.6035 80.0274 18.3774 80.0274L18.372 80.0168ZM19.9422 90.019C24.2003 90.019 28.4638 90.019 32.7219 90.0137C33.1051 90.0137 33.5149 90.0031 33.8716 89.8806C34.6806 89.6145 35.0745 89.0023 34.9787 88.1506C34.8829 87.3042 34.3772 86.8092 33.5203 86.708C33.2648 86.6761 32.9986 86.6867 32.7432 86.6867C24.2589 86.6867 15.7693 86.6867 7.28499 86.6867C6.99224 86.6867 6.69417 86.6708 6.40675 86.7187C5.1719 86.9263 4.55447 88.454 5.43803 89.3324C5.84255 89.7316 6.57708 89.9765 7.16257 89.9818C11.4207 90.035 15.6841 90.0084 19.9422 90.0084V90.019ZM49.9725 35.0039C52.5753 35.0039 55.1728 35.0039 57.7755 35.0039C59.0742 35.0039 60.3783 35.0252 61.677 34.988C62.6564 34.9613 63.2845 34.3172 63.3111 33.407C63.3377 32.5074 62.7362 31.81 61.7941 31.6876C61.5706 31.661 61.3417 31.6716 61.1128 31.6716C53.7037 31.6716 46.2893 31.6716 38.8802 31.6716C38.5555 31.6716 38.2202 31.6663 37.9168 31.7568C37.0651 32.0176 36.6287 32.6245 36.7245 33.5241C36.815 34.3811 37.3313 34.8602 38.1776 34.972C38.465 35.0093 38.7631 34.9933 39.0558 34.9933C42.6965 34.9933 46.3372 34.9933 49.9779 34.9933L49.9725 35.0039ZM92.032 66.7088C92.3567 68.8913 94.6614 71.1537 96.6042 71.2708V66.7088H92.032ZM92.032 96.5985H96.668V91.9993C94.3793 92.4624 92.346 94.5171 92.032 96.5985Z" fill="white"/>
  <path d="M51.6864 55.3278C51.6864 58.5963 51.6651 61.6464 51.7237 64.7019C51.7237 64.9468 52.2187 65.2875 52.5487 65.3993C58.0044 67.2198 60.1015 73.6662 56.711 78.2814C55.6411 79.7399 54.236 80.7567 52.4955 81.2783C52.0058 81.4221 51.6651 81.5924 51.548 82.1939C51.399 82.9445 50.7709 83.3171 50.0258 83.3278C49.2806 83.3384 48.6419 82.9711 48.4822 82.2259C48.3438 81.5977 47.9925 81.4274 47.4656 81.2571C44.1496 80.1871 41.9194 77.286 41.6905 73.7833C41.6107 72.5856 42.2228 71.7605 43.2341 71.6966C44.2241 71.6327 44.8841 72.2662 45.0012 73.4692C45.2034 75.5825 46.1935 77.0996 48.3385 78.0472C48.3385 77.2434 48.3385 76.6046 48.3385 75.9658C48.3385 73.6236 48.3225 71.2814 48.3491 68.9392C48.3544 68.3909 48.1735 68.162 47.6412 67.9864C43.9526 66.778 41.632 63.648 41.6586 59.975C41.6852 56.2966 44.0112 53.2571 47.7211 51.9902C47.9925 51.8997 48.2959 51.5963 48.3864 51.3248C48.6578 50.5103 49.1795 50.0419 50.0204 50.0472C50.8614 50.0525 51.3564 50.537 51.6438 51.3408C51.7556 51.6495 52.1655 51.9476 52.5008 52.0594C55.8753 53.1985 58.1108 56.0731 58.3291 59.613C58.3983 60.7575 57.8287 61.5506 56.8494 61.6731C55.8966 61.7902 55.1621 61.1035 55.0184 59.9643C54.9758 59.6396 54.9598 59.3149 54.8853 58.9955C54.4755 57.3134 53.5068 56.1157 51.6864 55.3331V55.3278ZM51.7396 77.8662C53.5334 77.4669 54.9758 75.4814 55.0131 73.4C55.0503 71.3187 53.5866 69.2426 51.7396 68.8114V77.8662ZM48.3385 64.6274C48.3385 61.7103 48.3385 58.8837 48.3385 56.0624C48.3385 55.8761 48.2906 55.6951 48.2586 55.5088C46.5394 55.8814 45.1449 57.7552 45.0172 59.8046C44.8947 61.8487 46.2201 63.8502 48.3385 64.6274Z" fill="white"/>
  <path d="M90.0094 76.7004C92.8144 76.7111 94.9914 78.9255 94.9595 81.7415C94.9275 84.4776 92.708 86.6761 89.9721 86.6814C87.2895 86.6867 84.9902 84.3924 84.9902 81.7095C84.9902 78.9308 87.231 76.6951 90.0094 76.7058V76.7004ZM91.6328 81.6883C91.6435 80.7354 90.9355 80.0274 89.9828 80.0327C89.0567 80.0381 88.3062 80.794 88.3221 81.7042C88.3381 82.5559 89.0886 83.3065 89.9455 83.3331C90.8504 83.3597 91.6168 82.6092 91.6275 81.6829L91.6328 81.6883Z" fill="white"/>
</svg>