<svg xmlns="http://www.w3.org/2000/svg" width="91" height="80" viewBox="0 0 91 80" fill="none">
  <path d="M90.9628 6.38489C90.8326 6.04442 90.7118 5.70396 90.5956 5.37282C90.2794 4.48202 89.9866 3.63785 89.5264 2.95225C88.2712 1.05871 86.3792 0.0932781 83.7387 0C83.6736 0 83.6039 0 83.5063 0C83.5063 0 83.2785 0 83.2274 0H47.1535C36.3638 0 22.1341 0 7.78361 0C4.36681 0 2.075 1.35253 0.764068 4.13689C0.303846 5.11164 0.0435203 6.33359 0.0388716 7.48557C-0.0122641 30.7025 -0.00296555 53.3877 0.0109806 72.5144C0.0109806 74.6318 0.750124 76.5394 2.08895 77.8873C3.42778 79.2398 5.3198 79.9813 7.42101 79.986C19.5727 79.9953 32.18 80 44.8988 80C57.6177 80 70.2621 80 83.59 79.986C85.4587 79.986 87.123 79.4123 88.406 78.335C89.6798 77.2576 90.5398 75.7139 90.8884 73.8623C90.907 73.769 90.9303 73.6804 90.9675 73.5825L91 73.4939V6.47817L90.9628 6.38489ZM87.5042 73.2233C87.3461 75.0423 85.8214 76.4787 84.0363 76.4974C82.214 76.5161 80.2197 76.5207 77.7651 76.5207C76.496 76.5207 75.2223 76.5207 73.9439 76.5207H73.7858C72.5539 76.5207 71.3221 76.5207 70.0855 76.5207H69.086V69.1144H87.5274V70.1172C87.5274 70.4297 87.5321 70.7468 87.5414 71.0546C87.5553 71.7635 87.5739 72.4958 87.5088 73.2327L87.5042 73.2233ZM87.4856 14.4581V65.5512H3.50216V14.4581H87.4856ZM17.2995 3.47927C18.4756 3.47927 19.6517 3.4886 20.8325 3.4886C21.1254 3.4886 21.3811 3.6052 21.5996 3.83373L21.6135 3.84772L21.9389 4.14621V10.8622H3.46496V9.8595C3.46496 9.56101 3.46497 9.26252 3.45567 8.97336C3.44637 8.3344 3.44173 7.67679 3.47427 7.02384C3.57654 5.02303 5.10132 3.50259 7.02123 3.48394C8.48092 3.46995 10.0615 3.46528 11.8466 3.46528C13.6317 3.46528 15.4772 3.46995 17.2437 3.47461H17.2949L17.2995 3.47927ZM3.45567 70.8354V69.1238H21.9389V76.5301C20.0748 76.5301 13.8502 76.5301 12.8182 76.5301C11.1028 76.5301 9.38276 76.5301 7.66274 76.5301C4.95719 76.5301 3.46032 75.0189 3.45567 72.2812C3.45567 71.8055 3.45567 71.3345 3.45567 70.8354ZM25.4766 10.8669V3.50259H43.7088V10.8669H25.4766ZM47.2697 10.8669V3.50259H65.5019V10.8669H47.2697ZM87.5507 9.13659V10.8622H69.0674V3.45596C70.9316 3.45596 77.1562 3.45596 78.1835 3.45596C79.9035 3.45596 81.6189 3.45596 83.339 3.45596C86.0445 3.45596 87.5414 4.96706 87.546 7.70477C87.546 8.17583 87.546 8.64688 87.546 9.13659H87.5507ZM25.5091 76.4648V69.0725H43.7088V76.4648H25.5091ZM65.4972 69.1051V76.4648H47.265V69.1051H65.4972Z" fill="white"/>
  <path d="M32.882 35.7769C32.882 35.7769 32.882 38.5892 32.882 39.9604V44.3725C32.882 48.2155 32.882 52.1798 32.882 56.0835C32.882 57.2542 33.3934 57.6739 33.835 57.9071C34.1046 58.047 34.3557 58.117 34.6113 58.117C34.9925 58.117 35.4016 57.9538 35.8246 57.6319L37.54 56.34C44.0017 51.4849 50.6772 46.4619 57.2272 41.4995C57.5434 41.2616 57.8362 40.8792 58.0036 40.4967C58.2081 40.0257 58.3337 39.2841 57.0739 38.3327C53.8895 35.9308 50.6493 33.4916 47.5115 31.1316C47.5115 31.1316 44.8524 29.1308 43.6438 28.2213C42.9557 27.7036 42.2677 27.186 41.5797 26.6636L41.417 26.5423C39.6273 25.1945 37.7771 23.8 35.9502 22.4334C35.4435 22.0557 34.9646 21.8598 34.5277 21.8598C34.1558 21.8598 33.8118 22.0044 33.4817 22.2982C33.0494 22.6806 32.8773 23.175 32.8773 24.0052C32.8866 27.9275 32.882 31.9105 32.882 35.7675V35.7769ZM36.3964 52.8794V27.102L53.5222 39.9884L36.3964 52.8794Z" fill="white"/>
</svg>  