<svg xmlns="http://www.w3.org/2000/svg" width="112" height="102" viewBox="0 0 112 102" fill="none">
  <path d="M101.043 69.6448C102.524 70.7612 104.103 71.7573 105.447 72.9996C109.386 76.6407 111.442 81.192 111.586 86.5563C111.655 89.1611 111.649 91.7717 111.597 94.3822C111.517 98.5385 108.427 101.596 104.276 101.613C96.236 101.641 88.1965 101.613 80.157 101.624C78.3021 101.624 76.6885 100.972 75.2069 99.798C73.4267 101.349 71.3134 101.653 69.0452 101.641C60.0983 101.596 51.1457 101.601 42.1988 101.641C40.0741 101.653 38.1331 101.269 36.4103 99.7866C34.389 101.613 31.9139 101.659 29.3815 101.641C22.2148 101.596 15.0481 101.63 7.88143 101.624C3.00601 101.624 -0.00307553 98.653 0.0198946 93.7869C0.0371222 90.5752 -0.135165 87.3291 0.295525 84.169C1.14542 77.8887 4.61965 73.2458 10.1267 70.1143C10.2875 70.0227 10.4483 69.9254 10.6895 69.7822C10.4483 69.559 10.2531 69.3586 10.0406 69.1811C1.76562 62.1681 3.7066 49.0465 13.6756 44.7299C14.2499 44.4781 14.583 44.2662 14.5944 43.5449C14.7495 35.8506 18.2984 30.1715 24.9769 26.3873C25.0401 26.3529 25.0975 26.2957 25.2354 26.1812C21.1467 22.8664 19.0794 18.6014 19.4641 13.3344C19.7455 9.43004 21.4683 6.16683 24.4142 3.57344C30.2084 -1.52747 39.1208 -1.10383 44.4729 4.45508C49.9799 10.18 50.3073 20.1528 42.9338 26.061C44.6451 27.4636 46.3851 28.9062 48.1538 30.3088C48.3548 30.4691 48.7855 30.5207 49.0267 30.4234C53.569 28.557 58.0884 28.5627 62.6307 30.4291C62.8662 30.5264 63.2969 30.4577 63.4979 30.2974C65.2666 28.8948 67.0008 27.4578 68.7121 26.0552C61.3387 20.1986 61.5282 10.0083 67.4085 4.21463C73.174 -1.4645 82.4253 -1.39007 88.0587 4.35203C93.7955 10.2086 93.9161 20.1872 86.3819 26.2327C88.8741 27.5437 91.0333 29.2326 92.7733 31.4138C95.5297 34.8716 97.0113 38.7989 97.0285 43.23C97.0285 44.0659 97.2869 44.4551 98.0737 44.8044C107.985 49.2297 109.829 62.191 101.565 69.1983C101.364 69.37 101.169 69.5475 101.048 69.6506L101.043 69.6448ZM55.7799 96.8039C60.4026 96.8039 65.0254 96.8039 69.6481 96.8039C71.9394 96.8039 72.8065 95.9394 72.8122 93.6495C72.818 89.1554 72.8352 84.6556 72.8122 80.1615C72.7663 70.9444 66.3404 63.9085 57.1351 62.9753C48.2859 62.0765 39.6261 69.0265 39.006 77.8544C38.6384 83.0812 38.8394 88.3482 38.7992 93.5979C38.782 95.9566 39.6491 96.8039 42.0208 96.8039C46.6033 96.8039 51.1916 96.8039 55.7742 96.8039H55.7799ZM19.2861 96.8039C23.2255 96.8039 27.1706 96.8153 31.11 96.8039C32.8155 96.7982 33.9238 95.9623 33.9296 94.4967C33.941 91.2507 34.0903 87.9761 33.6999 84.7701C32.8557 77.8544 26.5561 72.6103 19.4584 72.5932C12.2974 72.576 5.98639 77.7971 5.09629 84.7701C4.72303 87.7127 4.88382 90.724 4.84937 93.7067C4.82066 95.928 5.70499 96.8039 7.92161 96.8096C11.7117 96.8211 15.5018 96.8096 19.2918 96.8096L19.2861 96.8039ZM92.1933 96.8039C96.0982 96.8039 100.003 96.8153 103.902 96.8039C105.614 96.7982 106.728 95.9681 106.733 94.5139C106.745 91.2679 106.9 87.9932 106.509 84.7873C105.665 77.8601 99.3772 72.6161 92.2794 72.5932C85.1128 72.5703 78.796 77.7914 77.9059 84.7529C77.5269 87.6955 77.6934 90.7068 77.6532 93.6895C77.6245 95.9623 78.5031 96.8039 80.8231 96.8096C84.6132 96.8096 88.4032 96.8096 92.1933 96.8096V96.8039ZM65.2091 60.1472C71.3881 63.3188 75.3217 68.1735 77.0388 74.5969C79.1635 72.908 81.248 71.2593 83.3096 69.6219C78.5548 65.5859 76.4301 60.3819 78.2447 54.1646C80.2201 47.3806 85.1817 44.0086 92.1359 43.459C92.5379 38.0948 88.541 32.2382 83.0052 30.0512C77.5556 27.8929 70.6129 29.3929 67.3454 33.4232C75.5227 41.169 74.2077 53.8784 65.2091 60.1529V60.1472ZM46.3966 60.1529C37.2143 53.7009 36.2495 41.0145 44.2776 33.4347C41.0216 29.2612 33.6826 27.8242 28.1066 30.2459C22.4445 32.7019 19.0909 38.7531 19.5445 43.4819C25.8498 43.9113 30.5817 46.8195 32.8959 52.7506C35.503 59.443 33.4816 65.1279 28.3421 69.6277C30.4381 71.2993 32.5169 72.9538 34.5899 74.6083C36.3127 68.1449 40.2463 63.3245 46.4023 60.1586L46.3966 60.1529ZM43.6976 45.9036C43.6632 52.596 49.0726 58.0461 55.7742 58.0633C62.4355 58.0805 67.845 52.7391 67.9139 46.0868C67.9828 39.3943 62.6365 33.9556 55.8947 33.8583C49.2506 33.7667 43.7378 39.2168 43.6976 45.9093V45.9036ZM24.2476 14.4107C24.1615 19.6777 28.4741 24.0744 33.8377 24.1946C39.1036 24.3149 43.5311 20.0212 43.6746 14.6569C43.8182 9.37279 39.4137 4.87872 34.0272 4.81575C28.7441 4.75277 24.328 9.07509 24.2419 14.405L24.2476 14.4107ZM67.9311 14.4394C67.8737 19.712 72.2035 24.103 77.5556 24.1946C82.833 24.2862 87.249 19.9754 87.3638 14.6283C87.4787 9.33844 83.0569 4.85582 77.6877 4.81575C72.3931 4.7814 67.9943 9.12089 67.9311 14.4394ZM9.68457 58.069C9.68457 63.3589 14.0432 67.7155 19.378 67.7556C24.6554 67.7957 29.0771 63.4218 29.1231 58.1148C29.169 52.7964 24.7128 48.3424 19.3722 48.371C14.0489 48.4053 9.69032 52.762 9.69032 58.0633L9.68457 58.069ZM101.927 58.0633C101.927 52.7677 97.5568 48.3996 92.2335 48.3767C86.8929 48.3538 82.4425 52.8021 82.4884 58.1263C82.5344 63.439 86.9389 67.7842 92.2335 67.7556C97.5568 67.727 101.921 63.3589 101.921 58.0633H101.927Z" fill="white"/>
</svg>