<svg xmlns="http://www.w3.org/2000/svg" width="95" height="95" viewBox="0 0 95 95" fill="none">
  <path d="M64.0242 0.00485653C65.8839 0.674403 66.5248 2.0135 66.5199 3.95421C66.4811 24.2929 66.4957 44.6268 66.4957 64.9654C66.4957 65.3584 66.4957 65.7514 66.4957 66.3288C67.0443 66.0668 67.4425 65.8679 67.8552 65.6835C70.4383 64.5385 73.1477 64.0048 75.9687 64.0436C78.7557 64.0824 81.4457 63.6263 84.0093 62.5056C86.0583 61.608 87.7966 60.2883 89.1707 58.532C89.933 57.5616 90.7293 56.7368 92.1034 57.0376C93.5601 57.353 93.9728 58.4738 94.201 59.7643C95.4391 66.7266 95.4294 73.6065 92.7977 80.2874C90.4428 86.2648 86.3594 90.7333 80.5571 93.4891C74.0362 96.5845 66.5248 94.8039 61.9461 89.2438C61.7956 89.0594 61.6402 88.8751 61.4411 88.6325C61.2906 88.8265 61.1789 88.9624 61.077 89.1079C56.8673 95.032 49.2879 96.6961 42.9855 93.0767C39.9848 91.3543 37.4988 89.0691 35.644 86.1435C35.2944 85.5904 34.9011 85.4545 34.2893 85.4545C24.2385 85.4691 14.1828 85.4351 4.13201 85.4934C2.18496 85.5031 0.77202 84.9208 0 83.082V14.6524C0.403004 13.2745 1.30612 12.2556 2.30635 11.2707C5.3216 8.30626 8.31256 5.31757 11.2793 2.30461C12.2649 1.30514 13.2846 0.402698 14.6635 0H64.0291L64.0242 0.00485653ZM15.8143 3.21189C15.8143 3.59033 15.8143 3.9251 15.8143 4.25502C15.8143 6.35584 15.8143 8.45667 15.8143 10.5623C15.8046 13.9634 13.9449 15.8071 10.5169 15.812C8.41453 15.812 6.31211 15.812 4.20484 15.812C3.87467 15.812 3.54935 15.812 3.19976 15.812V82.2427H33.561C33.4445 81.8739 33.3522 81.5828 33.2648 81.2917C31.5363 75.6879 31.2304 70.021 32.42 64.2668C32.653 63.1315 33.1483 62.2873 34.3136 62.0107C35.5032 61.7245 36.3043 62.3455 36.989 63.2431C38.4165 65.1158 40.2907 66.3725 42.5145 67.1342C44.4955 67.8134 46.5397 68.0318 48.6275 68.0463C52.9926 68.0754 56.7993 69.4922 59.8485 72.7138C59.9262 72.7914 60.0282 72.8447 60.0427 72.8544C60.9459 71.6512 61.7664 70.4577 62.6938 69.3563C63.1211 68.8517 63.3396 68.3908 63.3396 67.7261C63.325 46.5869 63.325 25.4476 63.325 4.30354V3.20703H15.8143V3.21189ZM91.2488 61.1859C91.0449 61.312 90.9575 61.346 90.8993 61.4042C87.3159 65.2323 82.7712 66.8334 77.6584 67.1876C75.4492 67.3428 73.1719 67.3525 71.0647 67.9299C63.7475 69.9337 59.999 77.1774 62.5287 84.0087C62.8104 84.7656 63.1114 85.1683 63.9854 84.8093C64.5195 84.5909 65.1216 84.5279 65.6848 84.3726C72.0115 82.6308 77.537 79.6324 81.5233 74.2324C82.0186 73.5628 82.4702 72.8544 82.9945 72.2092C83.7326 71.3067 85.0193 71.3844 85.5728 72.345C86.0049 73.0873 85.7427 73.7375 85.3058 74.407C80.7173 81.4227 74.0848 85.4448 66.1218 87.5311C65.7528 87.6281 65.3838 87.73 64.9662 87.8465C67.8406 91.2913 73.4001 92.7953 77.8769 91.1602C82.946 89.3117 86.6264 85.7651 89.059 80.9958C92.2588 74.7224 92.3365 68.0706 91.2537 61.181L91.2488 61.1859ZM35.3527 66.2997C34.7846 68.4636 34.6292 72.3741 35.0953 75.7461C35.9936 82.2621 39.1108 87.3516 44.9762 90.5586C48.7052 92.5964 53.2548 92.1209 56.5419 89.4573C56.7702 89.268 57.0663 89.1662 57.3334 89.0206C57.2508 88.9236 57.1683 88.8265 57.0858 88.7295C56.7362 88.6325 56.3817 88.5306 56.0321 88.4335C49.4772 86.5996 43.9954 83.2179 40.1742 77.4442C39.4555 76.3574 39.4847 75.4016 40.3101 74.8437C41.1598 74.2712 41.9852 74.5526 42.7913 75.6491C43.4322 76.5175 44.0634 77.4006 44.7723 78.2108C48.3799 82.3348 53.0897 84.4939 58.3093 85.7214C58.6152 85.7942 59.1833 85.8427 59.227 85.7408C59.3727 85.3769 59.4649 84.9063 59.3533 84.5473C58.6201 82.2038 58.4259 79.8362 58.7755 77.4103C58.8289 77.027 58.7172 76.5418 58.5181 76.2022C57.6053 74.6836 56.3186 73.5482 54.76 72.7186C52.5168 71.5251 50.1133 71.1951 47.5982 71.1709C43.5778 71.1321 39.8488 70.0647 36.6685 67.469C36.2218 67.1051 35.8042 66.7024 35.3527 66.2997ZM5.61778 12.6389C7.51627 12.6389 9.33707 12.6535 11.153 12.6341C11.925 12.6243 12.5465 12.178 12.5805 11.4405C12.6679 9.51921 12.6097 7.5979 12.6097 5.68145C10.279 8.00545 7.9921 10.2809 5.61778 12.6438V12.6389Z" fill="white"/>
  <path d="M30.0796 23.6671C30.1476 15.8217 36.5811 9.43677 44.3644 9.49014C52.308 9.54836 58.7026 16.0206 58.6007 23.9048C58.4987 31.7259 52.0506 38.0429 44.2236 37.9944C36.4306 37.9459 30.0165 31.4445 30.0796 23.6671ZM35.4012 30.2849C35.5615 30.1927 35.6537 30.1685 35.712 30.1102C37.9406 27.8881 40.1839 25.6708 42.3834 23.4196C42.6213 23.177 42.7281 22.7113 42.733 22.3474C42.7621 19.446 42.7475 16.5446 42.7475 13.6433C42.7475 13.3813 42.7087 13.1144 42.6844 12.7797C38.4262 13.6384 35.4546 15.9285 33.9591 19.9312C32.585 23.6088 33.2017 27.0536 35.4109 30.2898L35.4012 30.2849ZM55.2941 25.4477C55.1047 25.3991 54.993 25.3409 54.8765 25.3409C51.7205 25.3361 48.5693 25.3264 45.4132 25.3409C45.1898 25.3409 44.9082 25.438 44.7529 25.5932C42.4222 27.8881 40.1062 30.1976 37.7027 32.5895C40.9753 34.8698 44.4033 35.4666 48.0546 34.1372C52.104 32.6574 54.4395 29.6784 55.2941 25.4477ZM55.2067 22.0951C54.8328 17.5829 50.4386 13.2018 45.991 12.8864V22.0951H55.2067Z" fill="white"/>
  <path d="M11.0947 71.2146H12.1872C16.8533 71.2146 21.5194 71.2146 26.1904 71.2146C26.4671 71.2146 26.7488 71.2 27.0255 71.2291C27.9044 71.3213 28.521 72.0102 28.4919 72.8448C28.4676 73.6502 27.8655 74.276 27.0255 74.3634C26.841 74.3828 26.6565 74.3731 26.472 74.3731C20.9707 74.3731 15.4695 74.3731 9.96825 74.3731C8.46306 74.3731 7.93867 73.8685 7.93867 72.3935C7.93381 66.3094 7.93867 60.2253 7.92896 54.1411C7.92896 53.2872 8.15231 52.5982 9.02629 52.3168C10.0896 51.9772 11.0413 52.705 11.085 53.9179C11.1287 55.1503 11.0996 56.3875 11.0996 57.6247C11.0996 61.7924 11.0996 65.9649 11.0996 70.1326C11.0996 70.4625 11.0996 70.7925 11.0996 71.2146H11.0947Z" fill="white"/>
  <path d="M46.6999 41.1577C50.0065 41.1577 53.3082 41.1577 56.6148 41.1577C57.8481 41.1577 58.6007 41.769 58.5958 42.7394C58.591 43.7049 57.8335 44.3162 56.6002 44.3162C49.992 44.3162 43.3788 44.3162 36.7705 44.3162C35.5032 44.3162 34.7846 43.6467 34.872 42.5841C34.9448 41.6817 35.5858 41.1674 36.6977 41.1626C40.0334 41.1529 43.3691 41.1626 46.7048 41.1626L46.6999 41.1577Z" fill="white"/>
  <path d="M46.6805 60.1234C43.5002 60.1234 40.3198 60.1234 37.1346 60.1234C36.8239 60.1234 36.5131 60.1428 36.2073 60.0991C35.4449 59.9875 34.974 59.5412 34.8769 58.7746C34.7749 57.974 35.1099 57.3724 35.8819 57.1056C36.251 56.9794 36.6685 56.9697 37.0667 56.9697C43.4905 56.96 49.9142 56.9649 56.3429 56.9697C56.6197 56.9697 56.9013 56.9552 57.1732 56.9988C58.0083 57.125 58.6007 57.7945 58.591 58.5757C58.5861 59.4053 57.9452 60.07 57.0566 60.1185C56.4109 60.1525 55.7602 60.1331 55.1096 60.1331C52.2983 60.1331 49.487 60.1331 46.6756 60.1331L46.6805 60.1234Z" fill="white"/>
  <path d="M46.7727 49.0662C50.1085 49.0662 53.4442 49.0516 56.7799 49.0759C58.1831 49.0856 59.0522 50.2743 58.3773 51.3222C58.0957 51.7638 57.4354 52.0597 56.8867 52.2004C56.3089 52.3508 55.6583 52.2392 55.0416 52.2392C49.1131 52.2392 43.1846 52.2392 37.2512 52.2392C36.9404 52.2392 36.6297 52.2489 36.3286 52.2101C35.4012 52.0888 34.8477 51.4727 34.8623 50.609C34.8768 49.7503 35.4595 49.1244 36.3966 49.0953C37.8484 49.0468 39.3002 49.071 40.752 49.071C42.7573 49.071 44.7674 49.071 46.7727 49.071V49.0662Z" fill="white"/>
  <path d="M21.7913 63.9999C22.9469 62.0786 23.9957 60.3417 25.0445 58.5999C25.2533 58.2554 25.4378 57.8964 25.6854 57.581C26.2147 56.9066 27.0547 56.7611 27.7538 57.188C28.4045 57.5859 28.6667 58.3816 28.3802 59.1287C28.3025 59.3277 28.186 59.512 28.0743 59.6964C26.6322 62.1029 25.195 64.5142 23.7432 66.9158C22.8984 68.3132 21.9127 68.4345 20.7523 67.2797C20.189 66.7169 19.6792 66.0959 18.98 65.3148C18.2663 66.1202 17.7224 66.7946 17.1107 67.401C16.3144 68.2016 15.4209 68.2307 14.7412 67.5514C14.076 66.8867 14.1148 65.9601 14.882 65.1789C15.8288 64.2086 16.7902 63.243 17.7661 62.3018C18.5819 61.5158 19.3976 61.511 20.2133 62.2872C20.7425 62.7918 21.2087 63.3643 21.7913 63.9999Z" fill="white"/>
  <path d="M17.4846 34.8359C19.99 34.8359 22.4954 34.831 24.996 34.8359C26.2098 34.8359 26.8896 35.4035 26.9042 36.3739C26.9187 37.3637 26.1856 37.9895 24.9523 37.9895C19.9414 37.9944 14.9354 37.9944 9.92459 37.9895C8.6476 37.9895 7.95327 37.4219 7.93871 36.4224C7.92414 35.4035 8.60391 34.8359 9.87604 34.831C12.4106 34.8262 14.9451 34.831 17.4797 34.831L17.4846 34.8359Z" fill="white"/>
  <path d="M17.436 30.0617C14.9014 30.0617 12.3669 30.0665 9.82749 30.0617C8.60876 30.0617 7.94842 29.5086 7.93871 28.5139C7.92414 27.5193 8.59905 26.9129 9.78379 26.908C14.8529 26.8983 19.9269 26.9032 24.996 26.908C26.1759 26.908 26.8847 27.5096 26.8993 28.4703C26.9139 29.4698 26.1953 30.0617 24.9474 30.0617C22.442 30.0665 19.9366 30.0617 17.4312 30.0617H17.436Z" fill="white"/>
  <path d="M17.3923 22.1533C15.0131 22.1533 12.6339 22.1533 10.2499 22.1533C9.97312 22.1533 9.6915 22.1581 9.41474 22.129C8.52619 22.0368 7.96781 21.4643 7.93868 20.6395C7.90954 19.7662 8.45335 19.0287 9.37104 19.0239C14.7169 18.9851 20.0628 18.9851 25.4135 19.019C26.3263 19.0239 26.9139 19.7565 26.8993 20.6007C26.8847 21.4837 26.2632 22.1242 25.2678 22.1387C22.641 22.1678 20.0142 22.1484 17.3874 22.1484C17.3874 22.1484 17.3874 22.1484 17.3874 22.1533H17.3923Z" fill="white"/>
  <path d="M17.4069 45.8882C14.8723 45.8882 12.3378 45.8834 9.80322 45.8882C9.03605 45.8882 8.39027 45.6796 8.05525 44.9275C7.66681 44.0494 8.15236 43.0499 9.09432 42.8122C9.41963 42.7297 9.76923 42.72 10.1043 42.72C14.9889 42.7151 19.8735 42.72 24.7581 42.72C25.0348 42.72 25.3164 42.72 25.5884 42.7734C26.4283 42.9383 26.8799 43.4672 26.8993 44.3211C26.9187 45.141 26.3409 45.7912 25.4718 45.8494C24.423 45.9125 23.3694 45.8834 22.3206 45.8882C20.6843 45.8882 19.0432 45.8882 17.4069 45.8882Z" fill="white"/>
</svg>