<svg xmlns="http://www.w3.org/2000/svg" width="102" height="101" viewBox="0 0 102 101" fill="none">
  <path d="M10.2025 97.6276C10.2025 92.9012 10.2025 88.3409 10.2025 83.7806C10.2025 78.9739 10.2025 74.1673 10.2025 69.3663C10.2025 67.9226 10.8156 67.3268 12.273 67.3211C15.3904 67.3096 18.5077 67.3154 21.6251 67.3211C23.2213 67.3211 23.7997 67.894 23.7997 69.4809C23.7997 78.3896 23.7997 87.2982 23.7997 96.2068V97.5474H27.2005V96.3443C27.2005 85.2243 27.2005 74.1042 27.2005 62.9899C27.2005 61.0707 27.6921 60.5895 29.6643 60.5895C32.637 60.5895 35.6156 60.5895 38.5883 60.5895C40.2424 60.5895 40.8034 61.1567 40.8034 62.8181C40.8034 73.9725 40.8034 85.1269 40.8034 96.2813V97.5761H44.2042V96.3844C44.2042 83.0186 44.2042 69.6585 44.2042 56.2927C44.2042 54.3391 44.69 53.8521 46.6275 53.8521C49.4961 53.8521 52.3648 53.8521 55.2335 53.8521C57.3502 53.8521 57.8072 54.299 57.8072 56.3557C57.8072 69.6471 57.8072 82.9441 57.8072 96.2355V97.5589H61.2079V96.3214C61.2079 84.6743 61.2079 73.0329 61.2079 61.3858C61.2079 59.3692 61.6764 58.9051 63.6948 58.9051C66.6329 58.9051 69.5767 58.9051 72.5148 58.9051C74.2556 58.9051 74.8109 59.4437 74.8109 61.1567C74.8109 72.8381 74.8109 84.5139 74.8109 96.1954C74.8109 96.6136 74.8109 97.0375 74.8109 97.5417H78.2116V96.3558C78.2116 80.2228 78.2116 64.0842 78.2116 47.9512C78.2116 45.8773 78.6627 45.4305 80.7622 45.4305C83.6655 45.4305 86.5689 45.4305 89.4722 45.4305C91.2767 45.4305 91.8088 45.9575 91.8088 47.745C91.8088 63.9123 91.8088 80.0853 91.8088 96.2527V97.6276C92.8614 97.6276 93.8388 97.6276 94.8163 97.6276C96.6207 97.6276 98.431 97.6047 100.235 97.6391C101.311 97.6563 102.023 98.3896 101.999 99.3463C101.982 100.257 101.288 100.922 100.27 100.991C100.021 101.008 99.7728 100.996 99.5241 100.996C67.1881 100.996 34.8521 100.996 2.51614 100.996C2.33685 100.996 2.16334 100.996 1.98405 100.996C0.746367 100.968 -0.0170611 100.309 0.000289602 99.289C0.0176403 98.2635 0.769508 97.6391 2.03611 97.6334C4.71969 97.6219 7.40327 97.6334 10.1967 97.6334L10.2025 97.6276ZM88.3676 48.8564H81.6875V97.5417H88.3676V48.8564ZM54.3601 57.2781H47.6859V97.5417H54.3601V57.2781ZM71.3407 97.5761V62.3483H64.6665V97.5761H71.3407ZM30.6822 63.9925V97.5703H37.3506V63.9925H30.6822ZM20.3354 97.5761V70.77H13.6611V97.5761H20.3354Z" fill="white"/>
  <path d="M67.6623 35.1526C65.2332 35.1526 63.0123 35.1354 60.7915 35.1812C60.5601 35.1812 60.2189 35.525 60.1379 35.7713C59.8083 36.8025 59.5827 37.8681 59.2762 38.9108C58.9523 40.0165 58.0848 40.5722 57.1536 40.3259C56.1588 40.0624 55.7135 39.1514 56.02 37.977C56.2571 37.0661 56.5 36.1609 56.7545 35.1927H45.2741C45.5228 36.1494 45.7542 37.0546 45.9913 37.9541C46.3036 39.1457 45.8872 40.0394 44.8924 40.3202C43.9323 40.5894 43.0706 40.0108 42.7236 38.8421C42.5154 38.1374 42.3129 37.427 42.1336 36.7166C41.7461 35.1583 41.7519 35.1583 40.0863 35.1583C38.2529 35.1583 36.4195 35.1583 34.5861 35.1583C34.5225 35.2443 34.4531 35.3245 34.3894 35.4104C35.3842 36.4588 36.3385 37.5473 37.3795 38.5556C38.5999 39.7358 38.8775 40.6754 38.1025 41.5003C37.3101 42.3482 36.3501 42.2623 35.0777 41.0535C28.0738 34.4135 25.5117 26.3471 28.1663 17.1176C30.8036 7.93972 37.1713 2.2107 46.6622 0.428969C59.9991 -2.07461 72.347 6.6335 74.4927 19.9478C75.7478 27.7564 73.3765 34.5568 67.8069 40.24C66.8758 41.191 65.8637 41.2712 65.1118 40.5321C64.3599 39.7874 64.4698 38.8363 65.3952 37.8567C65.9735 37.2437 66.5346 36.6078 67.0898 35.9718C67.2517 35.7885 67.3732 35.5765 67.6508 35.1698L67.6623 35.1526ZM58.212 21.8154C57.8881 19.2717 57.5411 16.8541 57.2982 14.425C57.1941 13.4109 56.7372 13.2162 55.8002 13.2391C53.0415 13.3021 50.2769 13.262 47.5124 13.262C44.9329 13.262 44.8866 13.2563 44.5223 15.7656C44.2389 17.7535 44.0885 19.7644 43.8745 21.8154H58.212ZM58.1426 25.2872H43.8803C44.0943 27.4757 44.3083 29.5897 44.5165 31.7324H57.5064C57.7204 29.584 57.9286 27.4757 58.1426 25.2872ZM41.376 13.262C38.8601 13.262 36.3501 13.2505 33.84 13.2792C33.6202 13.2792 33.3195 13.5083 33.2096 13.7088C31.7926 16.2067 30.9193 18.8764 30.7169 21.7696H40.4275C40.7456 18.9108 41.0579 16.1322 41.376 13.262ZM61.5954 21.7753H71.3118C71.0862 18.928 70.2881 16.3327 68.9116 13.9266C68.7207 13.6 68.1713 13.3078 67.778 13.2906C65.8694 13.2276 63.9551 13.262 62.0407 13.262C61.5665 13.262 61.0922 13.262 60.6469 13.262C60.9707 16.1838 61.2773 18.928 61.5954 21.7753ZM71.5778 25.2929H61.5433C61.3525 27.47 61.1674 29.5725 60.9707 31.7896C63.7758 31.7896 66.4883 31.8068 69.2008 31.761C69.4437 31.761 69.8138 31.423 69.8948 31.1709C70.4732 29.2746 70.9937 27.3668 71.5836 25.2872L71.5778 25.2929ZM30.445 25.2757C31.0465 27.3726 31.596 29.3376 32.1859 31.2912C32.2495 31.4975 32.5503 31.7725 32.7469 31.7782C35.4941 31.8126 38.2413 31.8011 41.0637 31.8011C40.8613 29.5381 40.6646 27.4069 40.4738 25.2815H30.445V25.2757ZM56.2398 9.84749C55.8581 8.65012 55.5573 7.61317 55.1987 6.5934C54.416 4.37436 52.8352 3.29157 50.4562 3.34504C48.004 3.3966 47.9924 3.39087 47.1769 5.64811C46.6853 7.00589 46.2516 8.38658 45.7657 9.84749H56.2398ZM65.9909 9.86467C63.7122 7.44702 61.2194 5.79706 58.1541 4.62261C58.7556 6.51892 59.2819 8.19753 59.814 9.86467H65.9967H65.9909ZM43.8629 4.62261C40.7629 5.82571 38.276 7.46994 36.0435 9.84749H42.2204C42.7525 8.15169 43.2672 6.50174 43.8571 4.62261H43.8629Z" fill="white"/>
  <path d="M92.5549 25.2872C92.0459 25.2356 91.722 25.2471 91.4329 25.1612C90.5942 24.9148 90.0969 24.3476 90.1373 23.4597C90.1778 22.5831 90.7041 21.9357 91.5717 21.8956C93.4455 21.8154 95.331 21.7925 97.1991 21.9071C98.1649 21.9644 98.6161 22.7378 98.6161 23.706C98.6161 25.2471 98.6276 26.7939 98.6161 28.335C98.6045 29.498 97.9452 30.2371 96.9504 30.2543C95.9556 30.2715 95.2789 29.5496 95.2211 28.3981C95.2095 28.1632 95.2211 27.9283 95.2211 27.4356C93.2836 29.2402 91.5138 30.873 89.7672 32.5402C89.6284 32.6719 89.6052 33.05 89.6862 33.2506C90.5422 35.4505 90.1894 37.4327 88.437 39.0197C86.6441 40.641 84.5851 40.7728 82.4336 39.6785C82.3758 39.6499 82.3006 39.6441 82.1502 39.6155C79.403 42.1764 76.6385 44.7888 73.8219 47.344C73.0526 48.0372 72.7577 48.6158 73.0179 49.7215C73.6136 52.2824 71.7224 54.8318 69.0388 55.4161C66.4767 55.9776 63.7526 54.3964 63.1627 51.8126C62.9429 50.8387 62.4514 50.5293 61.6185 50.3001C59.7099 49.7731 57.8187 49.1944 55.9275 48.6158C55.407 48.4554 55.0657 48.5012 54.6377 48.9252C52.654 50.8845 49.8721 51.0105 47.7379 49.2345C47.281 48.8564 46.9456 48.8163 46.4308 49.0283C44.2736 49.9106 42.1105 50.7699 39.9359 51.6063C39.3864 51.8183 39.1378 52.0761 39.0626 52.712C38.8254 54.6714 37.7497 56.0979 35.8758 56.8312C33.9961 57.5645 32.2842 57.1864 30.6879 55.989C30.3988 55.7713 29.8493 55.6568 29.5254 55.7771C27.2756 56.6135 25.0432 57.5015 22.8339 58.4411C22.51 58.5786 22.1745 59.0312 22.1225 59.3749C21.5094 63.4826 17.1197 65.2643 13.7536 62.7722C13.4702 62.566 12.8977 62.5087 12.5622 62.6462C10.4281 63.4941 8.32863 64.4164 6.21184 65.3044C4.92789 65.843 3.95047 65.5508 3.54562 64.531C3.1639 63.5743 3.63815 62.7493 4.90476 62.205C6.98106 61.317 9.05737 60.4233 11.1452 59.5525C11.6311 59.352 11.9145 59.1515 11.9665 58.527C12.1227 56.5104 13.1753 55.0323 15.0723 54.2417C16.9751 53.4454 18.7275 53.812 20.3585 55.038C20.6477 55.2557 21.2029 55.376 21.521 55.2615C23.7708 54.425 26.0032 53.537 28.2126 52.6032C28.5365 52.4657 28.8661 52.0131 28.924 51.6636C29.2594 49.6699 30.2715 48.209 32.1917 47.4643C34.0713 46.7309 35.7833 47.1148 37.3738 48.3236C37.6572 48.5413 38.2182 48.6502 38.542 48.5299C40.7918 47.6934 43.0243 46.8054 45.2336 45.8659C45.5517 45.7284 45.8698 45.27 45.9277 44.9148C46.321 42.3826 48.2816 40.515 50.7685 40.3832C53.2612 40.2514 55.407 41.8727 55.9969 44.405C56.1357 44.9951 56.3728 45.27 56.9627 45.4362C59.0043 46.0034 61.0286 46.6278 63.0586 47.2466C63.5965 47.4127 63.9782 47.407 64.4467 46.9372C65.881 45.482 67.6566 45.0466 69.6114 45.694C70.2707 45.9117 70.6351 45.757 71.0862 45.3331C73.9086 42.6748 76.7715 40.0509 79.5765 37.3812C79.8599 37.1119 80.045 36.5447 79.9872 36.1552C79.4666 32.6547 82.5724 29.6642 86.0657 30.4032C86.7019 30.535 87.1125 30.4319 87.5694 29.9907C89.1657 28.4496 90.8024 26.9544 92.5838 25.2872H92.5549ZM84.9957 33.6459C84.0761 33.6573 83.3301 34.4078 83.3243 35.313C83.3185 36.2583 84.134 37.0374 85.0883 36.9973C86.0021 36.9572 86.7366 36.1781 86.7077 35.2786C86.6845 34.3734 85.9095 33.6344 84.9957 33.6459ZM52.706 45.3961C52.6887 44.4909 51.9252 43.7461 51.0114 43.7461C50.0514 43.7461 49.2764 44.5539 49.3168 45.4992C49.3573 46.4044 50.1497 47.1262 51.0635 47.0976C51.9773 47.069 52.7176 46.2955 52.7002 45.3961H52.706ZM69.7039 50.4376C69.6808 49.5324 68.9116 48.7934 67.9978 48.7991C67.0377 48.8106 66.2685 49.6184 66.3148 50.5637C66.361 51.4631 67.1592 52.185 68.073 52.1506C68.9868 52.1162 69.7213 51.3371 69.7039 50.4376ZM34.054 53.8349C34.9678 53.812 35.7139 53.0443 35.7023 52.1391C35.6907 51.234 34.9331 50.4835 34.0193 50.4777C33.0592 50.4777 32.2784 51.2798 32.3189 52.2251C32.3536 53.1303 33.1402 53.8579 34.054 53.8349ZM16.9693 57.2208C16.0497 57.2437 15.3094 57.9999 15.3152 58.9109C15.3152 59.8561 16.148 60.6296 17.0965 60.5723C18.0046 60.5207 18.7333 59.7301 18.6986 58.8307C18.6639 57.9255 17.8773 57.1979 16.9693 57.2208Z" fill="white"/>
</svg>