<svg xmlns="http://www.w3.org/2000/svg" width="95" height="59" viewBox="0 0 95 59" fill="none">
  <path d="M32.8608 58.99C24.6357 58.99 16.4106 58.98 8.18548 58.965C4.01842 58.9551 1.01081 56.4784 0.133792 52.339C0.0991073 52.1892 0.0495488 52.0644 0 51.9645V6.92062C0.0545037 6.74086 0.104051 6.5611 0.1536 6.38135C0.287382 5.91698 0.411267 5.47757 0.569824 5.06313C1.79863 1.90741 4.64273 0.0249666 8.18052 0.0199734C16.6335 0.00499369 25.0915 0 33.5446 0C41.1553 0 48.766 0.00499285 56.3767 0.0249658C61.2275 0.0349522 64.5126 3.38042 64.5473 8.34369C64.5572 10.0514 64.5572 11.764 64.5522 13.5217V17.4264L65.8702 16.962L66.2567 16.8272C66.5144 16.7373 66.7373 16.6624 66.9553 16.5775C66.9553 16.5775 87.1961 8.42358 91.9676 6.50118C92.4532 6.30645 92.8991 6.20658 93.2955 6.20658C94.7027 6.20658 95 7.50482 95 8.59335C95 22.5295 95 36.4656 95 50.3967C95 51.4902 94.7027 52.7934 93.2955 52.7934C92.9041 52.7934 92.4582 52.6936 91.9726 52.4988C86.4578 50.2818 80.9479 48.0598 75.4381 45.8378L66.9603 42.4225C66.7621 42.3426 66.5639 42.2677 66.3261 42.1828L64.7108 41.5836L64.6216 42.9168C64.6117 43.0416 64.6018 43.1615 64.5968 43.2713C64.577 43.526 64.5572 43.7507 64.5572 43.9704C64.5572 44.8392 64.5572 45.703 64.5572 46.5719C64.5572 47.93 64.5572 49.2882 64.5522 50.6463C64.5176 55.5347 61.1581 58.9601 56.3866 58.97C48.548 58.99 40.7044 59 32.8657 59L32.8608 58.99ZM8.55213 3.73494C5.37605 3.73494 3.70131 5.43763 3.70131 8.65327V50.2569C3.70131 53.6123 5.3265 55.2451 8.67601 55.2451H55.9159C59.2356 55.2451 60.8509 53.6023 60.8509 50.2269C60.8509 36.3907 60.8509 22.5544 60.8509 8.71818C60.8509 5.36273 59.2257 3.73494 55.8862 3.72994H19.2002H8.55213V3.73494ZM89.9807 11.3596L89.7627 11.4245C89.5942 11.4744 89.4555 11.5194 89.3167 11.5743L83.8267 13.7913C77.8214 16.218 71.8111 18.6397 65.7959 21.0465C64.5423 21.5458 64.5423 22.6093 64.5473 23.0637V23.7378C64.5572 27.7074 64.5671 31.8069 64.5374 35.8414C64.5275 36.9249 64.9932 37.619 65.9991 38.0234C70.726 39.9059 75.5273 41.8433 80.17 43.7157L84.6046 45.5033C85.7888 45.9777 91.269 48.1797 91.269 48.1797V10.9502L89.9757 11.3646L89.9807 11.3596Z" fill="white"/>
</svg>