<svg xmlns="http://www.w3.org/2000/svg" width="86" height="60" viewBox="0 0 86 60" fill="none">
  <path d="M84.1997 9.39198C83.7354 7.5501 82.7897 5.8625 81.4582 4.49964C80.1267 3.13677 78.4566 2.1469 76.6164 1.63001C69.8932 3.46987e-07 43 0 43 0C43 0 16.1069 1.15662e-07 9.38357 1.78525C7.54345 2.30214 5.8733 3.29201 4.54181 4.65488C3.21032 6.01774 2.26465 7.70534 1.80032 9.54722C0.569862 16.3217 -0.0320233 23.194 0.00223449 30.0776C-0.041626 37.0131 0.560297 43.9378 1.80032 50.7633C2.31223 52.5479 3.27908 54.1713 4.60747 55.4766C5.93585 56.7819 7.58087 57.725 9.38357 58.2148C16.1069 60 43 60 43 60C43 60 69.8932 60 76.6164 58.2148C78.4566 57.6979 80.1267 56.708 81.4582 55.3451C82.7897 53.9823 83.7354 52.2947 84.1997 50.4528C85.4207 43.7293 86.0225 36.9095 85.9978 30.0776C86.0416 23.1421 85.4397 16.2175 84.1997 9.39198Z" fill="#BC2638"/>
  <path d="M34 42L56 29.5L34 17V42Z" fill="white"/>
</svg>