<svg width="166" height="39" viewBox="0 0 166 39" fill="none" xmlns="http://www.w3.org/2000/svg">
<g id="Group">
<path id="Vector" d="M15 39H12.5649C12.2944 39 12.0779 38.9313 11.9048 38.8054C11.7316 38.6795 11.6126 38.4964 11.526 38.279L10.5087 35.2346H4.49134L3.47403 38.279C3.40909 38.4621 3.29004 38.6223 3.11688 38.7711C2.94372 38.9199 2.71645 38.9885 2.45671 38.9885H0L5.89827 23H9.09091L15 39ZM9.75108 32.9227L8.11688 28.0358C8.00866 27.784 7.91125 27.475 7.80303 27.1431C7.6948 26.7997 7.5974 26.4335 7.48918 26.01C7.38095 26.4335 7.28355 26.7997 7.17532 27.1431C7.0671 27.4864 6.9697 27.7954 6.86147 28.0586L5.23809 32.9342H9.75108V32.9227Z" fill="black"/>
<path id="Vector_2" d="M20 39H17V23H20V39Z" fill="black"/>
<path id="Vector_3" d="M41 23V38.9771H38.1796V29.1644C38.1796 28.97 38.1796 28.7413 38.2017 28.5125C38.2238 28.2723 38.2349 28.0436 38.257 27.8034L33.8439 36.4725C33.6005 36.9414 33.2245 37.1816 32.7378 37.1816H32.2954C32.052 37.1816 31.8198 37.1244 31.6428 36.9986C31.4548 36.8728 31.2889 36.7127 31.1893 36.4725L26.743 27.7691C26.7651 28.0207 26.7762 28.2838 26.7983 28.5125C26.8204 28.7527 26.8204 28.97 26.8204 29.1873V39H24V23.0229H26.4333C26.5771 23.0229 26.6766 23.0229 26.7983 23.0457C26.9089 23.0457 26.9863 23.0801 27.0748 23.1029C27.1633 23.1372 27.2297 23.1944 27.3071 23.2516C27.3735 23.3202 27.4509 23.4117 27.4951 23.5375L31.8198 32.0579C31.9636 32.3095 32.0852 32.584 32.1848 32.847C32.3064 33.1215 32.417 33.396 32.5166 33.6819C32.6272 33.396 32.7267 33.0986 32.8484 32.8242C32.9701 32.5497 33.0917 32.2752 33.2134 32.0236L37.4938 23.5375C37.5602 23.4117 37.6155 23.3202 37.6818 23.2516C37.7482 23.183 37.8256 23.1258 37.9141 23.1029C38.0026 23.0686 38.0911 23.0457 38.1906 23.0457C38.3012 23.0457 38.4229 23.0229 38.5556 23.0229H40.9779L41 23Z" fill="black"/>
<path id="Vector_4" d="M61.3024 34.9607C61.4777 34.9607 61.631 35.028 61.7405 35.1515L63 36.5316C62.3867 37.3394 61.6201 37.9453 60.6891 38.3717C59.7692 38.7868 58.6849 39 57.4254 39C56.2755 39 55.246 38.8093 54.337 38.4053C53.428 38.0126 52.6394 37.4628 52.0152 36.7447C51.369 36.0267 50.8762 35.1851 50.5257 34.209C50.1752 33.2216 50 32.1669 50 31C50 30.2258 50.0876 29.4741 50.2409 28.7784C50.3943 28.0827 50.6462 27.432 50.9528 26.8485C51.2704 26.2538 51.6537 25.7265 52.0918 25.2553C52.5409 24.7728 53.0337 24.3801 53.6142 24.0435C54.1727 23.7069 54.786 23.4488 55.4431 23.2693C56.1112 23.0898 56.8231 23 57.5788 23C58.1373 23 58.674 23.0561 59.1668 23.1459C59.6706 23.2581 60.1415 23.3815 60.5796 23.5722C61.0177 23.7518 61.4229 23.9649 61.7843 24.2342C62.1457 24.4811 62.4853 24.7728 62.781 25.0757L61.7186 26.5568C61.6529 26.6466 61.5762 26.7363 61.4777 26.8036C61.3682 26.871 61.2477 26.9158 61.0725 26.9158C60.8972 26.9158 60.7439 26.8597 60.5687 26.7363C60.3934 26.6129 60.1853 26.4895 59.9444 26.3212C59.7035 26.1753 59.3858 26.0407 59.0025 25.906C58.6192 25.7826 58.1483 25.7265 57.5678 25.7265C56.9217 25.7265 56.3412 25.8499 55.8046 26.0856C55.2679 26.3212 54.8079 26.6578 54.4246 27.1178C54.0413 27.5666 53.7456 28.1164 53.5375 28.7784C53.3294 29.4404 53.2199 30.1697 53.2199 31.0112C53.2199 31.8527 53.3404 32.6045 53.5703 33.2665C53.8003 33.9285 54.107 34.4783 54.5122 34.9271C54.9174 35.3759 55.3665 35.7349 55.9141 35.9593C56.4398 36.195 57.0093 36.3184 57.6116 36.3184C57.973 36.3184 58.2906 36.2959 58.5864 36.2623C58.8821 36.2286 59.1449 36.1725 59.3858 36.0827C59.6268 35.993 59.8787 35.892 60.0868 35.7461C60.3168 35.6003 60.5249 35.4432 60.7548 35.23C60.8206 35.1627 60.9082 35.1066 60.9958 35.0729C61.1272 34.9832 61.2148 34.9495 61.3024 34.9607Z" fill="black"/>
<path id="Vector_5" d="M81 31C81 32.1429 80.8095 33.1961 80.4286 34.1821C80.0364 35.1681 79.4986 36.0084 78.8039 36.7143C78.1092 37.4314 77.2689 37.9804 76.2717 38.395C75.2857 38.8095 74.1989 39 73 39C71.8011 39 70.7143 38.8095 69.7283 38.395C68.7423 37.9804 67.902 37.4314 67.1961 36.7143C66.479 35.9972 65.9412 35.1569 65.5714 34.1821C65.1793 33.1961 65 32.1429 65 31C65 29.8571 65.1905 28.8039 65.5714 27.8179C65.9636 26.8319 66.5014 25.9916 67.1961 25.2857C67.8908 24.5686 68.7535 24.0196 69.7283 23.605C70.7143 23.1905 71.8011 23 73 23C74.1989 23 75.2857 23.1905 76.2717 23.605C77.2577 24.0196 78.098 24.5686 78.8039 25.2857C79.4986 26.0028 80.0588 26.8431 80.4286 27.8179C80.7983 28.7927 81 29.8571 81 31ZM77.6947 31C77.6947 30.1821 77.5826 29.4426 77.3697 28.8039C77.1569 28.1653 76.8543 27.605 76.4398 27.1457C76.0252 26.6863 75.5434 26.3389 74.9608 26.0924C74.3894 25.8571 73.7283 25.7339 73 25.7339C72.2717 25.7339 71.6106 25.8571 71.0392 26.0924C70.4454 26.3277 69.9636 26.6863 69.5602 27.1457C69.1457 27.605 68.8431 28.1653 68.6302 28.8039C68.4174 29.4426 68.3053 30.1933 68.3053 31C68.3053 31.8067 68.4174 32.5686 68.6302 33.2185C68.8431 33.8571 69.1457 34.4174 69.5602 34.8767C69.9748 35.3249 70.4566 35.6835 71.0392 35.9076C71.6218 36.1317 72.2717 36.2661 73 36.2661C73.7283 36.2661 74.3894 36.1429 74.9608 35.9076C75.5322 35.6723 76.0364 35.3137 76.4398 34.8767C76.8543 34.4286 77.1569 33.8796 77.3697 33.2185C77.5938 32.5574 77.6947 31.8179 77.6947 31Z" fill="black"/>
<path id="Vector_6" d="M96 23V38.9886H94.3682C94.1289 38.9886 93.9222 38.9542 93.7481 38.8627C93.5741 38.7711 93.4218 38.6223 93.2586 38.4278L85.6979 28.299C85.7197 28.5508 85.7305 28.814 85.7523 29.0658C85.7741 29.3176 85.7741 29.535 85.7741 29.7639V39H83V23.0114H84.6536C84.795 23.0114 84.8929 23.0115 85.0017 23.0343C85.0887 23.0572 85.1757 23.0687 85.2628 23.103C85.328 23.1373 85.4151 23.1946 85.4912 23.2632C85.5674 23.3319 85.6326 23.412 85.7197 23.515L93.3347 33.701C93.3021 33.4263 93.2803 33.1516 93.2695 32.8999C93.2477 32.6481 93.2477 32.3848 93.2477 32.1559V23.0114L96 23Z" fill="black"/>
<path id="Vector_7" d="M107.576 30.8147H112.977V37.2933C112.167 37.8884 111.323 38.2926 110.412 38.5846C109.5 38.8653 108.543 39 107.542 39C106.248 39 105.077 38.8091 104.019 38.4049C102.984 38.0119 102.084 37.4618 101.33 36.7432C100.576 36.0246 100.024 35.1825 99.6077 34.2056C99.1913 33.2175 99 32.1621 99 30.9944C99 29.8267 99.1913 28.7375 99.574 27.7719C99.9678 26.7839 100.508 25.9418 101.228 25.2456C101.949 24.5495 102.804 23.9881 103.828 23.5951C104.852 23.2021 105.977 23 107.238 23C107.879 23 108.498 23.0561 109.05 23.1572C109.601 23.2695 110.13 23.4042 110.614 23.5839C111.098 23.7635 111.526 23.9768 111.92 24.2463C112.314 24.4933 112.674 24.7853 113 25.066L112.055 26.5144C111.908 26.7502 111.717 26.8849 111.503 26.9411C111.267 26.9972 111.019 26.9411 110.749 26.7614C110.502 26.6042 110.232 26.4583 109.973 26.3347C109.714 26.2112 109.455 26.099 109.185 26.0091C108.904 25.9193 108.588 25.8519 108.273 25.7958C107.936 25.7397 107.553 25.7284 107.125 25.7284C106.394 25.7284 105.741 25.8519 105.156 26.0989C104.559 26.346 104.064 26.7053 103.648 27.1769C103.232 27.6372 102.916 28.1986 102.703 28.8386C102.489 29.4786 102.365 30.2197 102.365 31.0056C102.365 31.8702 102.489 32.6337 102.736 33.3186C102.984 34.0035 103.333 34.5761 103.772 35.0365C104.211 35.4969 104.762 35.8561 105.392 36.1144C106.023 36.3614 106.72 36.4849 107.474 36.4849C107.992 36.4849 108.465 36.4288 108.87 36.3277C109.286 36.2154 109.68 36.0807 110.074 35.9011V33.2737H108.296C108.082 33.2737 107.924 33.2175 107.812 33.1165C107.699 33.0154 107.632 32.8695 107.632 32.6898V30.8147H107.576Z" fill="black"/>
<path id="Vector_8" d="M128 39H125.178C124.65 39 124.273 38.7824 124.047 38.3586L121.181 33.4452C121.063 33.262 120.944 33.1131 120.783 33.0215C120.643 32.9298 120.438 32.8955 120.147 32.8955H119.081V39H116V23H120.729C121.774 23 122.668 23.1145 123.422 23.3436C124.176 23.5841 124.779 23.8933 125.264 24.3057C125.749 24.7294 126.093 25.199 126.309 25.7831C126.535 26.3443 126.632 26.9742 126.632 27.6614C126.632 28.1883 126.567 28.6807 126.427 29.1618C126.287 29.6314 126.083 30.078 125.813 30.456C125.544 30.8339 125.21 31.189 124.822 31.4982C124.424 31.8074 123.982 32.048 123.487 32.2312C123.691 32.3457 123.885 32.4832 124.057 32.655C124.23 32.8153 124.381 33.0215 124.521 33.2391L128 39ZM120.707 30.582C121.203 30.582 121.655 30.5132 122.011 30.3873C122.366 30.2613 122.679 30.0551 122.916 29.826C123.153 29.5855 123.325 29.3107 123.433 28.99C123.54 28.6578 123.605 28.3142 123.605 27.9363C123.605 27.1918 123.368 26.5848 122.905 26.1611C122.42 25.7373 121.698 25.5426 120.74 25.5426H119.124V30.6049H120.707V30.582Z" fill="black"/>
<path id="Vector_9" d="M134.281 25.5884V29.7001H139.517V32.2083H134.281V36.4116H141V39H131V23H141V25.5884H134.281Z" fill="black"/>
<path id="Vector_10" d="M151.925 26.1439C151.811 26.3011 151.731 26.4246 151.616 26.5032C151.502 26.5705 151.376 26.6154 151.193 26.6154C151.033 26.6154 150.862 26.5593 150.667 26.4582C150.484 26.346 150.267 26.2225 150.016 26.0989C149.764 25.9754 149.49 25.8519 149.158 25.7397C148.826 25.6274 148.46 25.5825 148.026 25.5825C147.26 25.5825 146.7 25.7396 146.311 26.0877C145.933 26.4246 145.751 26.8625 145.751 27.3902C145.751 27.727 145.865 28.0189 146.059 28.2547C146.254 28.4905 146.551 28.6814 146.883 28.8498C147.226 29.007 147.614 29.1754 148.049 29.2989C148.483 29.4225 148.929 29.5684 149.375 29.7256C149.833 29.8828 150.267 30.0625 150.702 30.2646C151.136 30.4779 151.525 30.7249 151.868 31.0505C152.211 31.3761 152.485 31.7467 152.691 32.2182C152.886 32.6786 153 33.24 153 33.88C153 34.5986 152.874 35.261 152.623 35.8898C152.371 36.5186 152.005 37.0575 151.525 37.5179C151.056 37.9782 150.473 38.3375 149.753 38.607C149.055 38.8765 148.255 39 147.363 39C146.848 39 146.357 38.9439 145.853 38.854C145.339 38.7417 144.87 38.6182 144.39 38.4274C143.921 38.2477 143.475 38.0344 143.075 37.7874C142.652 37.5403 142.309 37.2484 142 36.9453L142.96 35.407C143.029 35.2947 143.143 35.1937 143.292 35.1263C143.418 35.0589 143.567 35.014 143.715 35.014C143.91 35.014 144.115 35.0814 144.333 35.2274C144.55 35.3733 144.801 35.5305 145.099 35.7102C145.385 35.8898 145.716 36.047 146.105 36.193C146.482 36.3389 146.94 36.4063 147.477 36.4063C148.243 36.4063 148.849 36.2267 149.261 35.8898C149.684 35.553 149.901 35.0253 149.901 34.3516C149.901 33.9586 149.787 33.633 149.593 33.386C149.398 33.1389 149.124 32.9368 148.769 32.7796C148.426 32.6225 148.037 32.4765 147.626 32.353C147.191 32.2295 146.745 32.106 146.299 31.96C145.842 31.814 145.407 31.6344 144.973 31.4435C144.538 31.2526 144.15 30.9832 143.83 30.6351C143.486 30.2982 143.223 29.9053 143.006 29.4C142.812 28.9172 142.698 28.3109 142.698 27.5698C142.698 26.9747 142.812 26.4246 143.041 25.8632C143.281 25.313 143.624 24.8302 144.081 24.4147C144.538 23.9881 145.099 23.64 145.762 23.393C146.425 23.146 147.18 23 148.037 23C148.998 23 149.878 23.146 150.702 23.4267C151.525 23.7074 152.211 24.1228 152.783 24.6393L151.925 26.1439Z" fill="black"/>
<path id="Vector_11" d="M164.925 26.1439C164.811 26.3011 164.731 26.4246 164.616 26.5032C164.502 26.5705 164.376 26.6154 164.193 26.6154C164.033 26.6154 163.862 26.5593 163.667 26.4582C163.484 26.346 163.267 26.2225 163.016 26.0989C162.764 25.9754 162.49 25.8519 162.158 25.7397C161.826 25.6274 161.46 25.5825 161.026 25.5825C160.26 25.5825 159.7 25.7396 159.311 26.0877C158.933 26.4246 158.751 26.8625 158.751 27.3902C158.751 27.727 158.865 28.0189 159.059 28.2547C159.254 28.4905 159.551 28.6814 159.883 28.8498C160.226 29.007 160.614 29.1754 161.049 29.2989C161.483 29.4225 161.929 29.5684 162.375 29.7256C162.833 29.8828 163.267 30.0625 163.702 30.2646C164.136 30.4779 164.525 30.7249 164.868 31.0505C165.211 31.3761 165.485 31.7467 165.691 32.2182C165.886 32.6786 166 33.24 166 33.88C166 34.5986 165.874 35.261 165.623 35.8898C165.371 36.5186 165.005 37.0575 164.525 37.5179C164.056 37.9782 163.473 38.3375 162.753 38.607C162.055 38.8765 161.255 39 160.363 39C159.848 39 159.357 38.9439 158.853 38.854C158.339 38.7417 157.87 38.6182 157.39 38.4274C156.921 38.2477 156.475 38.0344 156.075 37.7874C155.652 37.5403 155.309 37.2484 155 36.9453L155.96 35.407C156.029 35.2947 156.143 35.1937 156.292 35.1263C156.418 35.0589 156.567 35.014 156.715 35.014C156.91 35.014 157.115 35.0814 157.333 35.2274C157.55 35.3733 157.801 35.5305 158.099 35.7102C158.385 35.8898 158.716 36.047 159.105 36.193C159.482 36.3389 159.94 36.4063 160.477 36.4063C161.243 36.4063 161.849 36.2267 162.261 35.8898C162.673 35.553 162.901 35.0253 162.901 34.3516C162.901 33.9586 162.787 33.633 162.593 33.386C162.398 33.1389 162.124 32.9368 161.769 32.7796C161.426 32.6225 161.037 32.4765 160.626 32.353C160.191 32.2295 159.745 32.106 159.299 31.96C158.842 31.814 158.407 31.6344 157.973 31.4435C157.538 31.2526 157.15 30.9832 156.83 30.6351C156.486 30.2982 156.223 29.9053 156.006 29.4C155.812 28.9172 155.698 28.3109 155.698 27.5698C155.698 26.9747 155.812 26.4246 156.041 25.8632C156.281 25.313 156.624 24.8302 157.081 24.4147C157.538 23.9881 158.099 23.64 158.762 23.393C159.425 23.146 160.18 23 161.037 23C161.998 23 162.878 23.146 163.702 23.4267C164.525 23.7074 165.211 24.1228 165.783 24.6393L164.925 26.1439Z" fill="black"/>
<path id="Vector_12" d="M2.75581 17C1.68605 17 1 16.5444 1 15.8284V15.1016L1.27907 15.1341C1.45349 15.1558 1.61628 15.1775 1.77907 15.1775C2.51163 15.1775 2.97674 15.0582 3.24419 14.8087C3.67442 14.3965 3.66279 13.5394 3.63953 12.3462C3.63953 12.0533 3.62791 11.7495 3.62791 11.4132V6H4.46512C5.55814 6 6 6.46647 6 7.59468V14.1903C5.98837 15.7416 4.53488 17 2.75581 17Z" fill="black"/>
<path id="Vector_13" d="M10.0645 13C8.13979 12.9116 7 11.5862 7 9.46559V0H7.77419C8.78495 0 9.19355 0.474931 9.19355 1.62361V9.37724C9.19355 10.3602 9.58065 10.78 10.5054 10.78H11V12.989H10.0645V13Z" fill="black"/>
<path id="Vector_14" d="M13 11H10V13H13V11Z" fill="black"/>
<path id="Vector_15" d="M15 11H12V13H15V11Z" fill="black"/>
<path id="Vector_16" d="M18 11H15V13H18V11Z" fill="black"/>
<path id="Vector_17" d="M20 11H17V13H20V11Z" fill="black"/>
<path id="Vector_18" d="M23 11H20V13H23V11Z" fill="black"/>
<path id="Vector_19" d="M27.566 13C26.4442 13 25.4213 12.5924 24.6624 11.8522C23.9695 12.6246 22.9687 12.9893 21.5279 12.9893C21.4729 12.9893 21.4179 12.9893 21.3299 12.9678H21V10.8224H21.5059C23.1447 10.8224 23.4086 10.3075 23.4086 8.64482C23.4086 5.7807 25.0034 4 27.577 4C30.0186 4 31.5914 5.8236 31.5914 8.64482C31.5914 10.3075 31.8553 10.8224 33.4941 10.8224H34V12.9678H33.769C32.3173 12.9678 31.1734 12.7747 30.3706 11.9058C29.6667 12.6138 28.7098 13 27.566 13ZM27.39 6.07033C26.2682 6.07033 25.5753 6.93921 25.5753 8.34446C25.5753 9.94279 26.3672 10.8975 27.698 10.8975C28.9738 10.8975 29.4357 9.70679 29.4357 8.60191C29.4247 6.92849 28.7428 6.07033 27.39 6.07033Z" fill="black"/>
<path id="Vector_20" d="M37.9062 13.9883C37.1354 13.9415 36.4792 13.6842 36 13.2398C35.5 13.6959 34.875 13.9532 34.1146 13.9883H33V11.6491H33.6667C34.5208 11.6491 34.8854 11.2398 34.9375 10.2339V6H35.6875C36.6667 6 37.0625 6.50293 37.0625 7.7193V10.3626C37.0937 11.2515 37.4896 11.6608 38.3333 11.6608H39V14H37.9062V13.9883Z" fill="black"/>
<path id="Vector_21" d="M43.9062 13.9883C43.1354 13.9415 42.4792 13.6842 42 13.2398C41.5104 13.6959 40.875 13.9532 40.1146 13.9883H39V11.6491H39.6667C40.5208 11.6491 40.8854 11.2398 40.9375 10.2339V6H41.6875C42.6667 6 43.0625 6.50293 43.0625 7.7193V10.3626C43.0937 11.2515 43.4896 11.6608 44.3333 11.6608H45V14H43.9062V13.9883Z" fill="black"/>
<path id="Vector_22" d="M55.6385 14C53.9963 14 53.0926 13.5736 52.6517 13.251C52.1227 13.735 51.4724 13.977 50.6679 14H44V11.6953H46.3255V5.02305H47.119C48.155 5.02305 48.5738 5.51857 48.5738 6.71703V11.6953H50.205C51.1087 11.6953 51.4945 11.2919 51.5496 10.3009V5.02305H52.3431C53.3791 5.02305 53.7979 5.51857 53.7979 6.71703C53.7979 8.08835 53.7979 10.1626 53.809 10.4853L53.82 10.4968V10.5659C53.7979 10.8425 53.7759 11.0845 53.7318 11.315C54.2498 11.6146 54.7899 11.7529 55.3299 11.7529C56.4651 11.7529 56.7186 11.1652 56.7517 10.2894V5H57.5452C58.5812 5 59 5.49552 59 6.69398V9.55186C59 12.306 57.7105 14 55.6385 14Z" fill="black"/>
<path id="Vector_23" d="M72.7827 13C71.9673 12.9669 71.1979 12.6907 70.6466 12.2379C70.0954 12.7128 69.4293 12.9669 68.6025 13H62.5389C61.5627 13 61 12.503 61 11.6415V10.78H63.2738V0H64.3763C64.939 0 65.5707 0.4418 65.5707 1.08241V10.78H68.1201C69.0044 10.78 69.4638 10.3382 69.5212 9.4435V0H70.3481C71.4276 0 71.864 0.474931 71.864 1.62361V9.565C71.9214 10.3602 72.4037 10.791 73.265 10.791H74V13H72.7827Z" fill="black"/>
<path id="Vector_24" d="M72 13V10.7853H73.0147C74.0171 10.7853 74.445 10.3978 74.5061 9.44549V0H75.3863C76.5355 0 77 0.476151 77 1.62777V8.74787C77 11.4054 75.802 12.8671 73.5403 13H73.5281H72Z" fill="black"/>
<path id="Vector_25" d="M93.0316 13C92.787 13 92.5868 12.9349 92.4311 12.8155C92.2866 12.707 92.1754 12.5551 92.1086 12.3923L91.0967 9.76628H85.8922L84.8802 12.3815C84.8135 12.5334 84.7134 12.6745 84.5577 12.7938C84.3909 12.924 84.1908 13 83.9572 13H82L87.2823 0H89.7177L95 13H93.0316ZM90.3516 7.83473L88.7057 3.57012C88.639 3.3965 88.5612 3.20117 88.4944 2.98414C88.4166 3.21202 88.3499 3.40735 88.2832 3.58097L86.6373 7.84558H90.3516V7.83473Z" fill="black"/>
<path id="Vector_26" d="M99 0H96V13H99V0Z" fill="black"/>
<path id="Vector_27" d="M112.701 13V4.22121L109.105 10.7755C108.907 11.1553 108.588 11.3614 108.17 11.3614H107.885C107.456 11.3614 107.137 11.1553 106.939 10.7755L103.288 4.18865V13H101V0H102.782C102.991 0 103.156 0.0217028 103.277 0.0542571C103.441 0.108514 103.573 0.23873 103.683 0.46661L107.753 7.74792C107.841 7.92154 107.929 8.10601 108.016 8.27963C108.016 8.27963 108.016 8.29048 108.027 8.29048C108.027 8.27963 108.038 8.27964 108.038 8.26878C108.115 8.08431 108.203 7.89984 108.302 7.72621L112.317 0.455761C112.427 0.238733 112.559 0.108514 112.723 0.0542571C112.844 0.0108514 113.009 0 113.218 0H115V13H112.701Z" fill="black"/>
<path id="Vector_28" d="M128.636 13C125.603 13 122 12.2411 122 8.62826C122 5.77434 123.623 4 126.241 4C128.658 4 130.348 5.78504 130.348 8.32898V10.8622H133V13H128.636ZM126.051 5.99881C124.898 5.99881 124.16 6.91805 124.16 8.35035C124.16 10.4133 125.536 10.8409 128.233 10.8622V10.5843C128.244 8.76722 128.244 7.20665 127.483 6.47981C127.159 6.15914 126.689 5.99881 126.051 5.99881Z" fill="black"/>
<path id="Vector_29" d="M135 11H132V13H135V11Z" fill="black"/>
<path id="Vector_30" d="M138 11H135V13H138V11Z" fill="black"/>
<path id="Vector_31" d="M140 11H137V13H140V11Z" fill="black"/>
<path id="Vector_32" d="M143 11H140V13H143V11Z" fill="black"/>
<path id="Vector_33" d="M145 11H142V13H145V11Z" fill="black"/>
<path id="Vector_34" d="M150.566 13C149.444 13 148.421 12.5924 147.662 11.8522C146.97 12.6246 145.969 12.9893 144.528 12.9893C144.484 12.9893 144.429 12.9893 144.33 12.9678H144V10.8224H144.506C146.145 10.8224 146.409 10.3075 146.409 8.64482C146.409 5.7807 148.003 4 150.577 4C153.019 4 154.591 5.8236 154.591 8.64482C154.591 10.3075 154.855 10.8224 156.494 10.8224H157V12.9678H156.769C155.317 12.9678 154.173 12.7747 153.371 11.9058C152.667 12.6138 151.71 13 150.566 13ZM150.379 6.07033C149.257 6.07033 148.564 6.93921 148.564 8.34446C148.564 9.94279 149.356 10.8975 150.687 10.8975C151.963 10.8975 152.425 9.70679 152.425 8.60191C152.425 6.92849 151.743 6.07033 150.379 6.07033Z" fill="black"/>
<path id="Vector_35" d="M156 12.9893V10.8515H158.551C158.164 10.2423 157.97 9.49407 157.97 8.62827C157.97 5.77435 159.531 4 162.05 4C164.375 4 166 5.78504 166 8.32898V13H156V12.9893ZM161.856 5.98812C160.747 5.98812 160.037 6.90736 160.037 8.33967C160.037 10.4026 161.361 10.8302 163.955 10.8515V10.5736C163.966 8.75653 163.966 7.19596 163.234 6.46912C162.921 6.14845 162.469 5.98812 161.856 5.98812Z" fill="black"/>
<g id="Group_2">
<path id="Vector_36" d="M34 4.0347C34 3.48781 34.41 3.0696 34.92 3.0696C35.43 3.0696 35.82 3.49854 35.82 4.0347C35.82 4.57087 35.42 4.9998 34.92 4.9998C34.41 5.01053 34 4.58159 34 4.0347ZM35.09 1.9651C35.09 1.41821 35.5 1 36.03 1C36.5 1 36.93 1.42893 36.93 1.9651C36.93 2.50127 36.5 2.9302 36.03 2.9302C35.5 2.9302 35.09 2.50127 35.09 1.9651ZM36.16 4.01326C36.16 3.46636 36.57 3.04815 37.1 3.04815C37.57 3.04815 38 3.47709 38 4.01326C38 4.56015 37.57 4.97836 37.1 4.97836C36.57 4.98908 36.16 4.56015 36.16 4.01326Z" fill="black"/>
<path id="Vector_37" d="M39 4C39 3.43333 39.411 3 39.9223 3C40.4336 3 40.8246 3.44444 40.8246 4C40.8246 4.55556 40.4236 5 39.9223 5C39.4211 5 39 4.55556 39 4ZM41.1554 4C41.1554 3.43333 41.5664 3 42.0977 3C42.5689 3 43 3.44444 43 4C43 4.55556 42.5689 5 42.0977 5C41.5664 5 41.1554 4.55556 41.1554 4Z" fill="black"/>
<path id="Vector_38" d="M124 2C124 1.43333 124.49 1 125.1 1C125.711 1 126.177 1.44444 126.177 2C126.177 2.56667 125.699 3 125.1 3C124.502 3 124 2.56667 124 2ZM126.799 2C126.799 1.43333 127.289 1 127.923 1C128.486 1 129 1.44444 129 2C129 2.56667 128.486 3 127.923 3C127.289 3 126.799 2.56667 126.799 2Z" fill="black"/>
<path id="Vector_39" d="M159 2C159 1.43333 159.49 1 160.1 1C160.711 1 161.177 1.44444 161.177 2C161.177 2.56667 160.699 3 160.1 3C159.502 3 159 2.56667 159 2ZM161.799 2C161.799 1.43333 162.289 1 162.923 1C163.486 1 164 1.44444 164 2C164 2.56667 163.486 3 162.923 3C162.289 3 161.799 2.56667 161.799 2Z" fill="black"/>
</g>
</g>
</svg>
