<svg width="74" height="89" viewBox="0 0 74 89" fill="none" xmlns="http://www.w3.org/2000/svg">
<g id="Group">
<g id="Group_2">
<path id="Vector" d="M33 89H29.8663L28.4225 86.1444L25 79.2888L21.5775 86.1444L20.1337 89H17L18.4439 86.1444L25.0214 73L31.5989 86.1444L33 89Z" fill="#099FFC"/>
<path id="Vector_2" d="M35 89V73H38V89H35Z" fill="#099FFC"/>
<path id="Vector_3" d="M56 73V89H53.1444V78.8023L50.3324 80.9509L48 82.7505L45.6676 80.9509L42.8556 78.8023V89H40V73L42.8556 75.1922L48 79.1404L53.1444 75.1922L56 73Z" fill="#099FFC"/>
</g>
<g id="Group_3">
<path id="Vector_4" d="M58 20.2027L47.6183 9L47.217 45.8682L47.2061 47.2247L47 65.9214L49.7229 68L53.0858 48.647L53.3245 47.2247L58 20.2027Z" fill="#099FFC"/>
<path id="Vector_5" d="M43 11.0489L31 0L33.4045 44.8874L33.4831 46.1834L34.1011 57.8144L37.4944 60L39.0674 46.0956L39.2022 44.7996L43 11.0489Z" fill="#099FFC"/>
<path id="Vector_6" d="M28 18.892L16 9L20.4158 47.2159L20.5814 48.6887L22.6127 66.2744L25.6707 68L26.6532 47.1829L26.7194 45.8091L28 18.892Z" fill="#099FFC"/>
</g>
<path id="Vector_7" d="M20.1875 47.9925L20.0221 47C20.011 47 20.011 47 20 47.0075L20.1765 48C20.1765 47.9925 20.1875 47.9925 20.1875 47.9925Z" fill="#099FFC"/>
<path id="Vector_8" d="M0 66.7281C0 74.462 6.97725 81.2499 17.4215 85L20 79.8033C10.6717 76.6875 4.42037 70.9789 4.42037 64.4692C4.42037 57.9594 10.195 52.6959 18.9382 49.5134L18.7649 48C7.58397 51.6388 0 58.6604 0 66.7281Z" fill="#099FFC"/>
<path id="Vector_9" d="M54.257 48L54 49.4649C63.2626 52.5697 69.4302 58.0468 69.4302 64.311C69.4302 69.788 64.7039 74.6748 57.3184 77.8889V84C67.3743 80.2284 74 73.8111 74 66.5084C73.9888 58.5059 66 51.553 54.257 48Z" fill="#099FFC"/>
</g>
</svg>
