<svg xmlns="http://www.w3.org/2000/svg" width="227" height="197" viewBox="0 0 227 197" fill="none">
  <path d="M107 122H102.691L100.706 118.074L96 108.647L91.2941 118.074L89.3088 122H85L86.9853 118.074L96.0294 100L105.074 118.074L107 122Z" fill="white"/>
  <path d="M110 122V100H114V122H110Z" fill="white"/>
  <path d="M139 100V122H135.074V107.978L131.207 110.933L128 113.407L124.793 110.933L120.926 107.978V122H117V100L120.926 103.014L128 108.443L135.074 103.014L139 100Z" fill="white"/>
  <path d="M142 27.5698L127.843 12L127.296 63.2405L127.281 65.1259L127 91.1111L130.713 94L135.299 67.1025L135.624 65.1259L142 27.5698Z" fill="white"/>
  <path d="M120 15.2843L104 0L107.206 62.0943L107.311 63.8871L108.135 79.9766L112.659 83L114.757 63.7655L114.936 61.9727L120 15.2843Z" fill="white"/>
  <path d="M100 25.7481L84 12L89.8878 65.1136L90.1086 67.1606L92.8169 91.6017L96.8942 94L98.2042 65.0678L98.2926 63.1583L100 25.7481Z" fill="white"/>
  <path d="M90.259 66.9851L90.0305 65C90.0203 65 90.0102 65.005 90 65.0149L90.2438 67C90.2438 66.9851 90.259 66.9851 90.259 66.9851Z" fill="white"/>
  <path d="M62 91.3083C62 101.759 71.7681 110.932 86.39 116L90 108.977C76.9404 104.767 68.1885 97.0526 68.1885 88.2556C68.1885 79.4586 76.273 72.3459 88.5135 68.0451L88.2709 66C72.6176 70.9173 62 80.406 62 91.3083Z" fill="white"/>
  <path d="M137.347 65L137 66.9939C149.504 71.2199 157.831 78.6748 157.831 87.201C157.831 94.6559 151.45 101.307 141.48 105.682V114C155.055 108.866 164 100.132 164 90.1919C163.985 79.2997 153.2 69.836 137.347 65Z" fill="white"/>
  <path d="M8.25758 176L0 196.985H3.43939C3.80303 196.985 4.12121 196.895 4.36364 196.7C4.60606 196.504 4.77273 196.294 4.86364 196.054L6.28788 192.058H14.7121L16.1364 196.054C16.2576 196.339 16.4242 196.579 16.6667 196.745C16.9091 196.91 17.2121 197 17.5909 197H21L12.7273 176H8.25758ZM13.6515 189.039H7.33333L9.60606 182.639C9.75758 182.294 9.89394 181.888 10.0455 181.438C10.197 180.987 10.3333 180.506 10.4848 179.951C10.6364 180.506 10.7727 180.987 10.9242 181.438C11.0758 181.873 11.2121 182.279 11.3636 182.609L13.6515 189.024V189.039Z" fill="white"/>
  <path d="M28 176H24V197H28V176Z" fill="white"/>
  <path d="M52.6929 176.03C52.5133 176.03 52.3487 176.06 52.1991 176.06C52.0644 176.06 51.9447 176.09 51.825 176.135C51.7053 176.165 51.6005 176.24 51.5107 176.33C51.4209 176.42 51.3461 176.54 51.2563 176.706L45.4652 187.843C45.3006 188.174 45.136 188.534 44.9714 188.894C44.8068 189.254 44.6721 189.645 44.5224 190.02C44.3878 189.645 44.2381 189.284 44.0735 188.924C43.9388 188.579 43.7742 188.219 43.5797 187.889L37.7287 176.706C37.6688 176.54 37.5641 176.42 37.4743 176.33C37.3696 176.255 37.2798 176.18 37.1601 176.135C37.0403 176.105 36.9356 176.06 36.7859 176.06C36.6213 176.03 36.4867 176.03 36.2921 176.03H33V197H36.8159V184.121C36.8159 183.836 36.8159 183.55 36.7859 183.235C36.756 182.935 36.7411 182.59 36.7111 182.259L42.7267 193.683C42.8614 193.998 43.0859 194.208 43.3403 194.373C43.5797 194.538 43.8939 194.613 44.2232 194.613H44.8217C45.4802 194.613 45.9889 194.298 46.3182 193.683L52.2889 182.305C52.2589 182.62 52.244 182.92 52.2141 183.235C52.1841 183.535 52.1841 183.836 52.1841 184.091V196.97H56V176L55.9701 176.03H52.6929Z" fill="white"/>
  <path d="M83.6495 191.698C83.5282 191.684 83.4069 191.728 83.2249 191.846C83.1036 191.89 82.9823 191.964 82.8913 192.052C82.5729 192.332 82.2848 192.538 81.9663 192.729C81.6782 192.921 81.3294 193.053 80.9958 193.171C80.6622 193.289 80.2982 193.363 79.8888 193.407C79.4794 193.451 79.0396 193.48 78.5392 193.48C77.7051 193.48 76.9166 193.318 76.1887 193.009C75.4305 192.715 74.8088 192.243 74.2477 191.654C73.6866 191.065 73.262 190.344 72.9436 189.475C72.6251 188.606 72.4583 187.619 72.4583 186.515C72.4583 185.41 72.6099 184.453 72.8981 183.584C73.1862 182.715 73.5956 181.994 74.1264 181.405C74.6571 180.801 75.294 180.359 76.0371 180.05C76.7801 179.741 77.5838 179.579 78.4785 179.579C79.2822 179.579 79.9343 179.652 80.465 179.814C80.9958 179.991 81.4356 180.168 81.7692 180.359C82.1028 180.58 82.3909 180.742 82.6335 180.904C82.8762 181.066 83.0885 181.14 83.3311 181.14C83.5737 181.14 83.7405 181.081 83.8922 180.992C84.0286 180.904 84.1348 180.786 84.2258 180.668L85.6967 178.724C85.2873 178.327 84.8172 177.944 84.3168 177.62C83.8163 177.266 83.2553 176.987 82.6487 176.751C82.0421 176.501 81.3901 176.339 80.6925 176.191C80.0101 176.074 79.2671 176 78.4937 176C77.4473 176 76.4617 176.118 75.5366 176.353C74.6268 176.589 73.7776 176.928 73.0042 177.37C72.2005 177.811 71.5181 178.327 70.8964 178.96C70.2898 179.579 69.7591 180.271 69.3193 181.051C68.8947 181.817 68.5459 182.671 68.3336 183.584C68.1213 184.497 68 185.484 68 186.5C68 188.032 68.2426 189.416 68.7279 190.712C69.2131 191.993 69.8955 193.097 70.7902 194.04C71.6546 194.982 72.7464 195.704 74.0051 196.219C75.2637 196.75 76.6891 197 78.2814 197C80.0253 197 81.5265 196.72 82.8003 196.175C84.0893 195.616 85.1508 194.82 86 193.76L84.2561 191.949C84.1045 191.787 83.8922 191.698 83.6495 191.698Z" fill="white"/>
  <path d="M107.118 179C106.191 178.059 105.088 177.338 103.794 176.794C102.5 176.25 101.074 176 99.5 176C97.9265 176 96.5 176.25 95.2059 176.794C93.9265 177.338 92.7941 178.059 91.8823 179C90.9706 179.926 90.2647 181.029 89.75 182.324C89.25 183.618 89 185 89 186.5C89 188 89.2353 189.382 89.75 190.676C90.2353 191.956 90.9412 193.059 91.8823 194C92.8088 194.941 93.9118 195.662 95.2059 196.206C96.5 196.75 97.9265 197 99.5 197C101.074 197 102.5 196.75 103.794 196.206C105.103 195.662 106.206 194.941 107.118 194C108.029 193.074 108.735 191.971 109.25 190.676C109.75 189.382 110 188 110 186.5C110 185 109.735 183.603 109.25 182.324C108.765 181.044 108.029 179.941 107.118 179ZM105.235 189.412C104.956 190.279 104.559 191 104.015 191.588C103.485 192.162 102.824 192.632 102.074 192.941C101.324 193.25 100.456 193.412 99.5 193.412C98.5441 193.412 97.6912 193.235 96.9265 192.941C96.1618 192.647 95.5294 192.176 94.9853 191.588C94.4412 190.985 94.0441 190.25 93.7647 189.412C93.4853 188.559 93.3382 187.559 93.3382 186.5C93.3382 185.441 93.4853 184.456 93.7647 183.618C94.0441 182.779 94.4412 182.044 94.9853 181.441C95.5147 180.838 96.1471 180.368 96.9265 180.059C97.6765 179.75 98.5441 179.588 99.5 179.588C100.456 179.588 101.324 179.75 102.074 180.059C102.838 180.382 103.471 180.838 104.015 181.441C104.559 182.044 104.956 182.779 105.235 183.618C105.515 184.456 105.662 185.426 105.662 186.5C105.662 187.574 105.529 188.544 105.235 189.412Z" fill="white"/>
  <path d="M128.189 188.017C128.189 188.318 128.189 188.663 128.219 188.994C128.234 189.324 128.264 189.685 128.31 190.045L117.766 176.676C117.645 176.541 117.555 176.436 117.449 176.346C117.344 176.255 117.223 176.18 117.133 176.135C117.013 176.09 116.892 176.075 116.772 176.045C116.621 176.015 116.485 176.015 116.29 176.015H114V197H117.841V184.878C117.841 184.577 117.841 184.292 117.811 183.961C117.781 183.631 117.766 183.285 117.736 182.955L128.204 196.249C128.43 196.504 128.641 196.7 128.882 196.82C129.123 196.94 129.409 196.985 129.741 196.985H132V176L128.189 176.015V188.017Z" fill="white"/>
  <path d="M142.308 181.482C142.873 180.863 143.545 180.392 144.355 180.067C145.149 179.743 146.035 179.581 147.027 179.581C147.608 179.581 148.127 179.596 148.585 179.669C149.013 179.743 149.441 179.832 149.822 179.949C150.189 180.067 150.54 180.215 150.891 180.377C151.243 180.539 151.609 180.731 151.945 180.937C152.312 181.173 152.648 181.246 152.969 181.173C153.259 181.099 153.518 180.922 153.717 180.613L155 178.712C154.557 178.343 154.068 177.96 153.534 177.636C152.999 177.282 152.419 177.002 151.762 176.766C151.105 176.531 150.387 176.354 149.639 176.206C148.891 176.074 148.051 176 147.18 176C145.469 176 143.942 176.265 142.552 176.781C141.162 177.297 140.002 178.034 139.024 178.947C138.047 179.861 137.314 180.966 136.779 182.263C136.26 183.531 136 184.96 136 186.493C136 188.025 136.26 189.411 136.825 190.707C137.39 191.989 138.138 193.095 139.162 194.038C140.185 194.981 141.407 195.703 142.812 196.219C144.248 196.749 145.836 197 147.592 197C148.952 197 150.25 196.823 151.487 196.455C152.724 196.072 153.87 195.541 154.969 194.76V186.257H147.638H147.715V188.718C147.715 188.954 147.806 189.145 147.959 189.278C148.112 189.411 148.326 189.484 148.616 189.484H151.029V192.933C150.494 193.168 149.96 193.345 149.395 193.493C148.845 193.625 148.203 193.699 147.501 193.699C146.477 193.699 145.531 193.537 144.675 193.213C143.82 192.874 143.072 192.402 142.476 191.798C141.88 191.194 141.407 190.442 141.071 189.543C140.735 188.644 140.567 187.642 140.567 186.507C140.567 185.476 140.735 184.503 141.025 183.663C141.315 182.823 141.743 182.086 142.308 181.482Z" fill="white"/>
  <path d="M171.415 188.672C171.171 188.447 170.896 188.266 170.606 188.116C171.308 187.875 171.934 187.56 172.498 187.154C173.048 186.748 173.521 186.282 173.902 185.786C174.284 185.29 174.574 184.704 174.772 184.087C174.97 183.456 175.062 182.81 175.062 182.118C175.062 181.216 174.925 180.389 174.604 179.653C174.299 178.886 173.811 178.27 173.124 177.714C172.437 177.173 171.583 176.767 170.514 176.451C169.446 176.15 168.18 176 166.699 176H160V197H164.364V188.988H165.875C166.287 188.988 166.577 189.033 166.776 189.153C167.004 189.273 167.172 189.469 167.34 189.709L171.399 196.158C171.72 196.714 172.254 197 173.002 197H177L172.071 189.439C171.873 189.153 171.659 188.883 171.415 188.672ZM169.797 184.959C169.461 185.26 169.019 185.53 168.515 185.696C168.012 185.861 167.371 185.951 166.669 185.951V185.981H164.425V179.337H166.715C168.073 179.337 169.095 179.593 169.782 180.149C170.438 180.705 170.774 181.502 170.774 182.479C170.774 182.975 170.682 183.426 170.53 183.862C170.377 184.283 170.133 184.644 169.797 184.959Z" fill="white"/>
  <path d="M179 197H193V193.603H183.593V188.086H190.924V184.794H183.593V179.397H193V176H179V197Z" fill="white"/>
  <path d="M208.456 186.566C207.989 186.139 207.458 185.815 206.866 185.535C206.273 185.269 205.681 185.034 205.057 184.827C204.449 184.621 203.841 184.429 203.248 184.267C202.656 184.105 202.126 183.884 201.658 183.678C201.206 183.457 200.8 183.206 200.535 182.897C200.27 182.587 200.114 182.204 200.114 181.762C200.114 181.069 200.364 180.495 200.878 180.053C201.409 179.596 202.173 179.389 203.217 179.389C203.81 179.389 204.309 179.448 204.761 179.596C205.213 179.743 205.587 179.905 205.93 180.067C206.273 180.229 206.57 180.392 206.819 180.539C207.084 180.672 207.318 180.745 207.536 180.745C207.786 180.745 207.957 180.686 208.113 180.598C208.269 180.495 208.378 180.333 208.534 180.126L209.704 178.152C208.924 177.474 207.989 176.928 206.866 176.56C205.743 176.192 204.543 176 203.233 176C202.063 176 201.034 176.192 200.13 176.516C199.226 176.84 198.462 177.297 197.838 177.857C197.214 178.402 196.746 179.036 196.419 179.758C196.107 180.495 195.951 181.217 195.951 181.998C195.951 182.971 196.107 183.766 196.372 184.4C196.668 185.063 197.027 185.579 197.495 186.021C197.931 186.478 198.462 186.832 199.054 187.082C199.647 187.333 200.239 187.568 200.863 187.76C201.471 187.952 202.079 188.114 202.672 188.276C203.233 188.438 203.763 188.629 204.231 188.836C204.714 189.042 205.088 189.307 205.353 189.632C205.618 189.956 205.774 190.383 205.774 190.899C205.774 191.783 205.478 192.476 204.901 192.918C204.34 193.36 203.514 193.596 202.469 193.596C201.736 193.596 201.112 193.507 200.598 193.316C200.068 193.124 199.615 192.918 199.226 192.682C198.82 192.446 198.477 192.24 198.181 192.048C197.885 191.857 197.604 191.768 197.339 191.768C197.136 191.768 196.933 191.827 196.762 191.916C196.559 192.004 196.403 192.137 196.31 192.284L195 194.303C195.421 194.701 195.889 195.084 196.466 195.408C197.011 195.733 197.62 196.013 198.259 196.248C198.914 196.499 199.553 196.661 200.255 196.808C200.941 196.926 201.611 197 202.313 197C203.529 197 204.621 196.838 205.572 196.484C206.554 196.131 207.349 195.659 207.989 195.055C208.643 194.451 209.142 193.743 209.485 192.918C209.828 192.093 210 191.223 210 190.28C210 189.44 209.844 188.703 209.579 188.099C209.298 187.48 208.924 186.994 208.456 186.566Z" fill="white"/>
  <path d="M225.456 186.566C224.989 186.139 224.458 185.815 223.866 185.535C223.273 185.269 222.681 185.034 222.057 184.827C221.449 184.621 220.841 184.429 220.248 184.267C219.656 184.105 219.126 183.884 218.658 183.678C218.206 183.457 217.8 183.206 217.535 182.897C217.27 182.587 217.114 182.204 217.114 181.762C217.114 181.069 217.364 180.495 217.878 180.053C218.409 179.596 219.173 179.389 220.217 179.389C220.81 179.389 221.309 179.448 221.761 179.596C222.213 179.743 222.587 179.905 222.93 180.067C223.273 180.229 223.57 180.392 223.819 180.539C224.084 180.672 224.318 180.745 224.536 180.745C224.786 180.745 224.957 180.686 225.113 180.598C225.269 180.495 225.378 180.333 225.534 180.126L226.704 178.152C225.924 177.474 224.989 176.928 223.866 176.56C222.743 176.192 221.543 176 220.233 176C219.063 176 218.034 176.192 217.13 176.516C216.226 176.84 215.462 177.297 214.838 177.857C214.214 178.402 213.746 179.036 213.419 179.758C213.107 180.495 212.951 181.217 212.951 181.998C212.951 182.971 213.107 183.766 213.372 184.4C213.668 185.063 214.027 185.579 214.495 186.021C214.931 186.478 215.462 186.832 216.054 187.082C216.647 187.333 217.239 187.568 217.863 187.76C218.471 187.952 219.079 188.114 219.672 188.276C220.233 188.438 220.763 188.629 221.231 188.836C221.714 189.042 222.088 189.307 222.353 189.632C222.618 189.956 222.774 190.383 222.774 190.899C222.774 191.783 222.463 192.476 221.901 192.918C221.34 193.36 220.514 193.596 219.469 193.596C218.736 193.596 218.112 193.507 217.598 193.316C217.068 193.124 216.615 192.918 216.226 192.682C215.82 192.446 215.477 192.24 215.181 192.048C214.885 191.857 214.604 191.768 214.339 191.768C214.136 191.768 213.933 191.827 213.762 191.916C213.559 192.004 213.403 192.137 213.31 192.284L212 194.303C212.421 194.701 212.889 195.084 213.466 195.408C214.011 195.733 214.62 196.013 215.259 196.248C215.914 196.499 216.553 196.661 217.255 196.808C217.941 196.926 218.611 197 219.313 197C220.529 197 221.621 196.838 222.572 196.484C223.554 196.131 224.349 195.659 224.989 195.055C225.643 194.451 226.142 193.743 226.485 192.918C226.828 192.093 227 191.223 227 190.28C227 189.44 226.844 188.703 226.579 188.099C226.298 187.48 225.924 186.994 225.456 186.566Z" fill="white"/>
  <path d="M3.45814 167C5.94884 167 7.98372 165.284 8 163.169V154.175C8 152.636 7.3814 152 5.85116 152H4.67907V159.382C4.67907 159.84 4.69535 160.254 4.69535 160.654C4.72791 162.281 4.74419 163.45 4.14186 164.012C3.76744 164.352 3.11628 164.515 2.0907 164.515C1.86279 164.515 1.63488 164.485 1.3907 164.456L1 164.411V165.402C1 166.379 1.96047 167 3.45814 167Z" fill="white"/>
  <path d="M70.4156 161.939C71.5342 161.909 72.4383 161.588 73.1738 160.948C73.7867 161.375 75.0432 161.939 77.3264 161.939C80.2072 161.939 82 159.699 82 156.056V152.276C82 150.691 81.4177 150.036 79.9773 150.036H78.8741V157.031C78.8281 158.19 78.4756 158.967 76.8974 158.967C76.1465 158.967 75.3957 158.784 74.6755 158.388C74.7368 158.083 74.7674 157.763 74.7981 157.397V157.306L74.7827 157.29C74.7674 156.864 74.7674 154.12 74.7674 152.307C74.7674 150.721 74.1851 150.066 72.7448 150.066H71.6415V157.047C71.5649 158.357 71.0285 158.891 69.772 158.891H67.5042V152.307C67.5042 150.721 66.9219 150.066 65.4815 150.066H64.3783V158.891H61.145V158.904C59.9575 158.882 59.3967 158.348 59.3522 157.214V153.77C59.3522 152.185 58.7699 151.529 57.3296 151.529H56.2263V157.047C56.1497 158.357 55.6133 158.891 54.3568 158.891H53.3762V158.898C52.3035 158.83 51.7948 158.293 51.7519 157.214V153.77C51.7519 152.185 51.1696 151.529 49.7292 151.529H48.6259V157.047C48.5493 158.357 48.013 158.891 46.7565 158.891H46.3658C44.5408 158.776 44.2282 157.984 44.2282 155.812C44.2282 151.804 42.0369 149.213 38.6352 149.213C35.0495 149.213 32.8277 151.743 32.8277 155.812C32.8277 157.984 32.5151 158.776 30.6901 158.891H14.7003V158.876H13.9954C12.6776 158.876 12.1259 158.296 12.1259 156.94V146.24C12.1259 144.655 11.5437 144 10.1033 144H9V157.062C9 159.988 10.6243 161.817 13.3671 161.939V161.924H13.7655V161.939H29.4719V161.954H29.9316C30.0542 161.985 30.1308 161.985 30.2074 161.985C30.546 161.985 30.8648 161.968 31.1697 161.939H31.4332V161.909C32.8001 161.73 33.8191 161.227 34.5745 160.369C35.6318 161.421 37.0569 162 38.6199 162C40.1828 162 41.5466 161.451 42.5273 160.445C43.3563 161.36 44.4458 161.747 45.7758 161.886V161.939H46.5037C46.7488 161.95 47.0017 161.954 47.2622 161.954H47.584V161.927C48.6259 161.855 49.4917 161.528 50.1889 160.964C50.8938 161.543 51.8592 161.878 52.9931 161.939V161.954H54.602V161.939H55.0157C56.1343 161.893 57.0691 161.558 57.7892 160.964C58.4941 161.543 59.4595 161.878 60.5934 161.939V161.954H62.2024V161.939H70.4156ZM38.8037 159.013C36.9496 159.013 35.8463 157.656 35.8463 155.385C35.8463 153.389 36.8117 152.154 38.3747 152.154C40.2594 152.154 41.2095 153.373 41.2248 155.751C41.2248 157.321 40.5812 159.013 38.8037 159.013Z" fill="white"/>
  <path d="M85.0178 162H92.9685C94.0527 161.954 94.9261 161.602 95.6489 160.945C96.3717 161.572 97.3806 161.954 98.4497 162H98.8412H100.723H100.739C103.524 161.816 105 159.798 105 156.127V146.294C105 144.703 104.428 144.046 103.012 144.046H101.928V157.091C101.853 158.406 101.326 158.941 100.091 158.941H100.046H99.0821C97.9528 158.941 97.3203 158.345 97.245 157.244V146.248C97.245 144.658 96.6728 144 95.2574 144H94.1732V157.076C94.0979 158.314 93.4956 158.926 92.3361 158.926H88.9932V145.499C88.9932 144.612 88.165 144 87.4271 144H85.9815V158.926H83V160.119C83 161.312 83.7378 162 85.0178 162Z" fill="white"/>
  <path d="M116.541 161.715C116.757 161.549 116.896 161.354 116.988 161.144L118.389 157.523H125.595L126.997 161.159C127.089 161.384 127.243 161.594 127.443 161.745C127.659 161.91 127.936 162 128.275 162H131L123.686 144H120.314L113 162H115.71C116.033 162 116.311 161.895 116.541 161.715ZM121.7 148.958C121.792 148.718 121.885 148.447 121.992 148.132C122.085 148.432 122.192 148.703 122.285 148.943L124.564 154.848V154.863H119.421L121.7 148.958Z" fill="white"/>
  <path d="M134 144H131V162H134V144Z" fill="white"/>
  <path d="M154.748 144.075C154.512 144.15 154.324 144.331 154.167 144.631L148.432 154.698C148.291 154.938 148.165 155.194 148.055 155.449C148.055 155.464 148.039 155.464 148.039 155.479C148.024 155.479 148.024 155.464 148.024 155.464C147.898 155.224 147.772 154.968 147.646 154.728L141.833 144.646C141.676 144.331 141.488 144.15 141.252 144.075C141.079 144.03 140.844 144 140.545 144H138V162H141.268V149.8L146.484 158.92C146.767 159.446 147.222 159.731 147.835 159.731H148.244C148.841 159.731 149.296 159.446 149.579 158.92L154.716 149.845V162H158V144H155.455C155.156 144 154.921 144.015 154.748 144.075Z" fill="white"/>
  <path d="M221.398 149.015C217.827 149.015 215.614 151.566 215.614 155.669C215.614 156.914 215.888 157.989 216.438 158.865H213.408C211.59 158.75 211.279 157.951 211.279 155.761C211.279 151.72 209.096 149.108 205.708 149.108C202.136 149.108 199.923 151.658 199.923 155.761C199.923 157.951 199.612 158.75 197.794 158.865H182.004H178.386V155.223C178.386 151.566 176.082 149 172.785 149C169.213 149 167 151.551 167 155.654C167 160.848 171.915 161.939 176.051 161.939H180.935H184.232H196.58V161.954H197.038C197.176 161.985 197.252 161.985 197.313 161.985C197.65 161.985 197.968 161.968 198.271 161.939H198.534V161.908C199.895 161.728 200.91 161.221 201.663 160.356C202.716 161.416 204.136 162 205.692 162C207.249 162 208.608 161.447 209.585 160.433C210.41 161.355 211.496 161.745 212.82 161.885V161.954H214.299C214.299 161.954 214.299 161.954 214.301 161.954H214.621H227V155.239C227 151.582 224.695 149.015 221.398 149.015ZM175.502 158.466V158.865C171.823 158.835 169.946 158.22 169.946 155.254C169.946 153.195 170.953 151.874 172.525 151.874C173.395 151.874 174.036 152.104 174.479 152.565C175.517 153.61 175.517 155.853 175.502 158.466ZM205.86 158.988C204.013 158.988 202.915 157.621 202.915 155.331C202.915 153.318 203.876 152.073 205.433 152.073C207.326 152.073 208.272 153.303 208.272 155.7C208.272 157.283 207.631 158.988 205.86 158.988ZM224.1 158.466V158.865C220.422 158.835 218.544 158.22 218.544 155.254C218.544 153.195 219.552 151.874 221.124 151.874C221.994 151.874 222.635 152.104 223.077 152.565C224.115 153.61 224.115 155.853 224.1 158.466Z" fill="white"/>
  <path d="M50 149.5C50 150.35 50.6685 151.016 51.5326 151C52.2989 151 53 150.35 53 149.5C53 148.65 52.2989 148 51.5326 148C50.6685 148 50 148.65 50 149.5Z" fill="white"/>
  <path d="M48.5165 151C49.3407 151 50 150.333 50 149.5C50 148.667 49.3571 148 48.5165 148C47.6758 148 47 148.65 47 149.5C47 150.35 47.6758 151.016 48.5165 151Z" fill="white"/>
  <path d="M50.5326 148C51.2989 148 52 147.333 52 146.5C52 145.667 51.2989 145 50.5326 145C49.6685 145 49 145.65 49 146.5C49 147.35 49.6685 148 50.5326 148Z" fill="white"/>
  <path d="M58.5326 151C59.2989 151 60 150.333 60 149.5C60 148.667 59.2989 148 58.5326 148C57.6685 148 57 148.65 57 149.5C57 150.35 57.6685 151 58.5326 151Z" fill="white"/>
  <path d="M55.5165 151C56.3407 151 57 150.333 57 149.5C57 148.667 56.3571 148 55.5165 148C54.6758 148 54 148.65 54 149.5C54 150.35 54.6923 151 55.5165 151Z" fill="white"/>
  <path d="M174.533 149C175.299 149 176 148.35 176 147.5C176 146.65 175.299 146 174.533 146C173.668 146 173 146.65 173 147.5C173 148.35 173.668 149 174.533 149Z" fill="white"/>
  <path d="M171.516 149C172.341 149 173 148.35 173 147.5C173 146.65 172.357 146 171.516 146C170.676 146 170 146.65 170 147.5C170 148.35 170.692 149 171.516 149Z" fill="white"/>
  <path d="M223.533 149C224.299 149 225 148.35 225 147.5C225 146.65 224.299 146 223.533 146C222.668 146 222 146.65 222 147.5C222 148.35 222.668 149 223.533 149Z" fill="white"/>
  <path d="M219.516 149C220.341 149 221 148.35 221 147.5C221 146.65 220.357 146 219.516 146C218.676 146 218 146.65 218 147.5C218 148.35 218.692 149 219.516 149Z" fill="white"/>
</svg>