<svg xmlns="http://www.w3.org/2000/svg" width="43" height="60" viewBox="0 0 43 60" fill="none">
  <path d="M42.9723 29.8984C43.0749 18.6012 40.5844 12.2846 38.4017 9.17715C39.1488 8.20426 39.6029 7.60891 39.6322 7.57986C39.852 7.36205 40.2182 7.02807 40.9946 6.91191C41.2144 5.41626 41.771 3.65925 41.771 3.65925C41.771 3.65925 40.2768 4.73379 38.8704 5.32914C38.973 6.08422 38.7826 6.53437 38.5921 6.81026C38.5628 6.85382 38.2112 7.31849 37.6399 8.07357C36.7023 6.98451 35.5743 5.96805 33.9629 5.03872C33.582 4.82091 33.1572 4.6031 32.703 4.41433C32.7323 3.80445 32.5272 3.23814 32.117 2.83156C32.1024 2.48306 31.8094 2.04743 31.4432 1.91675C31.0769 1.8151 30.5202 1.98935 30.2419 2.25073C29.6413 2.33785 29.0553 2.65731 28.6158 3.12197C27.2827 2.84608 25.7738 2.62827 24.0452 2.52662C23.8401 1.69894 23.2981 1.08906 22.6242 0.755082C22.4484 0.392062 21.9357 0.0290416 21.5108 0C21.0713 0.0290416 20.5732 0.392062 20.3975 0.755082C19.7236 1.08906 19.1816 1.69894 18.9765 2.52662C17.2478 2.62827 15.7389 2.84608 14.4058 3.12197C13.981 2.64279 13.395 2.33785 12.7797 2.25073C12.5014 1.98935 11.9447 1.8151 11.5785 1.91675C11.2269 2.04743 10.9192 2.49758 10.9046 2.84608C10.4944 3.25266 10.2893 3.81897 10.3186 4.42885C9.86448 4.63214 9.4543 4.83543 9.05876 5.05324C7.44732 5.98257 6.42186 6.85382 5.45499 8.04453C4.92761 7.36205 4.61997 6.94095 4.59067 6.89739C4.40023 6.62149 4.20979 6.17135 4.31233 5.41626C2.90598 4.82091 1.41174 3.74637 1.41174 3.74637C1.41174 3.74637 1.96842 5.51791 2.18816 6.99903C2.96458 7.10068 3.34547 7.44918 3.55056 7.66699C3.57986 7.69603 3.97539 8.21878 4.63462 9.07551C2.45185 12.1539 -0.0825093 18.5286 0.0200371 29.8984C0.0200371 30.9439 -0.419447 40.789 2.81809 47.425C3.18432 48.0929 4.15119 49.879 5.92377 51.5344C7.38872 52.8993 9.13201 53.8722 11.0804 54.3804C11.139 54.395 11.2562 54.424 11.3148 54.4385C13.7466 55.092 15.8415 54.7144 16.6911 54.2352L16.574 54.5402C16.5447 54.6128 16.486 54.7435 16.4714 54.8016C16.0173 56.0213 16.3249 57.2846 17.9803 57.4734C18.4198 57.5169 18.9179 57.546 19.4892 57.8074C19.8994 57.9961 20.3389 58.3011 20.8369 58.8093C21.042 59.0271 21.4815 59.5789 21.6866 60C21.9064 59.5789 22.3312 59.0271 22.5363 58.8093C23.0344 58.3011 23.4885 57.9961 23.884 57.8074C24.4554 57.546 24.9534 57.5169 25.3929 57.4734C27.063 57.2846 27.3706 56.0213 26.9165 54.8016C26.8872 54.7289 26.8432 54.5983 26.7993 54.5257C26.77 54.453 26.6821 54.2352 26.6821 54.2352C27.8394 54.9032 31.3846 55.4114 34.7832 53.2769C37.1125 51.8103 38.8119 50.1549 40.1889 47.4831C43.4264 40.847 42.987 30.8132 42.9723 29.8984ZM27.9419 20.7938C27.9419 20.7938 27.8687 20.9245 27.7076 21.0116C27.5318 21.1133 27.3413 21.1568 27.1509 21.1423C26.8872 21.1423 26.7407 21.0552 26.6088 20.8664C26.228 20.3291 25.9789 19.8064 25.5687 18.848C25.2171 18.0203 25.2757 18.151 24.763 16.8877C24.514 16.2924 24.0745 15.334 23.8108 15C23.4153 14.4918 22.7121 13.969 22.463 13.8819C22.1554 13.7512 21.7159 13.6496 21.2618 13.6205C20.4414 13.577 19.6064 13.6931 19.2695 13.7803C18.9911 13.8529 18.5223 14.0126 18.2733 14.303C18.244 14.3466 18.1268 14.4918 17.9656 14.5644C17.6141 14.7241 17.5262 14.7241 17.0574 15.0581C16.3103 15.5954 16.4275 16.4521 16.8083 16.7861H16.823C16.823 16.5682 16.823 16.3795 16.8669 16.394C16.9109 16.394 17.2771 16.6554 17.8484 16.5682C18.2586 16.5102 18.5223 17.1346 18.5223 17.1346L18.5956 16.9458C18.5956 16.9458 18.7274 17.3379 18.8446 17.425C18.8593 17.3959 18.9032 17.3524 18.9032 17.3379C19.0351 17.4976 19.2255 17.5992 19.2548 17.8461C19.2548 18.0784 19.1523 18.2817 18.8593 18.5576C18.7421 18.6592 18.0828 19.1965 17.3943 19.908C17.0281 20.2711 16.8523 20.5034 16.486 20.8955C16.2956 21.0987 16.1198 21.2294 15.944 21.2294C15.9147 21.2294 15.8854 21.2294 15.8561 21.2294C15.6364 21.2294 15.4606 21.1133 15.402 21.0261C15.3287 20.939 11.7689 16.2633 10.0696 14.0416C13.1606 11.0503 18.2879 10.5566 19.5624 10.6438C19.8554 10.6583 20.207 10.9051 19.8261 11.3843C20.1045 11.515 21.1446 11.4134 21.5255 11.0503C21.921 11.4134 22.9465 11.5005 23.2248 11.3843C22.8439 10.9051 23.1809 10.6583 23.4885 10.6438C24.763 10.5566 29.6266 10.7744 33.0253 14.1142C31.3699 16.2924 29.1432 19.0513 27.9419 20.7648" fill="white"/>
  <path d="M42.8689 25.8718C41.922 26.6421 41.0188 27.4124 38.0763 29.0984L37.3042 29.5199V28.9676C37.3042 28.9676 37.5227 21.4388 33.8809 15C33.6478 15.3052 32.8903 16.279 32.1037 17.2674C32.5698 17.2092 33.036 17.34 33.4584 17.747C34.2159 18.4883 35.4396 20.2615 36.1534 22.0928C36.5321 23.241 36.838 24.8108 36.7652 26.1625C36.7652 26.1625 36.3282 33.764 35.4542 41.0458C34.6675 47.6589 34.2305 48.531 34.2305 48.531C33.7206 47.9206 33.5167 47.1502 33.4002 46.6997L33.3273 46.7578C33.3273 46.7578 32.8612 46.1038 32.5844 44.7957C32.2639 43.3131 32.2057 40.6533 32.2494 39.3743C32.2494 39.3743 32.2639 39.0109 31.958 38.3714C31.8123 38.0662 31.6958 37.761 31.623 37.4412C31.1422 35.4064 30.2099 34.8395 29.7001 34.2C29.0883 33.4442 28.6367 32.6448 28.3599 31.9908C28.3453 31.9908 28.3308 32.0053 28.3162 32.0344C27.9812 32.3542 27.7189 32.6884 27.7044 32.8774C27.8209 34.0692 27.9229 34.9122 27.7481 35.5227C27.6752 35.4791 27.5587 35.3628 27.5004 35.3192C27.5878 36.104 27.2091 37.0197 27.4422 37.7319L26.976 37.6738C26.976 37.6738 27.0051 37.761 27.0197 37.79C27.078 37.8772 27.1508 37.9354 27.2528 37.9935C27.2674 37.9935 27.3693 38.0517 27.3985 38.0662C27.4422 38.0807 27.5587 38.1243 27.8792 38.2406C28.1414 37.6447 27.9374 37.0779 27.6752 36.7581C27.4567 36.4965 27.7189 36.104 28.1851 36.293C28.7823 36.5546 29.4233 36.9325 30.108 37.572C31.084 38.4877 31.3608 39.3888 31.1568 39.5632C30.9966 39.6941 30.88 39.665 30.6907 39.6068C30.6907 39.6359 30.6907 39.6795 30.6761 39.7086C30.6178 39.883 30.4722 40.0138 30.2536 40.072V40.101C30.1371 40.2464 29.9623 40.3045 29.671 40.29C29.4233 40.29 29.1465 40.1446 29.1028 40.1156C29.0446 40.0865 28.9863 40.0574 28.9135 39.9702C28.8552 40.0138 28.7969 40.0574 28.7387 40.1156C29.5107 41.1475 30.982 42.8626 32.0454 44.7375C32.8029 46.0747 33.1525 47.1938 33.1525 47.1938C33.1525 47.1938 32.7446 47.3246 32.2202 47.1938C32.4096 47.7316 32.5116 48.1967 32.4679 48.5601C32.06 48.5746 31.521 48.531 30.9674 48.2113C30.982 48.2985 30.9966 48.3857 31.0111 48.4729C31.4773 48.8072 32.0163 49.1996 32.2494 49.3595C29.9332 50.435 26.5827 49.9409 26.5244 49.9409C26.3642 49.9263 26.2185 49.8972 26.0874 49.8827C26.0728 49.9408 26.0437 50.0135 26 50.0862C26.2185 50.624 26.7575 51.8594 26.874 52.121C28.3453 52.7896 29.7147 53.2256 31.8123 52.8768C31.8123 52.8768 32.1765 52.8477 33.0651 52.5425C33.9829 52.2373 35.7164 51.2199 37.042 49.9845C38.6881 48.4438 39.6932 46.8159 40.0137 46.1764C42.5775 41.1911 43 33.7931 43 30.8135C43 29.8397 43 29.3019 43 29.2583C42.9854 28.2554 42.9272 26.613 42.8835 25.8572" fill="#EE444C"/>
  <path d="M17.2136 52.0339C17.3137 51.7584 17.7712 50.6564 18 50.1053C17.9714 50.0038 17.9428 49.9168 17.9142 49.8153C17.5997 49.8733 17.2851 49.9168 16.9706 49.9458C16.7561 49.9603 13.6392 50.4534 11.3659 49.3803C11.6375 49.1773 12.1522 48.7568 12.8671 48.2928C12.8671 48.2493 12.8814 48.1913 12.8957 48.1478C12.3524 48.4523 11.8234 48.5103 11.423 48.4958C11.3944 48.1333 11.4802 47.6693 11.6661 47.1328C11.1514 47.2488 10.7511 47.1328 10.7511 47.1328C10.7511 47.1328 11.0942 46.0162 11.8377 44.6822C12.524 43.4352 13.4962 42.1737 14.3112 41.1296C14.397 40.7236 14.7115 40.3756 14.7544 40.3321C14.7687 40.3031 14.8688 40.2016 14.8831 40.1871C14.7973 40.1001 14.6972 40.0276 14.6114 39.9696C14.5256 40.0711 14.4542 40.1146 14.3827 40.1436C14.1253 40.2596 13.968 40.3031 13.8251 40.3176C13.5391 40.3176 13.3675 40.2741 13.2675 40.1291V40.1001C13.0387 40.0421 12.8957 39.9116 12.8385 39.7376C12.8385 39.7086 12.8242 39.6651 12.8242 39.6361C12.6669 39.6941 12.5526 39.6941 12.4096 39.5781C12.2094 39.4041 12.4811 38.5196 13.439 37.5915C14.111 36.9535 14.7401 36.5765 15.3263 36.3155C15.7696 36.1125 16.0412 36.504 15.8267 36.7795C15.5694 37.0985 15.3549 37.664 15.6266 38.2586C15.8982 38.1716 16.0126 38.1281 16.0412 38.0991C16.1556 38.0556 16.27 38.0266 16.413 37.8381C16.413 37.8235 16.4415 37.78 16.4558 37.7365L16.0555 37.78C16.2557 37.2725 15.9411 36.0255 16.1556 35.228C16.0984 35.2715 15.9554 35.3585 15.8839 35.3875C15.741 34.648 15.7553 33.4879 15.8124 32.9224C15.8124 32.7774 15.598 32.5164 15.312 32.2264C15.0976 32.8064 14.6972 33.5024 14.0395 34.329C13.5391 34.967 12.6241 35.5325 12.1522 37.5625C12.0807 37.8815 11.9664 38.1861 11.8234 38.4906C11.5231 39.1286 11.5374 39.5056 11.5374 39.5056C11.566 40.7816 11.5088 43.4207 11.2086 44.8997C10.9369 46.2047 10.4794 46.8573 10.4794 46.8573L10.4079 46.7993C10.2935 47.2343 10.0791 48.0173 9.59294 48.6263C9.59294 48.6263 9.164 47.7563 8.39193 41.1586C7.53406 33.894 7.10513 26.3103 7.10513 26.3103C7.01934 24.9762 7.3196 23.3957 7.70564 22.2502C8.40623 20.4231 9.60723 18.6541 10.3507 17.9146C10.8082 17.4651 11.323 17.3491 11.8234 17.4506C11.6804 17.2621 11.5231 17.0445 11.5374 17.0445C11.0513 16.3775 10.4794 15.6525 9.99327 15C6.49033 21.2497 6.57612 28.7173 6.57612 28.7753V29.5729L5.96131 29.2393C3.20185 27.6588 2.01514 26.7018 1.11438 25.9478C1.07149 26.7018 1 29.2683 1 29.2683C1 29.3118 1 29.8484 1 30.8344C1 33.8215 1.52902 41.1296 3.93104 46.1612C4.25989 46.7848 5.16064 48.4668 6.77628 50.0038C8.00589 51.1784 9.43566 52.0049 11.0227 52.5269C11.1085 52.5559 11.2944 52.6139 11.3944 52.6429C13.2246 53.2374 15.2262 53.1069 17.185 52.1209V52.0629L17.2136 52.0339Z" fill="#EE444C"/>
  <path d="M19.6286 54.7258C19.6714 53.7419 19.8143 52.2903 20 51C19.7143 51.3065 19.4857 51.4677 19.4571 51.4677C19.4143 51.4677 19.3714 51.4194 19.3143 51.3387C18.7714 52.8548 18 54.9677 18 55C18.3571 54.6613 18.9286 54.4032 19.6429 54.7419" fill="#EE444C"/>
  <path d="M25.0217 54.9544C25.0657 54.0561 24.6845 51.6561 24.4499 50.2947C24.4206 50.2526 24.4059 50.2246 24.3766 50.1825C24.3326 50.1263 24.2886 50.0561 24.2447 50C24.1714 50.2667 24.0541 50.5614 23.9221 50.8561C23.7608 51.193 23.5116 51.5439 23.453 51.5439C23.409 51.5439 22.7346 51.0807 22.3094 50.1965C21.8842 51.0807 21.2098 51.5298 21.1805 51.5298C21.1365 51.5298 20.8726 51.179 20.7114 50.8421C20.6381 50.6877 20.5794 50.5333 20.5208 50.3789C20.3009 51.8105 19.9637 54.1263 20.0076 54.9684C18.6148 54.0842 17.7645 54.9684 18.0577 55.586C18.087 55.6421 18.1164 55.6842 18.1457 55.7263C18.3216 55.9368 18.5269 56.0491 18.8348 56.0772C19.2892 56.1053 19.8757 56.1474 20.5501 56.4561C21.1658 56.7368 21.8256 57.186 22.5 58C23.1744 57.2 23.8342 56.7368 24.4499 56.4561C25.1243 56.1474 25.7108 56.1053 26.1652 56.0772C26.4731 56.0491 26.6784 55.9228 26.8543 55.7263C26.8983 55.6842 26.913 55.6281 26.9423 55.586C27.2355 54.9684 26.3852 54.0842 24.9924 54.9684" fill="#EE444C"/>
  <path d="M25.4476 51.2863C25.4476 51.2863 25.2378 51.1992 25 51C25.1818 51.8714 25.3497 52.9793 25.3916 53.8008C26.0909 53.5394 26.6503 53.7386 27 54C27 53.9876 26.1888 52.1452 25.6993 51.0249C25.5734 51.1743 25.4615 51.2863 25.4336 51.2863" fill="#EE444C"/>
  <path d="M31.4851 27.4351C31.4851 27.4351 31.1362 26.8326 31.9502 25C30.7708 26.8577 30.9203 27.3724 31.1861 28C31.6844 27.7238 31.9003 27.5481 32 27.1213C31.8173 27.3347 31.4851 27.4351 31.4851 27.4351Z" fill="#010101"/>
  <path d="M30.4227 26.3268C30.4227 26.3268 30.1422 25.8439 30.868 24C29.5484 25.7561 30.1257 27 30.1257 27C30.1257 27 30.8185 26.6927 31 26.0341C30.8021 26.2537 30.4391 26.3415 30.4391 26.3415" fill="#010101"/>
  <path d="M34.9779 23C34.7634 24.7534 34.5984 25.1096 34.3675 25.411C34.186 25.3014 34.021 24.9452 34.021 24.9452C33.955 25.2603 34.0375 25.7534 34.3675 26C34.8129 25.5479 35.1099 24.5753 34.9614 23" fill="#010101"/>
  <path d="M33.9962 22C33.7572 24.3443 33.4823 24.8852 33.2911 25.2787C33.1597 25.1311 33.0282 24.5574 33.0282 24.5574C32.9565 24.9836 33.0163 25.6393 33.2672 26C33.6377 25.4098 34.044 24.1475 33.9962 22.0164" fill="#010101"/>
  <path d="M33.234 23.3975C33.0932 22.9079 33.1257 22.431 33.1257 22.431C32.9198 23.1339 32.9848 23.7113 33.1907 24C33.5483 23.5732 34.0684 22.2427 33.9926 21C33.7758 22.4812 33.4183 23.1088 33.234 23.3975Z" fill="#010101"/>
  <path d="M32.4428 22.2973C32.2482 21.7568 32.3455 20.9459 32.3455 20.9459C31.8589 21.6757 31.9367 22.6622 32.2676 23C32.9684 22.5811 33.9416 21.3378 34 20C33.3966 21.5676 32.7932 22.0135 32.4234 22.2973" fill="#010101"/>
  <path d="M35.0021 26.411C34.9644 26.7791 35.4535 27 35.4535 27C35.4535 27 36.2436 26.2638 35.9238 25C35.7545 26.1779 35.3595 26.5828 35.3595 26.5828C35.3595 26.5828 35.0397 26.4847 35.0021 26.3988" fill="#010101"/>
  <path d="M35 26.4167C35 26.7778 35.5095 27 35.5095 27C35.5095 27 36.2847 26.25 35.886 25C35.7974 26.1806 35.3544 26.625 35.3544 26.625C35.3544 26.625 35.0886 26.5139 35.0221 26.4306" fill="#010101"/>
  <path d="M9.6486 25.411C9.41734 25.1096 9.25216 24.7534 9.03743 23C8.88876 24.5753 9.2026 25.5479 9.63207 26C9.96244 25.7397 10.045 25.2603 9.97896 24.9452C9.97896 24.9452 9.83029 25.3014 9.63207 25.411" fill="#010101"/>
  <path d="M10.7094 24.4691C10.5186 24.1728 10.2443 23.7654 10.0057 22C9.94609 23.6049 10.3635 24.5556 10.7333 25C10.9838 24.7284 11.0434 24.2346 10.9718 23.9136C10.9718 23.9136 10.8406 24.3457 10.7094 24.4568" fill="#010101"/>
  <path d="M10.7595 23.3975C10.5764 23.1088 10.2102 22.4812 10.0056 21C9.94101 22.2427 10.4472 23.5732 10.8026 24C11.018 23.7113 11.0826 23.1339 10.8672 22.431C10.8672 22.431 10.8995 22.908 10.7595 23.3975Z" fill="#010101"/>
  <path d="M12.5709 22.2973C12.2024 22 11.6012 21.5676 11 20C11.0582 21.3378 12.0279 22.5811 12.726 23C13.0751 22.6622 13.1333 21.6757 12.6484 20.9459C12.6484 20.9459 12.7454 21.7568 12.5709 22.2973Z" fill="#010101"/>
  <path d="M9.63818 26.5828C9.63818 26.5828 9.24056 26.1779 9.07015 25C8.76721 26.2638 9.5435 27 9.5435 27C9.5435 27 10.0358 26.7791 9.99792 26.411C9.94112 26.4969 9.63818 26.5951 9.63818 26.5951" fill="#010101"/>
  <path d="M8.64559 26.625C8.64559 26.625 8.20259 26.1806 8.11399 25C7.71528 26.25 8.49054 27 8.49054 27C8.49054 27 9 26.7778 9 26.4167C8.93355 26.5 8.66775 26.6111 8.66775 26.6111" fill="#010101"/>
  <path d="M12.5149 27.4351C12.5149 27.4351 12.1827 27.3347 12 27.1213C12.1163 27.5481 12.3156 27.7238 12.8139 28C13.0797 27.3598 13.2292 26.8577 12.0498 25C12.8638 26.8326 12.5149 27.4351 12.5149 27.4351Z" fill="#010101"/>
  <path d="M13.5608 26.3382C13.5608 26.3382 13.1979 26.25 13 26.0294C13.1815 26.6912 13.8743 27 13.8743 27C13.8743 27 14.4516 25.7647 13.132 24C13.8578 25.8676 13.5773 26.3382 13.5773 26.3382" fill="#010101"/>
  <path d="M18.9774 34.9854C19.134 34.0195 18.4292 33.1854 18.3313 32.7902C18.1943 32.9073 18.1943 33.2293 18.1943 33.2293C17.7244 32.8634 17.6265 32.2195 17.5286 32C17.4307 32.6585 17.1175 32.9805 17 33.3024C17.1958 33.2878 17.372 33.2439 17.5678 33.1561C17.8027 33.961 18.6837 34.1366 18.997 35" fill="#010101"/>
  <path d="M25.8176 33.2439C25.8176 33.2439 25.8176 32.922 25.6626 32.8049C25.5463 33.2 24.8679 34.0341 25.0229 35C25.333 34.1366 26.2247 33.961 26.4379 33.1561C26.6317 33.2585 26.8062 33.2878 27 33.3024C26.8837 32.9805 26.5736 32.6585 26.4766 32C26.3797 32.2195 26.2634 32.8634 25.8176 33.2293" fill="#010101"/>
  <path d="M21 33C20.8574 32.6589 20.6129 31.4961 20.0425 31C19.8184 31.8372 20.5314 32.6434 21 33Z" fill="#010101"/>
  <path d="M23.0107 33C23.3402 32.6076 24.0247 32.2405 23.9993 31C23.2642 31.3671 22.9346 32.5316 23.0107 33Z" fill="#010101"/>
  <path d="M22.1878 35C22.4086 34.2909 22.3938 33.3818 22.1437 33C21.9524 33.7636 21.9376 34.4545 22.1878 35Z" fill="#010101"/>
  <path d="M21.2444 33C21.4651 32.2742 21.4063 31.3871 21.1267 31C20.9353 31.7419 20.9501 32.4194 21.2444 33Z" fill="#010101"/>
  <path d="M26.9248 27C26.3441 27.5034 26.1721 28.6327 26 29C26.2151 28.8776 27.2904 27.2721 26.9248 27Z" fill="#010101"/>
  <path d="M26.0172 25C26.0172 25 26.6794 23.6992 26.3115 23C25.87 23.1138 26.0319 25 26.0172 25Z" fill="#010101"/>
  <path d="M24.7416 26.9998C24.7416 26.9998 26.0537 26.111 25.9983 25C25.6287 25.745 24.7416 26.0587 24.7416 26.0587C24.7416 26.0587 24.2426 25.8365 24.0208 25.366C23.8544 26.49 24.7416 27.0128 24.7416 26.9998Z" fill="#010101"/>
  <path d="M26 26C26.2796 25.703 26.6622 25.2772 26.3532 25C26.206 25.2772 26.1324 25.5941 26 26Z" fill="#010101"/>
  <path d="M23.011 31C23.3234 30.6056 24.1565 29.8592 23.9742 29C23.2714 29.3239 22.9329 30.493 23.011 31Z" fill="#010101"/>
  <path d="M25 29C25.8027 28.3953 26.2231 27.7093 25.8791 27C25.172 27.6744 25.1529 28.3605 25 29Z" fill="#010101"/>
  <path d="M23.9681 27C23.7596 27.5093 23.3994 27.8447 22.8308 28.2298C22.5844 28.0807 22.338 27.9068 22.0157 27.472C21.883 28.3168 22.6223 28.8137 23.0393 29C23.3047 28.8509 24.1766 28.0559 23.9681 27Z" fill="#010101"/>
  <path d="M21.1685 29.2486C21.0015 29.2254 20.2411 28.7746 20 28.4971C20.1113 28.948 21.0943 29.8266 21.5765 30C21.7249 29.8382 22.2999 29.1329 21.7991 28C21.5765 28.6821 21.3539 29.0289 21.1685 29.2486Z" fill="#010101"/>
  <path d="M17.2755 23C17.1321 22.4333 18.3369 21.9167 17.9066 21C16.7018 21.7833 16.9313 22.5333 17.2755 23Z" fill="#010101"/>
  <path d="M18.2606 28.9664C18.5515 29.5034 18.7697 29.745 19 30C18.6485 29.396 18.3576 28.2953 18.006 28C17.9697 28.1611 18.103 28.6711 18.2606 28.9799" fill="#010101"/>
  <path d="M18.0434 26C17.7547 27.0147 19 27.9853 19 28C19 28 19 26.7941 18.0434 26Z" fill="#010101"/>
  <path d="M18.6892 24C18.6892 24.3791 18.6892 24.732 18.5927 25.1503C18.3308 25.085 18.193 24.915 18 24.7582C18.1654 25.268 18.827 25.8562 18.9373 26C19.0337 25.3072 19.0613 24.4706 18.7029 24" fill="#010101"/>
  <path d="M18.0515 21C18.3053 20.0676 18.8263 19.5405 19 19C18.0782 19.6622 17.8912 20.6757 18.0515 21Z" fill="#010101"/>
  <path d="M18 26C17.7458 25.2215 17.8588 24.6846 17.0396 24C16.7854 24.8322 17.8305 25.8792 18 26Z" fill="#010101"/>
  <path d="M20.3784 23C19.2558 23.8855 20.9886 24.9847 20.9886 25C20.9886 25 21.135 23.3206 20.3784 23Z" fill="#010101"/>
  <path d="M21 20C19.3752 20.8189 20.1523 21.5748 20.4348 22C20.7645 21.2126 20.9058 20.9921 21 20Z" fill="#010101"/>
  <path d="M20.635 27C20.7686 26.6688 21.1363 26.0446 20.9469 25C20.88 25.7898 20.4456 26.1338 20.4456 26.1338C20.4456 26.1338 20.2005 25.9809 20 25.4968C20.0668 26.4522 20.3788 26.7325 20.635 26.9873" fill="#010101"/>
  <path d="M26.0082 20C25.9024 20.5821 26.8544 21.8955 26.8967 22C26.8967 21.9104 27.4467 20.806 26.0082 20Z" fill="#010101"/>
  <path d="M25.0099 18C24.8843 18.3929 25.9938 18.9881 25.9938 19C25.9938 19 26.1403 18.2381 25.0099 18Z" fill="#010101"/>
  <path d="M25.9831 22C25.8175 22.869 25.4864 23.2023 25.4864 23.2023C25.4864 23.2023 25.2278 22.9642 25.0002 22.619C24.9898 23.3213 25.5071 24.0118 25.4968 23.9998C25.4968 23.9998 26.1382 23.4047 25.9727 22" fill="#010101"/>
  <path d="M24.293 20C23.6307 20.4196 24.2457 21.2587 24.6242 22C24.979 21.6364 25.3811 20.3916 24.293 20Z" fill="#010101"/>
  <path d="M24 18C24 17.679 23.8827 17.1111 23.0031 17C22.9445 17.3827 23.7215 17.6173 24 18Z" fill="#010101"/>
  <path d="M23 17.0792C23.1707 17.3535 23.6951 17.5494 24 18C23.9634 17.2751 23.4878 16.8049 23 17.0792Z" fill="#010101"/>
  <path d="M22.6613 19C21.5019 19.542 22.2196 20.0118 22.2196 19.9998C22.2196 19.9998 23.6274 19.3373 22.6613 19Z" fill="#010101"/>
  <path d="M22.9913 26C22.9913 26 23.913 25.351 24 24C23.4783 24.6623 22.9044 25.0464 22.9044 25.0331C22.9044 25.0331 22.4174 24.7815 22 24.3973C22 25.2583 22.9913 26 22.9739 26" fill="#010101"/>
  <path d="M22.5949 22C21.2563 22.979 22.5949 24.0138 22.5949 23.9999C22.5949 23.9999 23.5063 22.6293 22.5949 22Z" fill="#010101"/>
  <path d="M22 14.0028C22.1688 14.2521 22.7013 14.5781 23 15C22.961 14.3288 22.5584 13.9644 22 14.0028Z" fill="#010101"/>
  <path d="M23 14.9928C22.6712 14.3148 22.2329 14.0484 22 14C22.2603 14.5811 22.5342 15.0654 23 14.9928Z" fill="#010101"/>
  <path d="M24 15.8146C23.974 15.6665 23.7273 15.1666 23.1948 15C23.3377 15.2036 23.4286 15.5554 23.4805 15.685C23.3766 15.759 23.0909 15.8146 23 15.8331C23.1948 16.0367 23.5584 16.0738 24 15.8331" fill="#010101"/>
  <path d="M18.0277 15.0198C18.0277 15.0198 17.9247 15.2214 18.116 15.2214C18.2779 15.2214 18.3073 15.0486 18.3073 15.0486C18.3073 15.0486 18.1013 14.9622 18.013 15.0198" fill="#010101"/>
  <path d="M23.9857 4.5098C23.8 4.31373 23.6714 4.19608 23.4857 4C23.3143 4.15686 23.1143 4.37255 23 4.5098C23.1714 4.68627 23.3 4.82353 23.4857 5C23.6857 4.80392 23.7714 4.70588 24 4.4902" fill="#010101"/>
  <path d="M21.1073 14.275C21.4 14.2881 21.678 14.275 22 14.3273C21.1073 13.9085 19.8341 13.9608 19.4683 14.1048C19.2195 14.2095 19 14.4844 19 14.6677C19.1463 14.5761 19.2488 14.5892 19.322 14.5106C19.4244 14.3928 19.439 14.3273 19.5415 14.3143C19.4976 14.3797 19.4829 14.4844 19.4829 14.563C19.4829 14.8771 19.8341 15.0604 20.1561 14.9819C20.4634 14.9164 20.5512 14.7462 20.5805 14.563C20.6098 14.3797 20.5366 14.2619 20.5366 14.2619C20.5366 14.2619 20.7268 14.2619 21.0927 14.275M20.3902 14.3928C20.3902 14.3928 20.3024 14.4583 20.2585 14.4452C20.2 14.419 19.9951 14.3404 20.0244 14.2881C20.0537 14.2357 20.3317 14.2357 20.3756 14.2488C20.4195 14.2619 20.4195 14.3273 20.3756 14.3797" fill="#010101"/>
  <path d="M24 6.1921C24 5.97749 23.8722 5.80887 23.7728 5.71689C23.6593 5.60959 23.4179 5.48695 23.2049 5.45629C23.0346 5.44096 22.779 5.45629 22.566 5.51761C21.9839 5.6709 21.487 5.88551 21.1463 6.05414C21.1463 5.83953 21.1179 5.28767 21.0895 4.98108C21.2457 4.84312 21.3876 4.76647 21.5154 4.58252C21.1605 4.44455 21.0043 4.30659 20.8481 4C20.7061 4.09198 20.55 4.21461 20.5642 4.45988C20.5642 4.55186 20.7061 6.05414 20.7487 6.4527C20.5642 6.4527 16.674 6.63665 14.5586 7.24983C14.3172 6.59067 13.6073 6.1921 13.3518 6.11545C12.6561 6.75929 12.5425 7.41845 12.5283 7.67905C13.011 7.63306 13.3234 7.67905 13.5079 7.86301C13.1814 8.30756 11.8468 8.70612 11.4777 8.21558C11.1511 7.77103 11.6764 6.92791 11.79 6.77462C10.9098 7.44911 10.5122 9.07403 11.9604 8.99738C12.6419 8.93606 13.1388 8.59882 13.2808 8.50684C13.7067 8.18492 13.8487 8.07762 14.0333 7.70971C14.0333 7.70971 13.9055 7.28049 13.1246 7.2345C13.1246 7.14252 13.3802 6.37605 13.9907 7.08121C14.2036 7.31115 14.445 7.95498 14.445 7.95498C16.745 7.26516 21.4444 7.00456 23.8438 7.14252C23.929 6.88192 24 6.56001 24 6.1921ZM23.3753 6.43737C23.063 6.43737 22.6086 6.43737 22.4241 6.42204C21.9839 6.42204 21.6432 6.42204 21.2315 6.42204C21.9413 6.10013 23.0488 5.62491 23.3469 6.16144C23.4037 6.26875 23.4037 6.3454 23.3753 6.43737Z" fill="#010101"/>
  <path d="M13.9273 8.38095C13.7455 8.33333 13.5818 8.28571 13.3818 8.2381C13.2364 8.4127 13.0909 8.65079 13 8.79365C13.2727 8.87302 13.4727 8.92063 13.7636 9C13.8727 8.84127 13.9455 8.74603 14.0364 8.61905C14.2182 8.66667 14.3636 8.71429 14.5818 8.7619C14.7455 8.53968 14.8182 8.42857 15 8.20635C14.7091 8.12698 14.5091 8.06349 14.2182 8C14.1273 8.11111 14.0364 8.25397 13.9455 8.38095" fill="#010101"/>
  <path d="M32 7C32.4304 6.93211 32.8101 7.11314 33 6.77371C32.7342 6.63794 32.4684 6.50216 32.3798 6.27587C32.4937 6.11747 32.6582 6.34376 32.7342 6.45691C32.7975 6.36639 32.8228 6.32113 32.8861 6.20799C32.6076 5.80067 32.1772 6.04959 32.0886 6.45691C32.1646 6.52479 32.2911 6.61531 32.3291 6.70582C32.2405 6.75108 32.0633 6.90948 32 7Z" fill="#010101"/>
  <path d="M31.6891 7.74379C31.4538 8.16218 31.2689 8.59407 31 8.98547C31.1513 9.03945 31.3698 8.93148 31.521 8.8505C32.2269 8.51309 32.7143 7.56834 33 7.00148C33 6.98799 32.5966 7.06896 32.3781 7.14994C31.9748 7.29841 31.8908 7.37938 31.7059 7.74379" fill="#010101"/>
  <path d="M27 8.43137C27.1449 8.62745 27.2609 8.78431 27.4203 9C27.6377 8.84314 27.7536 8.7451 28 8.58824C27.8406 8.37255 27.7246 8.21569 27.5507 8C27.3623 8.11765 27.1449 8.31373 27 8.43137Z" fill="#010101"/>
  <path d="M30.6562 6.89458C30.4779 7.03151 30.2402 7.25404 30.0916 7.44233C30.2105 7.68197 30.4036 7.85314 30.3293 8.19549C29.3042 7.78467 27.9373 7.37386 26.8824 7.2198C26.9269 6.75764 26.8378 6.14142 26.4515 6.0216C25.9761 5.88466 25.6343 6.43241 25.4412 6.7234C25.0103 7.39098 25.2183 7.68197 26.1246 7.83603C25.7086 8.12702 25.144 8.36666 24.5052 8.38378C24.3269 8.38378 24.2526 8.38378 24 8.38378C24.4457 8.6063 24.8766 8.79459 25.5155 8.8973C25.9612 8.77748 26.3772 8.29819 26.6595 7.93873C27.6995 8.05855 29.6013 8.62342 30.4631 9C30.6265 8.76036 30.8791 8.52072 30.9682 8.12702C31.0722 7.75044 30.9088 7.06575 30.6562 6.89458ZM26.3029 7.15133C26.3029 7.15133 26.1989 7.15133 26.1692 7.15133C25.9315 7.1171 25.7681 7.04863 25.6789 6.91169C25.7681 6.68917 25.9315 6.58647 25.9464 6.58647C26.1692 6.50088 26.4069 6.87746 26.2881 7.16845" fill="#010101"/>
  <path d="M15 8.64706C15.2059 8.76471 15.3676 8.86275 15.5882 9C15.75 8.7451 15.8088 8.62745 16 8.35294C15.7794 8.21569 15.6323 8.13725 15.3971 8C15.2647 8.19608 15.1029 8.47059 15.0147 8.64706" fill="#010101"/>
  <path d="M42.9723 29.8984C43.0749 18.6012 40.5844 12.2846 38.4017 9.17715C39.1488 8.20426 39.6029 7.60891 39.6322 7.57986C39.852 7.36205 40.2182 7.02807 40.9946 6.91191C41.2144 5.41626 41.771 3.65925 41.771 3.65925C41.771 3.65925 40.2768 4.73379 38.8704 5.32914C38.973 6.08422 38.7826 6.53437 38.5921 6.81026C38.5628 6.85382 38.2112 7.31849 37.6399 8.07357C36.7023 6.98451 35.5743 5.96805 33.9629 5.03872C33.582 4.82091 33.1572 4.6031 32.703 4.41433C32.7323 3.80445 32.5272 3.23814 32.117 2.83156C32.1024 2.48306 31.8094 2.04743 31.4432 1.91675C31.0769 1.8151 30.5202 1.98935 30.2419 2.25073C29.6413 2.33785 29.0553 2.65731 28.6158 3.12197C27.2827 2.84608 25.7738 2.62827 24.0452 2.52662C23.8401 1.69894 23.2981 1.08906 22.6242 0.755082C22.4484 0.392062 21.9357 0.0290416 21.5108 0C21.0713 0.0290416 20.5732 0.392062 20.3975 0.755082C19.7236 1.08906 19.1816 1.69894 18.9765 2.52662C17.2478 2.62827 15.7389 2.84608 14.4058 3.12197C13.981 2.64279 13.395 2.33785 12.7797 2.25073C12.5014 1.98935 11.9447 1.8151 11.5785 1.91675C11.2269 2.04743 10.9192 2.49758 10.9046 2.84608C10.4944 3.25266 10.2893 3.81897 10.3186 4.42885C9.86448 4.63214 9.4543 4.83543 9.05876 5.05324C7.44732 5.98257 6.42186 6.85382 5.45499 8.04453C4.92761 7.36205 4.61997 6.94095 4.59067 6.89739C4.40023 6.62149 4.20979 6.17135 4.31233 5.41626C2.90598 4.82091 1.41174 3.74637 1.41174 3.74637C1.41174 3.74637 1.96842 5.51791 2.18816 6.99903C2.96458 7.10068 3.34547 7.44918 3.55056 7.66699C3.57986 7.69603 3.97539 8.21878 4.63462 9.07551C2.45185 12.1539 -0.0825093 18.5286 0.0200371 29.8984C0.0200371 30.9439 -0.419447 40.789 2.81809 47.425C3.18432 48.0929 4.15119 49.879 5.92377 51.5344C7.38872 52.9138 9.13201 53.8722 11.0804 54.3804C11.139 54.395 11.2562 54.424 11.3148 54.4385C13.7466 55.092 15.8415 54.7144 16.6911 54.2352L16.574 54.5402C16.5447 54.6128 16.486 54.7435 16.4714 54.8016C16.0173 56.0213 16.3249 57.2846 17.9803 57.4734C18.4198 57.5169 18.9179 57.546 19.4892 57.8074C19.8994 57.9961 20.3389 58.3011 20.8369 58.8093C21.042 59.0271 21.4815 59.5644 21.6866 60C21.9064 59.5789 22.3312 59.0271 22.5363 58.8093C23.0344 58.3011 23.4885 57.9961 23.884 57.8074C24.4554 57.546 24.9534 57.5169 25.3929 57.4734C27.063 57.2846 27.3706 56.0213 26.9165 54.8016C26.8872 54.7289 26.8432 54.5983 26.7993 54.5257C26.77 54.453 26.6821 54.2352 26.6821 54.2352C27.8394 54.9032 31.3846 55.4114 34.7832 53.2769C37.1125 51.8103 38.8119 50.1549 40.1889 47.4831C43.4264 40.847 42.987 30.8132 42.9723 29.8984ZM42.2398 25.9777C41.8882 26.2682 40.1157 27.7638 37.3176 29.3466C37.259 27.6912 37.259 21.8103 33.6552 15.4356C34.0654 14.8984 34.2852 14.6079 34.6807 14.0997C34.9737 14.4046 35.2667 14.5789 35.8234 14.7386C35.7941 13.4753 36.0724 12.7783 36.424 12.0523C36.9367 12.0523 37.801 12.0813 39.1781 11.7909C40.9946 15.6389 41.9175 20.0823 42.2545 25.9777M32.6005 30.9439C32.4393 30.5518 32.2782 29.9129 32.41 27.8654C32.2635 28.635 32.1756 29.2304 32.1463 29.6951C32.0438 29.7822 31.8973 29.8838 31.7508 29.9564C31.6776 29.7531 31.4725 29.4482 31.8241 26.878C30.9597 29.666 31.4432 30.4211 31.5311 30.6244C31.8241 30.4501 32.0145 30.2614 32.1463 30.1016C32.1463 30.9293 32.2928 31.2778 32.4247 31.5682C32.7616 31.394 32.9521 31.1471 33.1572 30.8422C33.1279 31.7135 33.3476 32.2362 33.3476 32.2362C33.3476 32.2362 34.0068 31.5247 34.168 31.0019C34.168 31.3359 34.3877 32.3378 34.5782 32.5121C35.296 31.5682 35.545 28.9109 35.545 28.9109C35.545 28.9109 35.589 28.94 35.6476 28.9835C35.6036 29.637 35.4278 31.7861 35.4278 31.8006C35.3106 33.122 35.1788 34.6321 35.0616 35.9681C35.0469 36.1859 35.0176 36.4037 35.003 36.6215C34.959 37.1297 34.9004 37.6379 34.8565 38.1317C34.8125 38.5673 34.7686 38.9884 34.7247 39.395C34.6807 39.8306 34.6367 40.2662 34.5782 40.7018C34.2559 43.5334 33.9922 45.5228 33.9922 45.5228C33.9922 45.5228 33.9336 46.0455 33.8457 46.3359C33.7431 46.0165 33.7138 44.7386 33.7871 44.0416C33.8017 43.8674 33.538 43.577 33.5527 42.6186C33.5527 42.2265 33.9922 37.3185 34.1533 35.4017C34.1973 34.9661 34.1973 34.6467 34.1973 34.6467C34.1973 34.7047 34.168 34.7773 34.1533 34.85C34.0508 35.3001 33.9775 35.7502 33.9043 36.2004C33.8603 36.4763 33.8164 36.7667 33.7724 37.0426C33.7138 37.4782 33.6406 37.9429 33.582 38.4221C33.4062 39.8451 33.2158 41.2682 33.1718 42.7057C33.1425 43.6205 33.4501 43.8819 33.4209 44.0852C33.2597 45.2178 33.3769 46.3359 33.6259 46.9603C33.7285 46.9313 33.7871 46.8296 33.8164 46.7861C33.6552 47.6573 33.4648 48.3543 33.4648 48.3543C33.1279 47.6283 32.9228 46.8296 32.9814 44.8838C32.9814 44.7386 32.703 44.2885 32.6444 43.2865C32.5858 42.1249 32.8642 39.7435 32.9521 38.5382C33.0839 36.9264 33.2158 35.3437 33.2743 34.6321C33.2743 34.4869 33.3476 33.9206 33.2304 34.5595C33.0839 35.3582 32.9228 36.1568 32.8056 36.97C32.7177 37.5363 32.6737 38.0736 32.6005 38.6399C32.5272 39.2498 32.4686 39.8887 32.41 40.5566C32.3514 41.2827 32.2928 42.0087 32.2635 42.7638C32.2049 43.9981 32.6591 44.9129 32.6444 45.0871C32.5858 45.697 32.5858 45.668 32.6005 46.2052C32.6151 46.8441 32.6591 46.9458 32.6591 46.9458C32.454 46.4666 31.7655 44.8693 31.9999 39.8742C31.9999 39.758 31.9998 39.6273 32.0145 39.5111C32.2049 36.0407 32.4833 33.7609 32.4833 33.7609C32.161 34.7338 31.868 36.8248 31.6776 39.2498C31.5018 38.9739 31.4139 38.6399 31.3553 38.3349C31.282 37.9719 31.2527 37.5944 31.2381 37.2168C31.2381 36.9119 31.2381 36.607 31.2674 36.302C31.3846 34.4724 31.6043 32.9768 31.6043 32.9768C31.6043 32.9768 31.326 33.8771 31.1355 34.8209C30.989 35.547 30.8425 36.3166 30.8425 37.0571C30.1394 36.0261 30.447 33.9497 30.7839 31.8006C30.4763 32.4831 29.9196 34.4288 30.0661 35.8809C29.0114 34.908 29.5827 32.9622 29.9782 30.7406C29.3776 32.062 28.9381 33.6883 29.0846 34.7483C28.2349 33.6447 28.5572 32.1926 29.319 29.3466C28.8649 30.1016 28.2203 31.9022 28.1763 33.0058C27.6197 31.7135 28.2642 29.5644 28.8209 27.8364C28.3814 28.4463 27.5464 30.3921 27.5757 31.7425C27.063 30.4066 27.898 27.7638 28.7037 26.2827C28.7037 26.7183 28.8063 26.8345 28.9235 27.0232C29.0846 25.3388 30.154 24.1045 30.3298 22.9138C30.3591 23.1171 30.403 23.2623 30.447 23.4366C30.8425 22.7686 31.1648 21.999 31.4139 21.0261C31.4871 21.0987 31.6043 21.3892 31.6043 21.7231C32.1317 20.2565 31.619 19.6612 31.4725 19.5741C31.0623 19.3417 30.5788 19.7193 30.2126 20.1258C29.6413 20.7502 29.0553 21.9845 27.1655 22.0136C26.8579 22.0136 26.7407 21.9409 26.9018 21.9119C28.4693 21.6215 28.7477 20.9971 30.0515 19.5886C30.8572 18.7173 31.6776 18.2091 32.6298 19.3272C34.5049 21.5053 35.0909 23.3495 35.4278 24.8596C35.6183 25.7164 35.7501 27.546 35.5157 28.4318C35.296 28.3591 35.2813 28.3011 35.2813 28.3011C35.2813 28.3011 35.0323 30.7841 34.6075 31.4085C34.4756 31.1471 34.2998 30.4937 34.2998 29.8984C34.0654 30.6389 33.8457 31.031 33.5234 31.4521C33.3476 30.8277 33.3476 30.2469 33.4355 29.5789C33.0546 30.4647 32.7763 30.8422 32.5712 30.9874M28.1324 24.8451C27.7662 26.2101 27.312 27.8074 27.1069 30.4501C26.9311 29.8984 26.726 26.3698 28.1324 24.8451ZM27.1802 22.5363C27.4439 22.667 27.8247 23.3495 27.3706 24.6709C27.3413 23.4366 27.1802 23.1462 27.1802 22.5363ZM29.0553 22.8122C29.0553 23.8141 28.8502 24.5547 28.5133 25.7744C28.4693 24.4821 28.7477 23.1607 29.0553 22.8122ZM29.3922 24.0029C29.3483 23.1026 29.5827 22.1297 29.7731 21.6796C29.8464 22.1442 29.8317 22.7251 29.7292 23.1607C29.6559 23.4656 29.5094 23.7415 29.3922 24.0029ZM26.7407 34.6321C26.7846 35.1694 26.8579 35.7067 26.8139 35.9245C26.7846 35.8809 26.5502 35.6631 26.5502 35.6631C26.5502 35.6631 26.5209 36.4037 26.4037 37.6815C26.3891 37.8848 26.4037 38.2623 26.433 38.3785C26.1401 38.3349 25.9057 38.1752 25.8178 38.1317C25.9057 38.4802 25.9936 38.7996 26.0815 38.9158C26.184 39.0465 26.2865 39.1191 26.4184 39.1917C26.4477 39.2062 26.5063 39.2352 26.5795 39.2643C26.726 39.3369 27.1362 39.4676 27.1655 39.4676L27.9419 39.6709C28.0738 39.7144 28.2642 39.7435 28.4107 39.787C28.777 39.8887 29.2164 40.0774 29.3776 40.15C29.568 40.2372 29.7438 40.4405 29.6999 40.5712C29.6559 40.7164 29.4362 40.7599 29.3629 40.7599L29.319 40.847C29.1871 41.0503 28.733 40.9342 28.6305 40.8761C28.4986 40.818 28.4107 40.7454 28.3814 40.7018C28.3961 40.7309 28.5572 40.6873 28.6451 40.6438C28.6744 40.6438 28.7037 40.5857 28.7184 40.5712C28.733 40.4259 28.3082 40.3679 28.0445 40.3098C28.0298 40.3098 27.7515 40.2662 27.5025 40.2807C27.3267 40.2807 27.2681 40.3098 27.2095 40.4259C27.1655 40.4985 27.1216 40.6583 27.7662 41.3553L27.854 41.4424C27.9566 41.5586 28.191 41.8345 28.2349 42.1249C28.2496 42.212 28.2642 42.2846 28.2642 42.3863C28.2642 42.6912 28.0738 42.8509 27.8247 42.8364C27.4292 42.7928 27.6343 42.3863 27.4146 42.6331C27.3267 42.7348 27.0337 42.4008 26.9458 42.3282C27.019 42.3282 27.1069 42.3427 27.1655 42.3427C27.2095 42.3427 27.2534 42.3427 27.2681 42.3136C27.2974 42.2991 27.312 42.2556 27.312 42.1975C27.312 42.0523 27.2241 41.9071 27.0776 41.7328C26.9311 41.5586 26.8139 41.4134 26.6967 41.2536C26.5356 41.0068 26.4623 41.0068 26.4037 41.0213C26.4037 41.0213 26.4037 41.0213 26.3891 41.0213C26.2866 41.0794 26.3451 41.6457 26.5209 41.9942C26.8725 42.7348 26.9311 43.2139 26.6821 43.3446H26.6674V43.3737C26.6967 43.635 26.7114 43.9255 26.3891 44.0997L26.3598 44.0707C26.433 43.8093 26.3598 43.6641 26.3452 43.5334C26.3452 43.5044 26.3305 43.4172 26.5356 43.3591H26.5502C26.4623 43.3591 26.2866 43.3737 26.1987 43.3591C26.0522 43.3446 25.891 43.3156 25.8617 43.0397C25.8617 42.9526 25.8471 42.8509 25.8324 42.7638C25.7885 42.3427 25.7152 41.9652 25.642 41.6747C25.5687 41.3408 25.4808 40.5276 25.4808 40.5276C25.4808 40.5276 25.3929 40.4985 25.3197 40.5131C25.2171 40.5131 25.0853 40.5712 25.012 40.7599C24.9974 40.818 24.9827 40.9051 25.012 41.0358C24.9241 40.9923 24.8069 40.9051 24.7923 40.7454V40.7164C24.6751 40.6292 24.6165 40.5276 24.6019 40.4259C24.5579 40.1355 24.8949 39.8451 24.9242 39.8161C25.1292 39.6563 25.056 39.3659 24.9681 39.1045L24.8656 38.8432C24.3235 39.4966 23.6203 39.3804 23.6203 39.3804C23.6203 39.3804 23.7229 39.1191 23.7668 38.7851C23.8108 38.364 23.7961 37.9864 23.7961 37.9864L23.4445 38.364C23.4445 38.364 23.2981 37.5508 23.4445 36.2149C23.591 34.8064 23.9866 34.2401 24.0159 34.1965C24.2503 33.9351 25.2611 32.6718 25.4076 32.091C25.4076 32.091 25.8178 32.5557 25.7006 32.454L25.7592 32.5121V32.4395C25.8324 32.0765 26.0375 31.8006 26.2426 31.5247C26.3891 31.3359 26.5209 31.1617 26.5942 30.9584L26.6235 31.0165C26.7407 31.4085 26.7553 31.8296 26.7846 32.2217C26.8139 32.6137 26.8286 32.9622 26.9311 33.1946C26.8579 33.151 26.7993 33.122 26.7407 33.0784C26.6528 33.0203 26.6088 32.9913 26.5649 32.9913C26.5649 32.9913 26.5649 32.9913 26.5356 32.9913H26.5209C26.5063 33.0058 26.5063 33.0349 26.5063 33.0639C26.6235 33.5866 26.726 34.182 26.7553 34.545M27.4878 37.8558C27.3267 37.5944 27.5611 37.5218 28.0591 37.8122C28.3521 37.9865 29.3629 38.6399 29.8757 39.3369C29.9929 39.4966 29.9636 39.5983 29.7438 39.3804C29.2311 38.8722 28.4693 38.1752 28.484 38.5092C28.484 38.7996 28.44 39.1045 28.3375 39.3804C28.2349 39.3659 28.1324 39.3369 28.0445 39.3078L27.4439 39.1481C27.649 38.6399 27.6929 38.1462 27.5025 37.8412M29.7878 46.7861C29.6852 46.6409 29.612 46.5392 29.7878 46.8006C30.0515 47.1491 29.9343 46.9894 29.8171 46.8296C30.3152 47.5121 30.7839 47.8896 30.7839 47.8896C30.7839 47.8896 31.033 48.0494 31.1648 48.7464C30.7693 48.7464 29.7585 48.1801 28.8063 46.9167C28.5133 46.5247 28.3082 46.2052 27.5611 45.0726C27.7662 45.7406 28.2056 46.7135 28.8649 47.6718C29.1872 48.1365 29.6706 48.6302 29.6706 48.6302C29.6706 48.6302 29.6999 48.7464 29.7438 48.9351C29.2164 48.6157 28.5279 48.2672 28.0005 48.0349C28.0298 48.0349 27.9566 48.0058 27.9712 48.0349C27.5611 47.3088 27.0923 46.4811 26.9311 46.2488C27.1216 46.7861 27.2974 47.3233 27.4585 47.8025C26.8139 47.5411 25.8324 47.1781 25.5101 47.0474C25.1439 46.8877 24.7777 46.6844 24.4847 46.423C24.4847 46.423 24.4554 46.394 24.4407 46.3795C24.6312 46.1907 24.8656 45.9584 24.8656 45.9584L25.012 46.0891C25.012 46.0891 25.2757 46.3359 25.5101 46.1181C25.7152 45.9439 26.6235 44.9274 26.7114 44.8403C26.7993 44.7386 26.8872 44.5644 26.6967 44.2304C26.6967 44.2304 26.6821 44.2159 26.6528 44.1723C26.9165 43.9109 26.9604 43.577 26.9604 43.4172C27.0923 43.272 27.1362 43.0687 27.1069 42.7928C27.1948 42.8509 27.2974 42.88 27.3853 42.8654C27.4732 42.9671 27.605 43.0252 27.7662 43.0397C27.9273 43.0397 28.0884 43.0106 28.2056 42.9235C28.2935 42.8654 28.3668 42.7928 28.4107 42.6912C28.4254 42.6621 28.44 42.6331 28.4547 42.6041C28.4986 42.4734 28.5133 42.3427 28.5133 42.1975C29.3043 43.0833 30.0808 44.2594 30.5495 44.9855C31.4285 46.365 31.6336 46.8877 31.8094 47.425C31.2381 47.3959 30.9158 47.3088 30.154 46.5247C29.8024 46.1617 28.8942 44.8258 28.3082 44.0997C28.7916 45.2759 29.3043 46.1617 29.7438 46.757M21.3204 48.5576C19.6796 47.2362 18.6835 46.1181 18.2147 45.6099L19.123 44.7822C19.123 44.7822 22.8732 48.456 24.0598 48.9206C26.0229 49.7047 28.6305 49.908 28.6305 49.908C28.6305 49.908 25.2464 49.153 24.0745 48.514C23.1516 48.0203 19.4745 44.4627 19.4745 44.4627L20.8662 43.1994C21.2325 43.5915 23.3127 45.7551 24.1184 46.4811C24.3821 46.728 24.5726 46.8587 24.8363 47.0474C25.2757 47.3524 25.9057 47.5847 26.4037 47.8025C28.8063 48.7609 30.3884 49.7628 30.7546 50.0532C29.7585 50.4308 27.0044 50.4743 25.7152 50.3146C23.8547 50.0823 22.463 49.4869 21.335 48.5576M22.7853 50.0678C22.6828 50.7502 22.463 51.0116 22.463 51.0116C22.3165 50.8955 21.7452 50.1839 21.7452 49.5015C21.965 49.6612 22.3019 49.8645 22.7853 50.0678ZM14.2447 46.8587C13.2925 48.122 12.2816 48.6738 11.8861 48.6883C12.018 47.9913 12.2377 47.8461 12.2377 47.8461C12.2377 47.8461 12.7504 47.425 13.2632 46.728C13.7027 46.1326 14.23 45.2323 14.7135 44.0561C14.1421 44.7677 13.2192 46.1181 12.8676 46.4811C12.1205 47.2652 11.7982 47.3524 11.2122 47.3814C11.4027 46.8441 11.6078 46.3504 12.4721 44.9564C13.1753 43.8383 13.6734 43.1413 14.2007 42.5895C14.2007 42.5895 14.2007 42.6186 14.2154 42.6331C14.3033 42.8219 14.3179 42.8074 14.4351 42.9235C14.5377 43.0106 14.6842 43.0542 14.8453 43.0542C14.8453 43.0542 14.8746 43.0542 14.9039 43.0542C15.065 43.0542 15.1969 42.9816 15.2848 42.88C15.3727 42.88 15.4752 42.8654 15.5631 42.8074C15.5338 43.0833 15.5778 43.2865 15.7096 43.4318C15.7096 43.606 15.7536 43.9545 16.0319 44.2159C16.0319 44.2159 16.0319 44.2159 16.0319 44.2304C15.8268 44.5499 15.9294 44.7241 16.0173 44.8403C16.0905 44.9274 17.0134 45.9439 17.2185 46.1181C17.4676 46.3359 17.7166 46.0891 17.7166 46.0891L17.8631 45.9584C17.8631 45.9584 18.3172 46.4085 18.3026 46.394C18.2293 46.4666 18.1561 46.5247 18.1268 46.5537C17.951 46.6844 17.7606 46.8441 17.3211 47.0329C17.0574 47.1491 16.5153 47.3524 15.9001 47.5847L15.6071 47.7009C16.0319 46.7715 16.1198 46.3069 16.1638 46.1326C16.0173 46.3504 15.5485 47.1781 15.153 47.8751C14.7574 48.0494 14.3619 48.2236 13.9956 48.4124C13.9077 48.456 13.8198 48.4995 13.7173 48.5431L13.1753 48.848L13.2778 48.7899C13.3071 48.6592 13.3364 48.5721 13.3364 48.5721C13.3364 48.5721 13.8345 48.0784 14.1568 47.6137C14.8307 46.6554 15.2555 45.6825 15.4606 45.0145C14.7135 46.1471 14.5084 46.4521 14.2154 46.8587M15.4899 40.3098C15.4313 40.1936 15.3727 40.1646 15.1969 40.1646C15.0358 40.1646 13.937 40.1936 13.9663 40.455C13.9663 40.484 13.9956 40.5131 14.0396 40.5276C14.1275 40.5712 14.274 40.6147 14.3033 40.5857C14.274 40.6292 14.1861 40.7018 14.0542 40.7599C13.9517 40.8035 13.4976 40.9342 13.3657 40.7309L13.3218 40.6438C13.2485 40.6438 13.0288 40.6147 12.9848 40.455C12.9409 40.3243 13.1167 40.121 13.3071 40.0339C13.8784 39.7435 14.4937 39.6273 15.109 39.4676C15.6071 39.3369 16.281 39.2352 16.6032 38.7996C16.6911 38.6834 16.779 38.364 16.8669 38.03C16.7497 38.1026 16.5446 38.2188 16.2956 38.2478C16.3103 38.1317 16.3396 37.7541 16.3249 37.5508C16.2077 36.273 16.4421 35.5034 16.4421 35.5034C16.4421 35.5034 16.0759 35.6922 16.0466 35.7357C16.0026 35.5179 15.9587 35.0532 16.0026 34.516C16.0319 34.153 16.1345 33.5431 16.2517 33.0203C16.2517 32.9913 16.2517 32.9768 16.237 32.9477L16.2077 32.9332C16.1638 32.9332 16.1198 32.9622 16.0319 33.0203C15.988 33.0494 15.9147 33.0929 15.8415 33.122C15.944 32.8896 15.9733 32.5411 15.988 32.1491C16.0173 31.757 16.0319 31.3069 16.1638 30.9148C16.237 31.1181 16.3689 31.2924 16.5154 31.4811C16.7204 31.7425 16.9255 32.0184 16.9841 32.3959V32.4685L17.0574 32.4105C17.1599 32.3233 17.2771 32.1926 17.3504 32.0474C17.4822 32.5411 18.0096 33.2672 18.3026 33.6447C18.5516 33.4269 18.5809 33.2381 18.5809 33.2381C18.5809 33.2381 18.7714 33.5721 18.8886 33.9206C18.9618 34.1384 19.2841 34.7338 19.4452 36.273C19.5771 37.5944 19.372 38.3059 19.372 38.3059L19.0204 37.9284C19.0204 37.9284 19.0204 38.2914 19.0497 38.727C19.079 39.061 19.1962 39.3224 19.1962 39.3224C19.1962 39.3224 18.7274 39.395 18.2586 39.0755C18.0975 38.9884 17.9656 38.8577 17.8631 38.7415L17.7459 39.0465C17.658 39.3078 17.5848 39.5983 17.7899 39.758C17.8191 39.787 18.1561 40.0774 18.1121 40.3679C18.1121 40.4695 18.0389 40.5712 17.9217 40.6583V40.6873C17.9217 40.847 17.7899 40.9342 17.702 40.9777C17.7313 40.847 17.702 40.7599 17.702 40.7018C17.6287 40.5131 17.4969 40.4695 17.3943 40.455C17.3211 40.455 17.2332 40.4695 17.2332 40.4695C17.2332 40.4695 17.1453 41.2827 17.072 41.6166C17.0134 41.9071 16.9402 42.2846 16.8962 42.7057C16.8962 42.7928 16.8816 42.8945 16.8669 42.9816C16.8376 43.2575 16.6765 43.2865 16.53 43.3011C16.4567 43.3011 16.2663 43.3011 16.1784 43.3011H16.1931C16.3982 43.3591 16.3835 43.4463 16.3835 43.4753C16.3542 43.5915 16.281 43.7512 16.3688 44.0126L16.3396 44.0416C16.0173 43.8674 16.0173 43.577 16.0612 43.3156L16.0466 43.2865C15.8122 43.1413 15.8561 42.6621 16.2077 41.9361C16.3689 41.5876 16.4274 41.0358 16.3249 40.9632C16.1198 40.8906 15.7975 41.486 15.695 41.6166C15.5778 41.7473 15.4459 41.9071 15.4166 42.0813C15.3727 42.3282 15.6217 42.2991 15.7829 42.2701C15.7096 42.3427 15.4166 42.6912 15.3141 42.575C15.0944 42.3282 15.2994 42.7348 14.9039 42.7783C14.6549 42.7783 14.4791 42.6186 14.4644 42.3282C14.4644 41.9071 14.6842 41.5876 14.9625 41.2972C15.6071 40.5857 15.5631 40.4259 15.5192 40.3679M15.3434 39.1626L14.6842 39.3369C14.6842 39.3369 14.5377 39.3804 14.4498 39.395C14.3472 39.1045 14.2886 38.7996 14.3033 38.5092C14.3033 38.1752 13.5415 38.8722 13.0434 39.3804C12.8237 39.5983 12.7944 39.4966 12.9116 39.3369C13.4243 38.6399 14.4351 37.9865 14.7281 37.8122C15.2115 37.5073 15.4606 37.5799 15.2994 37.8558C15.109 38.1607 15.1529 38.6544 15.358 39.1626M14.8307 32.9768C14.7867 31.8732 14.1568 30.0726 13.688 29.3175C14.4498 32.1636 14.7721 33.6157 13.9224 34.7193C14.0689 33.6592 13.6294 32.0329 13.0288 30.7115C13.4243 32.9332 13.9956 34.879 12.9409 35.8519C13.0874 34.3998 12.5307 32.454 12.223 31.7715C12.56 33.9206 12.8676 35.9971 12.1645 37.0281C12.1645 36.9409 12.1645 36.8538 12.1645 36.7522C12.1205 36.0987 12.018 35.4453 11.8861 34.7919C11.6957 33.848 11.5345 33.3107 11.4759 33.1075C11.4759 33.0929 11.432 32.9622 11.432 32.9622C11.432 32.9622 11.6517 34.4579 11.7689 36.2875C11.8275 37.2604 11.7689 38.1897 11.4173 39.1191C11.388 39.1626 11.3734 39.2062 11.3441 39.2498C11.1536 36.8248 10.8753 34.7338 10.5384 33.7609C10.5384 33.7609 10.8167 36.0261 11.0071 39.5111C11.0071 39.6418 11.0071 39.758 11.0218 39.8742C11.2562 44.8693 10.5677 46.4666 10.3626 46.9458C10.3626 46.9458 10.4065 46.8587 10.4212 46.2052C10.4358 45.668 10.4358 45.7115 10.3772 45.0871C10.3626 44.9129 10.8313 43.9981 10.7581 42.7638C10.6116 40.0484 10.3772 37.2604 9.79124 34.5741C9.76194 34.4724 9.74729 34.3708 9.71799 34.2836C9.71799 34.2982 9.73264 34.545 9.74729 34.6467C9.90843 36.7377 10.0989 38.8141 10.2454 40.9051C10.3333 42.0813 10.3772 43.0106 10.3626 43.3156C10.3186 44.3175 10.0256 44.7531 10.0256 44.9129C10.0842 46.8587 9.89379 47.6428 9.5422 48.3834C9.5422 48.3834 9.3371 47.6864 9.19061 46.8151C9.21991 46.8587 9.29316 46.9603 9.38105 46.9894C9.63009 46.3504 9.74729 45.2469 9.58614 44.1142C9.55685 43.9109 9.86449 43.6496 9.83519 42.7348C9.80589 41.3117 9.63009 39.8596 9.425 38.4511C9.3664 37.9719 9.29316 37.5073 9.23456 37.0716C9.13201 36.3456 9.01481 35.605 8.85367 34.879C8.83902 34.8064 8.82437 34.7338 8.80972 34.6757C8.80972 34.6757 8.83902 35.1985 8.85367 35.4453C9.00016 37.3621 9.4543 42.2701 9.4543 42.6621C9.46895 43.6205 9.20526 43.9109 9.21991 44.0852C9.27851 44.7822 9.26385 46.06 9.16131 46.3795C9.07341 46.0891 9.01482 45.5663 9.01482 45.5663C8.58998 42.3863 8.22374 39.1917 7.9454 35.9971C7.82821 34.6612 7.69636 33.151 7.57917 31.8296C7.47662 30.6825 7.40337 29.6805 7.35942 29.0271C7.41802 28.9835 7.46197 28.9545 7.46197 28.9545C7.46197 28.9545 7.71101 31.6263 8.42883 32.5557C8.61928 32.3814 8.85367 31.3795 8.83902 31.0455C9.00017 31.5682 9.65939 32.2798 9.65939 32.2798C9.65939 32.2798 9.87913 31.757 9.84984 30.8858C10.0696 31.2052 10.26 31.4376 10.597 31.6118C10.7288 31.3069 10.8899 30.9729 10.8753 30.1452C10.9925 30.3049 11.1976 30.4937 11.4906 30.668C11.5785 30.4647 12.0619 29.7096 11.1829 26.9216C11.5345 29.4918 11.3294 29.7967 11.2562 30C11.1097 29.9419 10.9632 29.8258 10.8606 29.7386C10.8313 29.274 10.7435 28.6786 10.597 27.8945C10.7288 29.9419 10.5677 30.5808 10.4065 30.9729C10.2014 30.8277 9.90843 30.4501 9.5422 29.5644C9.63009 30.2469 9.63009 30.8132 9.4543 31.4376C9.13201 31.0165 8.91227 30.6244 8.67788 29.8838C8.67788 30.4792 8.50209 31.1326 8.37024 31.394C7.94541 30.7696 7.69636 28.2865 7.69636 28.2865C7.69636 28.2865 7.69636 28.3446 7.46197 28.4172C7.22758 27.5315 7.35942 25.7018 7.54987 24.8451C7.88681 23.3349 8.48743 21.4908 10.3479 19.3127C11.3148 18.1946 12.1205 18.7028 12.9262 19.5741C14.23 20.9826 14.5084 21.607 16.0759 21.8974C16.0905 21.8974 16.0905 21.8974 16.0759 21.8974C16.237 21.9264 16.1198 21.999 15.8122 21.999C13.9224 21.97 13.3364 20.7212 12.7651 20.1113C12.3842 19.7047 11.9008 19.3272 11.5052 19.5595C11.3587 19.6467 10.846 20.242 11.3734 21.7086C11.3734 21.3746 11.5052 21.0842 11.5638 21.0116C11.8129 21.9845 12.1352 22.7686 12.5307 23.4221C12.5893 23.2623 12.6186 23.1171 12.6479 22.8993C12.8383 24.0755 13.9077 25.3098 14.0542 27.0087C14.1568 26.8199 14.2593 26.7038 14.274 26.2682C15.0797 27.7493 15.9147 30.3921 15.402 31.728C15.4166 30.3775 14.5816 28.4318 14.1568 27.8219C14.7135 29.5499 15.358 31.6989 14.8014 32.9913M23.591 33.2236C23.4445 33.7464 23.2834 34.4434 22.7707 34.9661C22.6388 34.5595 22.4777 34.4143 22.4777 34.4143C22.4777 34.4143 22.2579 35.8664 21.672 36.3166C21.5255 35.3291 21.2325 35.0532 21.2178 34.9806C21.1885 35.3001 21.0713 35.2565 21.086 36.0407C20.8809 35.939 20.6465 35.5615 20.4707 35.1839C20.3096 34.8645 20.2949 34.4579 20.1924 34.153C20.1191 34.516 20.0166 34.7483 20.0459 35.0242C19.4745 34.4724 19.5331 33.485 19.4306 33.1655C19.4013 33.2672 19.2695 33.4414 19.2841 33.7464C18.9179 33.4269 18.6835 32.9332 18.6102 32.4831C18.4784 32.5702 18.4344 32.6573 18.3465 32.8316C17.8924 32.0765 17.0281 29.7531 16.7497 28.1123C16.6618 28.1413 16.6032 28.1849 16.5007 28.2139C16.4421 27.7638 16.1052 25.5131 16.0466 24.7289C15.988 23.2478 16.1345 22.3475 16.6179 21.4763C17.0574 20.6922 18.2 19.6612 19.4013 18.5866C19.328 18.7318 19.2402 19.0368 19.1376 19.1965C19.4745 19.0658 19.7822 18.5866 20.2363 18.3253C20.2168 18.4318 20.207 18.5431 20.207 18.6592C20.9102 18.2381 21.1153 17.9042 21.2764 17.759C21.7599 17.8606 22.0089 17.759 22.214 17.5702C22.0822 17.5411 21.6866 17.5121 21.6134 17.3814C22.0236 17.3233 22.3312 17.2072 22.463 17.062C22.3605 17.062 22.0968 16.8006 21.7306 16.8006C21.7892 16.9167 21.8331 17.0087 21.8624 17.0765C20.793 17.0329 20.2656 16.1471 19.2695 16.0019C19.6357 16.1907 20.0459 16.8006 20.5147 17.1636C19.5185 17.3669 19.4452 16.365 18.5077 16.5682C18.4491 16.4811 18.5077 16.3214 18.4491 16.2778C18.3026 16.3069 18.244 16.3795 18.0975 16.365C17.9656 16.365 17.9803 16.2052 18.1121 16.1617C18.244 16.1181 18.5956 16.0165 18.7128 15.9874C18.3905 16.0019 18.1561 15.9439 17.907 15.9439C17.7313 15.9439 17.2185 15.9874 17.2039 16.1036C17.1453 16.423 16.8816 16.3069 16.8376 16.2633C16.8083 16.1181 16.9109 15.7696 17.0134 15.6099C17.1306 15.4356 17.2332 15.334 17.365 15.2614C17.4236 15.2323 17.5115 15.5373 17.8338 15.5808C17.5848 15.2323 17.6141 15.1016 17.7459 15C17.7752 14.971 17.8338 14.9419 17.9656 14.8984C18.1414 14.8403 18.3465 14.7967 18.4051 14.7241C19.1523 13.8383 20.7637 13.8819 21.921 14.1142C22.4923 14.274 22.8293 14.6515 22.9758 14.8693C22.7121 14.8693 22.5509 14.8112 22.3458 14.8403C23.4885 15.2614 23.635 15.8712 24.0745 16.2778C23.7668 16.2197 23.5764 16.2197 23.4592 16.2778C23.7961 16.5247 23.8987 16.7135 24.1917 16.9894C23.928 16.9894 23.8547 16.9603 23.6496 16.9458C24.1038 17.2217 24.2942 17.759 24.7337 18.5866C24.9095 18.9206 25.2464 19.8209 25.3783 20.1985C25.4515 20.0823 25.6273 20.0097 25.6273 20.0097C26.0815 20.7212 26.2133 21.1278 26.4916 21.9119C26.77 22.6815 26.7993 24.0465 26.77 24.6999C26.7407 25.4695 26.6381 26.5586 26.5356 27.2265C26.477 27.1684 26.3598 27.1684 26.2866 27.1394C26.1401 28.6205 25.8178 29.6951 25.6566 29.971C25.4369 29.8693 25.6127 29.9129 25.4222 29.8258C25.3636 30.4647 24.7923 32.3524 24.4993 32.7009C24.4554 32.4976 24.2942 32.3959 24.2063 32.2943C24.0452 33.7028 23.591 34.1239 23.591 34.1239C23.635 33.9497 23.6203 33.5866 23.5764 33.2091M24.0159 42.1249C24.0159 42.1249 25.9057 43.9981 26.0229 44.0997C26.4184 44.4773 26.4477 44.5644 26.3305 44.6805C26.3012 44.7096 26.3159 44.6805 26.1987 44.8112L25.4222 44.1287L24.1917 43.0397C24.1917 43.0397 23.2981 42.212 23.2541 42.1684C23.2102 42.1249 23.1516 42.1249 23.1223 42.1539C23.1076 42.183 22.9758 42.2991 22.9611 42.3282C22.9465 42.3572 22.9611 42.4008 22.9904 42.4443C23.0344 42.4879 25.891 45.1597 25.891 45.1597C25.7006 45.3485 25.5101 45.5518 25.3783 45.6825C25.3197 45.7406 25.2904 45.7406 25.2464 45.6825C25.0706 45.5227 22.17 42.8945 21.9357 42.6767C21.9064 42.6476 21.9064 42.6331 21.9357 42.6041C22.0675 42.4734 22.3605 42.1394 22.5949 41.8925C22.8586 41.6166 23.1955 41.2682 23.4006 41.3262C23.635 41.3988 23.6496 41.3988 23.9426 41.4569C24.5726 41.5731 25.0267 41.4279 25.2757 41.3698C25.2757 41.3698 25.2757 41.3698 25.2904 41.3698C25.2904 41.4279 25.2904 41.486 25.305 41.5295C25.305 41.6021 25.3343 41.6747 25.349 41.7473C25.0706 41.7909 24.8949 41.7909 24.1917 41.7909C23.9719 41.7909 23.8254 41.8635 24.0159 42.0813M19.7529 42.2701C19.7529 42.2701 19.6064 42.1249 19.5917 42.0958C19.5771 42.0668 19.5038 42.0668 19.4599 42.1104C19.4159 42.1539 18.5223 42.9816 18.5223 42.9816L17.2918 44.0707L16.5154 44.7531C16.3982 44.637 16.4128 44.666 16.3835 44.6225C16.2663 44.4918 16.2956 44.4046 16.6911 44.0416C16.7937 43.94 18.6981 42.0523 18.6981 42.0523C18.8886 41.8345 18.7567 41.7619 18.5223 41.7619C17.7752 41.7619 17.6141 41.7619 17.3211 41.7038C17.3357 41.6312 17.3504 41.5731 17.365 41.515C17.365 41.4569 17.3797 41.3843 17.3943 41.3117C17.4236 41.3117 17.4383 41.3117 17.4529 41.3262C17.702 41.3843 18.1561 41.515 18.786 41.4134C19.079 41.3553 19.0937 41.3408 19.3281 41.2827C19.5331 41.2246 19.8701 41.5731 20.1338 41.849C20.3535 42.0813 20.6612 42.4153 20.793 42.5605C20.8223 42.5895 20.8076 42.6041 20.793 42.6331C20.5586 42.8509 17.658 45.4647 17.4822 45.6389C17.4383 45.6825 17.409 45.6825 17.3504 45.6389C17.2185 45.5082 17.0281 45.3049 16.8523 45.1162C16.8523 45.1162 19.7089 42.4443 19.7529 42.4008C19.7968 42.3572 19.7968 42.2991 19.7822 42.2846M19.8115 35.605C19.6796 35.5179 19.6064 35.4017 19.5624 35.2856C19.5331 35.1839 19.4745 34.9226 19.5038 34.8209C19.5038 34.8209 19.5038 34.879 19.5917 34.9661C19.6796 35.0678 19.8701 35.213 19.9287 35.3291C20.0312 35.547 20.0312 35.7212 20.0312 35.7212C20.0312 35.7212 19.958 35.7067 19.8115 35.605ZM20.3975 40.0484C20.4561 40.15 20.3096 41.1084 20.2656 41.4134C20.2217 41.3698 20.0166 41.1665 20.0166 41.1665C20.0166 41.1084 20.0605 40.6728 20.3975 40.0484ZM19.8261 39.9322C19.7236 40.1355 19.5917 40.5857 19.5038 40.8761C19.5038 40.8761 19.4306 40.8761 19.4013 40.8906C19.2548 40.9342 18.9765 41.0503 18.8739 41.0939C19.0204 40.8906 19.7382 39.9032 19.8261 39.9177M20.6758 41.8054C20.7344 41.5731 20.8076 41.3117 20.9395 41.1375C20.9688 41.3262 20.9834 41.7473 20.9981 42.1249C20.9688 42.0958 20.7198 41.8345 20.6905 41.8054M20.7491 38.9158C21.1153 39.0755 21.1885 39.5692 21.1885 39.5692C21.1885 39.5692 20.7637 39.2643 20.7491 38.9158ZM21.0127 38.3059C20.6172 38.0591 20.3242 37.7977 20.2217 37.667C20.1191 37.5218 20.0605 37.3185 20.0605 37.0426C20.0605 37.0426 20.0605 37.1442 20.2949 37.4056C20.6465 37.8122 21.2325 37.9719 21.4229 38.3785C21.4522 38.4511 21.4669 38.5092 21.4815 38.5673C21.4815 38.4947 21.5108 38.4221 21.5694 38.3204C21.6866 38.1317 22.3165 37.7396 22.5949 37.5799C22.9172 37.3911 23.0637 37.1588 23.0637 37.1588C23.0637 37.1588 23.0051 37.4492 22.8439 37.667C22.6828 37.8848 21.8771 38.364 21.7452 38.4656C21.5401 38.6108 21.4815 38.7561 21.4815 38.7561C21.4815 38.7561 21.3936 38.5673 20.9981 38.3059M20.2217 35.9535C20.3828 36.5924 21.086 36.6651 21.086 37.304C20.7637 36.8683 20.1338 36.8538 20.2217 35.9535ZM21.5987 39.5402C21.672 39.4385 21.8185 39.3078 21.921 39.2207C22.1554 39.0029 22.1993 38.8432 22.1993 38.8432C22.1993 38.9448 22.2286 39.1045 22.1407 39.2788C22.0529 39.453 21.8917 39.5692 21.7159 39.6709C21.5108 39.787 21.4229 39.8306 21.4229 39.8306C21.4229 39.8306 21.4815 39.6854 21.6134 39.5402M22.4923 41.4424C22.3898 41.544 22.2726 41.6602 22.1701 41.7619C22.1554 41.4714 22.1114 40.5857 22.0382 40.2081C22.3458 40.6002 22.463 41.3117 22.4923 41.4424ZM21.4815 40.789C21.6427 41.0213 21.7599 41.6312 21.8331 42.1249C21.8331 42.1249 21.8331 42.1249 21.8185 42.1394C21.7013 42.2556 21.4962 42.5169 21.4815 42.5315C21.4815 41.878 21.4669 41.0213 21.4962 40.789M21.7159 43.0252C21.7159 43.0252 21.5108 43.243 21.4962 43.2575C21.4962 43.1704 21.4962 43.0106 21.4962 42.7928C21.5548 42.8654 21.7306 43.0107 21.7306 43.0107M21.9357 43.243L23.3274 44.5063C23.3274 44.5063 23.1809 44.637 22.9465 44.8693C22.5949 44.5208 22.0528 43.969 21.6573 43.5479C21.7892 43.4172 21.8917 43.3156 21.9357 43.243ZM23.6643 44.8258L24.5726 45.6534C24.47 45.7696 24.3382 45.9148 24.177 46.0745C23.9133 45.8132 23.5764 45.4792 23.2834 45.1888C23.5178 44.9564 23.6643 44.8258 23.6643 44.8258ZM23.4739 40.9197C23.4739 40.9197 23.342 40.8761 23.2834 40.8761C23.2248 40.8761 23.1662 40.8761 23.1076 40.9197C23.093 40.9197 23.0783 40.9342 23.049 40.9487C23.0197 40.818 22.9172 40.484 22.6828 39.9613C23.0197 40.2517 23.4006 40.7599 23.5471 40.9487C23.5178 40.9487 23.4739 40.9197 23.4739 40.9197ZM22.3312 37.0426C21.8331 37.333 21.7159 37.4782 21.7159 37.4782C21.7159 37.4782 21.7892 37.0862 22.214 36.6796C22.3751 36.5198 22.6388 36.2004 22.7414 35.9826C22.7414 35.9826 22.7267 36.2149 22.6535 36.4327C22.8879 36.2294 23.0344 36.0697 23.2102 35.7793C23.049 36.273 22.8586 36.7377 22.3312 37.0426ZM17.5701 31.6844C17.0867 31.4085 16.7351 30.726 16.7351 30.2178C17.0574 30.668 17.2771 30.9148 17.5701 31.6844ZM26.6235 20.8083C26.2426 20.2711 25.9936 19.7483 25.5834 18.7899C25.2318 17.9622 25.2904 18.0929 24.7777 16.8296C24.5286 16.2343 24.0891 15.2759 23.8254 14.9419C23.4299 14.4337 22.7267 13.9109 22.4777 13.8238C22.1701 13.6931 21.7306 13.5915 21.2764 13.5624C20.4561 13.5189 19.621 13.635 19.2841 13.7222C19.0058 13.7948 18.537 13.9545 18.2879 14.2449C18.2586 14.2885 18.1414 14.4337 17.9803 14.5063C17.6287 14.666 17.5408 14.666 17.072 15C16.3249 15.5373 16.4421 16.394 16.823 16.728H16.8376C16.8376 16.5102 16.8376 16.3214 16.8816 16.3359C16.9255 16.3359 17.2918 16.5973 17.8631 16.5102C18.2733 16.4521 18.537 17.0765 18.537 17.0765L18.6102 16.8877C18.6102 16.8877 18.7421 17.2798 18.8593 17.3669C18.8739 17.3379 18.9179 17.2943 18.9179 17.2798C19.0497 17.4395 19.2402 17.5411 19.2695 17.788C19.2695 18.0203 19.1669 18.2236 18.8739 18.4995C18.7567 18.6012 18.0975 19.1384 17.409 19.85C17.0427 20.213 16.8669 20.4453 16.5007 20.8374C16.3103 21.0407 16.1345 21.1713 15.9587 21.1713C15.9294 21.1713 15.9001 21.1713 15.8708 21.1713C15.651 21.1713 15.4752 21.0552 15.4166 20.9681C15.3434 20.8809 11.7836 16.2052 10.0842 13.9835C13.1753 10.9923 18.3026 10.4985 19.5771 10.5857C19.8701 10.6002 20.2217 10.847 19.8408 11.3262C20.1191 11.4569 21.1592 11.3553 21.5401 10.9923C21.9357 11.3553 22.9611 11.4424 23.2395 11.3262C22.8586 10.847 23.1955 10.6002 23.5031 10.5857C24.7777 10.4985 29.6413 10.7164 33.04 14.0561C31.3699 16.2343 29.1578 18.9932 27.9566 20.7067C27.9126 20.7793 27.8833 20.8374 27.7222 20.9245C27.5464 21.0261 27.356 21.0697 27.1655 21.0552C26.9018 21.0552 26.7553 20.9681 26.6235 20.7793M28.0152 10.7164C26.3744 10.2372 24.3528 10.0774 23.4153 10.1065C22.5949 10.15 22.463 10.6147 22.5656 10.8616C22.1114 10.8906 21.6134 10.5276 21.5255 10.3679C21.4083 10.5857 20.8516 10.9051 20.4854 10.8616C20.5879 10.6002 20.4707 10.1355 19.6357 10.1065C18.6981 10.0629 16.6911 10.2372 15.0358 10.7164C13.0581 11.2972 11.1976 12.3282 9.79124 13.6205C9.67404 13.4753 9.55685 13.3156 9.4543 13.1704C11.0071 11.7909 13.2339 10.5276 15.8122 9.9758C17.5262 9.61278 18.8886 9.58374 19.7529 9.58374C20.4561 9.58374 20.9102 9.85963 20.9102 10.2953C21.2618 10.2372 21.4815 9.80155 21.5255 9.56922C21.5841 9.67086 21.7013 10.2227 22.1407 10.2953C22.1407 9.85963 22.5949 9.58374 23.2981 9.58374C24.1624 9.58374 25.5248 9.59826 27.2388 9.9758C29.7731 10.5131 32.0731 11.8925 33.6406 13.2575C33.5234 13.4027 33.4062 13.5624 33.289 13.7076C31.8973 12.4298 29.9489 11.2682 28.0152 10.7164ZM33.1718 10.7454C33.9189 9.91772 35.0616 8.69797 35.1641 8.5818C35.2227 8.52372 35.3399 8.40755 35.545 8.42207C35.7062 8.42207 35.9113 8.49468 36.2042 8.69797C36.3214 8.79961 36.424 8.88674 36.5119 8.98838C37.3176 9.88867 37.0832 10.7018 38.1819 11.4424C37.0246 11.6457 36.4679 11.486 36.0285 11.4279C35.7208 12.0958 35.3253 12.7202 35.3399 13.8674C35.252 13.8093 35.1788 13.7657 35.1055 13.7076C34.5928 13.3011 34.4024 12.6331 34.2412 12.0378C34.0361 11.3408 33.8603 10.7164 33.1865 10.7454M32.8202 10.455C32.5858 10.7309 32.5126 10.9632 32.6444 11.3698C30.0368 9.6273 26.9458 8.75605 21.6866 8.69797H21.4522C16.1052 8.72701 13.102 9.61278 10.4651 11.3698C10.597 10.9632 10.5237 10.7309 10.2893 10.455C9.84983 9.93224 8.1212 8.03001 8.1212 8.03001C8.88297 7.28945 10.0989 6.46176 11.5492 5.82285C15.3434 4.16747 20.1631 4.16747 21.5548 4.16747C22.9318 4.16747 27.7515 4.16747 31.5604 5.82285C33.0107 6.46176 34.2266 7.28945 34.9883 8.03001C34.9883 8.03001 33.2597 9.94676 32.8202 10.455ZM9.86449 10.7454C8.54603 10.7164 9.11736 13.1268 7.71101 13.8674C7.71101 12.7202 7.33013 12.0958 7.03714 11.4279C6.87599 11.4569 6.7002 11.486 6.4658 11.515C6.31931 11.5295 6.14352 11.544 5.95307 11.544C5.66008 11.544 5.3085 11.515 4.88366 11.4424C6.09957 10.6292 5.71868 9.71442 6.89064 8.69797C7.54987 8.2333 7.82821 8.46563 7.93075 8.5818C8.04795 8.71249 9.13201 9.91772 9.86449 10.7454ZM9.01482 13.1559C9.73264 14.0997 10.4651 15.0726 11.1536 16.0165C11.6371 16.6699 12.3988 17.7154 12.3988 17.8316C12.3988 18.0203 11.1683 16.5392 10.8021 16.0455C10.6409 15.8277 9.86448 14.7967 8.82437 13.4318C8.88297 13.3446 8.94157 13.2575 9.00017 13.1559M14.5084 25.7018C14.1568 24.4821 13.9517 23.7415 13.9517 22.7396C14.274 23.0881 14.5377 24.4095 14.5084 25.7018ZM13.6294 23.9303C13.5122 23.6689 13.3657 23.3785 13.2925 23.0881C13.1753 22.6525 13.1753 22.0716 13.2485 21.607C13.439 22.0571 13.688 23.03 13.6294 23.9303ZM14.8893 24.758C16.2956 26.2827 16.0905 29.8112 15.9147 30.363C15.7096 27.7202 15.2555 26.1229 14.8893 24.758ZM16.3982 47.817C16.8962 47.5992 17.5408 47.3814 17.9656 47.062C18.2 46.8877 18.3758 46.7715 18.5956 46.5682C18.9179 46.8877 19.3427 47.3088 19.7822 47.7154C19.328 48.0929 18.9472 48.3979 18.7274 48.514C17.5408 49.153 14.1714 49.908 14.1714 49.908C14.1714 49.908 16.7644 49.7193 18.7421 48.9206C19.0497 48.7899 19.5478 48.4414 20.1045 48.0058C20.4561 48.3398 20.793 48.6447 21.0713 48.8771C20.0166 49.6176 18.7567 50.1113 17.1013 50.3146C15.8122 50.4743 13.0581 50.4308 12.0619 50.0532C12.4281 49.7483 14.0103 48.7609 16.4128 47.8025M20.8516 49.6612C21.0127 49.5595 21.2178 49.3998 21.335 49.2982C21.1446 50.4743 20.5147 50.9826 20.5147 50.9826C20.3975 50.7793 20.2217 50.3582 20.1191 50.0387C20.3096 49.9516 20.5733 49.8209 20.8516 49.6467M30.8425 17.7154C30.8425 17.5992 31.6043 16.5537 32.0877 15.9003C32.7323 15.029 33.4208 14.1288 34.0801 13.243C34.124 13.3301 34.1973 13.4172 34.2705 13.5044C33.3036 14.7822 32.5858 15.726 32.4393 15.9293C32.0731 16.423 30.8279 17.9042 30.8425 17.7154ZM39.1488 11.5876C38.2991 11.152 37.9768 10.5857 37.6692 10.0484C37.6692 10.0484 37.9036 9.72894 38.0208 9.58374C38.431 10.2372 38.8119 10.9051 39.1488 11.5876ZM38.8998 6.96999C39.0462 6.79574 39.4125 6.05518 39.3099 5.47435C40.4086 4.96612 41.1704 4.42885 41.1704 4.42885C41.1704 4.42885 39.3685 6.81026 37.3909 9.39497C37.3616 9.3514 37.259 9.16263 37.2297 9.11907C38.1819 7.87028 38.8412 7.04259 38.8998 6.95547M11.1243 4.53049C10.9046 3.87706 11.1243 3.31075 11.5199 2.91868C11.5199 2.65731 11.681 2.41045 11.8422 2.32333C12.0326 2.29429 12.3402 2.39593 12.5307 2.59923C13.1313 2.68635 13.7026 2.99129 14.0249 3.61568C15.5485 3.25266 17.2625 3.00581 19.4599 2.88964C19.5038 1.88771 20.1045 1.26331 20.8223 0.914811C20.9688 0.566312 21.2764 0.36302 21.5401 0.304937C21.8038 0.36302 22.1115 0.566312 22.2579 0.914811C22.9758 1.26331 23.5617 1.88771 23.6203 2.88964C25.8178 3.00581 27.5318 3.23814 29.0553 3.61568C29.3776 2.99129 29.9489 2.68635 30.5495 2.59923C30.7546 2.39593 31.0476 2.30881 31.2381 2.32333C31.3992 2.41045 31.5604 2.64279 31.5604 2.91868C31.9559 3.31075 32.1756 3.87706 31.9559 4.53049C34.0068 5.3727 35.9259 6.73766 37.303 8.40755C37.2004 8.53824 37.0979 8.66893 36.9953 8.79961C35.5304 6.94095 33.5087 5.54695 31.1355 4.6757C31.326 4.39981 31.5897 3.78993 30.9011 3.12197C29.8757 3.25266 29.6266 3.86254 29.568 4.18199C27.7222 3.68829 25.5394 3.38335 23.1076 3.29622C23.0197 1.62633 21.8331 1.23427 21.8331 1.23427C21.8331 1.23427 21.8185 0.914811 21.5548 0.813166C21.3057 0.914811 21.2764 1.23427 21.2764 1.23427C21.2764 1.23427 20.0898 1.64085 20.0019 3.29622C17.5701 3.38335 15.3727 3.68829 13.5415 4.18199C13.4829 3.86254 13.2192 3.25266 12.2084 3.12197C11.5199 3.78993 11.7836 4.39981 11.974 4.6757C9.61545 5.56147 7.65241 6.88287 6.18747 8.75605C6.08492 8.62536 5.98237 8.49468 5.89448 8.36399C7.27153 6.66505 9.10271 5.3727 11.1683 4.51597M2.12956 4.48693C2.12956 4.48693 2.89133 5.0242 3.99004 5.53243C3.8875 6.11326 4.25373 6.85382 4.40023 7.02807C4.45883 7.10068 5.05946 7.87028 5.95307 9.03195C5.89448 9.09003 5.85053 9.17715 5.77728 9.29332C3.8582 6.7667 2.12956 4.48693 2.12956 4.48693ZM5.07411 9.49661C5.07411 9.49661 5.4257 9.96128 5.44034 9.9758C5.32315 10.1936 5.1913 10.4259 5.01551 10.6728C4.66392 11.152 4.10724 11.515 3.93144 11.6021C4.26838 10.8761 4.64927 10.1791 5.05946 9.48209M3.9168 11.6312C5.2792 11.9216 6.15817 11.9071 6.6709 11.8925C7.02249 12.6331 7.30083 13.3156 7.27153 14.5789C7.82821 14.4192 8.2091 14.2014 8.50209 13.8964C8.89762 14.4192 9.07341 14.6515 9.4836 15.1888C5.87983 21.5634 5.83588 27.5315 5.77728 29.1868C2.97923 27.6041 1.20664 26.1229 0.855057 25.818C1.19199 19.9226 2.11491 15.4792 3.93144 11.6312M11.3441 53.4076C11.2562 53.3785 11.0657 53.3204 10.9632 53.2914C9.33711 52.7686 7.87216 51.9409 6.6123 50.7648C4.95691 49.2256 4.03399 47.5411 3.69705 46.9167C1.23594 41.878 0.693912 34.545 0.693912 31.5682C0.693912 30.5954 0.693912 30.0436 0.693912 30C0.693912 30 0.767162 27.4298 0.81111 26.6747C1.73403 27.4298 2.94993 28.3882 5.77728 29.971L6.40721 30.3049V29.5063C6.40721 29.5063 6.31931 21.97 9.89378 15.7115C10.3919 16.365 10.9778 17.091 11.4759 17.759C11.4759 17.759 11.6371 17.9622 11.7836 18.1655C11.2708 18.0639 10.7435 18.1655 10.2747 18.6302C9.5129 19.3708 8.28234 21.1423 7.56452 22.9719C7.16898 24.1191 6.87599 25.6873 6.94924 27.0378C6.94924 27.0378 7.38873 34.6321 8.26769 41.9071C9.05877 48.514 9.49825 49.3853 9.49825 49.3853C10.011 48.7754 10.2161 48.0058 10.3333 47.5557L10.4065 47.6137C10.4065 47.6137 10.8753 46.9603 11.1536 45.6534C11.4759 44.1723 11.5345 41.515 11.4906 40.2372C11.4906 40.2372 11.4759 39.8742 11.7836 39.2207C11.9301 38.9158 12.0473 38.6108 12.1205 38.2914C12.6039 36.2585 13.5415 35.6922 14.0542 35.0532C14.7281 34.2256 15.1237 33.5286 15.358 32.9477C15.651 33.2381 15.8561 33.4995 15.8708 33.6447C15.8122 34.211 15.7975 35.3727 15.944 36.1133C16.0173 36.0842 16.1638 35.9971 16.2224 35.9535C16.0173 36.7667 16.3249 38.001 16.1198 38.5092L16.53 38.4656C16.53 38.4656 16.5007 38.5528 16.486 38.5673C16.3396 38.7561 16.2077 38.7996 16.1052 38.8287C16.0612 38.8432 15.9587 38.8867 15.6803 38.9884C15.402 38.393 15.6217 37.8267 15.8854 37.5073C16.1052 37.2459 15.8415 36.8393 15.3727 37.0426C14.7721 37.304 14.1275 37.6815 13.439 38.3204C12.4574 39.2352 12.1791 40.1355 12.3842 40.3098C12.5307 40.4259 12.6479 40.4259 12.809 40.3679C12.809 40.3969 12.809 40.4405 12.8237 40.4695C12.8823 40.6438 13.0288 40.7744 13.2485 40.8325V40.8616C13.3804 41.0068 13.5415 41.0649 13.8345 41.0503C13.981 41.0503 14.1421 41.0068 14.4058 40.8761C14.4644 40.847 14.5377 40.8035 14.6402 40.7018C14.7281 40.7744 14.816 40.847 14.9186 40.9197C14.9039 40.9342 14.8014 41.0503 14.7867 41.0649C14.7428 41.1084 14.4205 41.4424 14.3326 41.8635C13.4829 42.909 12.5014 44.1723 11.7982 45.4211C11.0364 46.757 10.6849 47.8751 10.6849 47.8751C10.6849 47.8751 11.095 48.0058 11.6224 47.8751C11.432 48.4124 11.3294 48.8771 11.3734 49.2401C11.7836 49.2546 12.3109 49.211 12.8823 48.8916C12.8823 48.9351 12.8676 48.9787 12.853 49.0368C12.1352 49.5015 11.6078 49.9226 11.3148 50.1258C13.6441 51.2004 16.8376 50.7212 17.0574 50.6922C17.3797 50.6631 17.702 50.6196 18.0242 50.5615C18.0535 50.6631 18.0828 50.7502 18.1121 50.8519C17.8777 51.4182 17.409 52.5218 17.3064 52.7832V52.8412C15.2701 53.8432 13.2339 53.9593 11.3587 53.364M18.5077 51.6215C18.5077 51.6215 18.6249 51.7377 18.6542 51.7377C18.6835 51.7377 18.9179 51.607 19.2109 51.3166C19.0204 52.4782 18.8739 53.7851 18.83 54.6709C18.0975 54.3659 17.5115 54.5983 17.1453 54.9032C17.1453 54.8887 17.9363 52.9719 18.493 51.607M26.228 56.181C26.228 56.181 26.1694 56.2827 26.1401 56.3262C25.9643 56.5295 25.7592 56.6602 25.4515 56.6893C24.9974 56.7183 24.4114 56.7619 23.7375 57.0813C23.1223 57.3717 22.463 57.8364 21.7892 58.6786C21.1153 57.8509 20.4561 57.3717 19.8408 57.0813C19.1669 56.7619 18.5809 56.7183 18.1268 56.6893C17.8192 56.6602 17.5994 56.544 17.4383 56.3262C17.409 56.2827 17.3797 56.2246 17.3504 56.181C17.0574 55.5421 17.907 54.6273 19.2987 55.5421C19.2548 54.6563 19.5917 52.2749 19.8115 50.7938C19.8701 50.9535 19.9287 51.1133 20.0019 51.273C20.1631 51.6215 20.4121 51.9845 20.4707 51.9845C20.5147 51.9845 21.1739 51.5198 21.6134 50.605C22.0382 51.5344 22.7121 51.999 22.756 51.999C22.8 51.999 23.0637 51.636 23.2102 51.2875C23.342 50.9971 23.4446 50.6922 23.5325 50.4017C23.5764 50.4743 23.6203 50.5324 23.6643 50.5905C23.6936 50.6341 23.7082 50.6631 23.7375 50.7067C23.9719 52.1297 24.3528 54.6128 24.3089 55.5276C25.7006 54.6128 26.5502 55.5276 26.2572 56.1665M24.7484 54.6563C24.7044 53.698 24.5286 52.4201 24.3382 51.3892C24.5872 51.607 24.7777 51.7231 24.807 51.7231C24.8363 51.7231 24.9534 51.5924 25.0853 51.4182C25.598 52.7251 26.4477 54.8596 26.4477 54.8887C26.0815 54.5837 25.4955 54.3514 24.763 54.6563M42.5182 31.5392C42.5182 34.5305 42.0933 41.9071 39.515 46.8877C39.1927 47.5266 38.1819 49.153 36.5265 50.6922C35.1934 51.9264 33.4648 52.9429 32.5272 53.2478C31.619 53.5528 31.2674 53.5818 31.2674 53.5818C29.1579 53.9303 27.7808 53.4947 26.3012 52.8267C26.184 52.5799 25.6566 51.3311 25.4222 50.8083C25.4515 50.7357 25.4808 50.6631 25.5101 50.605C25.642 50.6196 25.7885 50.6486 25.9496 50.6631C26.0082 50.6631 29.3776 51.1713 31.7069 50.0823C31.4725 49.9226 30.9451 49.5305 30.4617 49.1965C30.4617 49.1094 30.4324 49.0223 30.4177 48.9351C30.9744 49.2401 31.5164 49.2982 31.9266 49.2836C31.9559 48.9206 31.868 48.456 31.6776 47.9187C32.2049 48.0349 32.6151 47.9187 32.6151 47.9187C32.6151 47.9187 32.2635 46.8006 31.5018 45.4647C30.447 43.5915 28.9528 41.8925 28.1763 40.847C28.2349 40.8035 28.2935 40.7454 28.3521 40.7018C28.4254 40.7744 28.4986 40.818 28.5426 40.847C28.5865 40.8616 28.8649 41.0068 29.1139 41.0213C29.4069 41.0213 29.5827 40.9777 29.6852 40.8325V40.8035C29.9196 40.7454 30.0661 40.6147 30.1247 40.4405C30.1247 40.4114 30.1247 40.3679 30.1394 40.3388C30.3298 40.4114 30.447 40.4405 30.6081 40.2953C30.8132 40.121 30.5349 39.2352 29.5534 38.3059C28.8649 37.667 28.2203 37.2894 27.6196 37.0281C27.1509 36.8248 26.8872 37.2168 27.1069 37.4927C27.3706 37.8122 27.5904 38.3785 27.312 38.9739C26.9897 38.8722 26.8725 38.8287 26.8286 38.8141C26.7846 38.7996 26.6967 38.7561 26.6821 38.7415C26.5649 38.6834 26.5063 38.6254 26.4477 38.5382C26.433 38.5237 26.4184 38.4802 26.4037 38.4221L26.8725 38.4802C26.6381 37.7541 27.0044 36.8538 26.9311 36.0697C26.9897 36.1133 27.1069 36.2294 27.1802 36.273C27.356 35.6631 27.2534 34.8209 27.1362 33.6302C27.1362 33.4414 27.3999 33.122 27.7515 32.788C27.7661 32.7735 27.7808 32.759 27.7954 32.7444C28.0738 33.3979 28.5279 34.1965 29.1432 34.9516C29.6559 35.576 30.5935 36.1568 31.0769 38.1897C31.1502 38.5092 31.2674 38.8141 31.4139 39.1191C31.7215 39.758 31.7069 40.1355 31.7069 40.1355C31.6776 41.4134 31.7362 44.0561 32.0438 45.5373C32.3221 46.8441 32.7909 47.4976 32.7909 47.4976L32.8642 47.4395C32.9814 47.8751 33.2011 48.6592 33.6992 49.2691C33.6992 49.2691 34.1387 48.3979 34.9297 41.7909C35.8087 34.516 36.2482 26.9216 36.2482 26.9216C36.3361 25.5712 36.0285 24.0029 35.6329 22.8558C34.9151 21.0261 33.6845 19.2546 32.9228 18.514C32.4979 18.0929 32.0145 17.9768 31.5604 18.0349C32.3514 17.0329 33.1132 16.0745 33.3476 15.7696C37.01 22.2023 36.7902 29.666 36.7902 29.7241V30.2759L37.5666 29.8548C40.5258 28.1559 41.4341 27.3863 42.3863 26.6312C42.4303 27.3863 42.4742 29.0271 42.5035 30.029C42.5035 30.0726 42.5035 30.5954 42.5035 31.5828" fill="#010101"/>
</svg>