<svg xmlns="http://www.w3.org/2000/svg" width="200" height="27" viewBox="0 0 200 27" fill="none">
  <path d="M3.5 2C3.63333 2 3.75556 1.95555 3.85556 1.85555C3.95556 1.75555 4 1.63333 4 1.5C4 1.36667 3.95556 1.24445 3.85556 1.14445C3.75556 1.04445 3.63333 1 3.5 1C3.36667 1 3.24444 1.04445 3.14444 1.14445C3.04444 1.24445 3 1.36667 3 1.5C3 1.63333 3.04444 1.75555 3.14444 1.85555C3.24444 1.95555 3.36667 2 3.5 2Z" fill="#010101"/>
  <path d="M1.5 2C1.63333 2 1.75556 1.95555 1.85556 1.85555C1.95556 1.75555 2 1.63333 2 1.5C2 1.36667 1.94444 1.24445 1.85556 1.14445C1.75556 1.04445 1.63333 1 1.5 1C1.36667 1 1.24444 1.04445 1.14444 1.14445C1.04444 1.24445 1 1.36667 1 1.5C1 1.63333 1.04444 1.75555 1.14444 1.85555C1.24444 1.95555 1.36667 2 1.5 2Z" fill="#010101"/>
  <path d="M17.5 11C17.3667 11 17.2444 11.0444 17.1444 11.1444C17.0444 11.2444 17 11.3667 17 11.5C17 11.6333 17.0556 11.7556 17.1444 11.8556C17.2333 11.9556 17.3667 12 17.5 12C17.6333 12 17.7556 11.9556 17.8556 11.8556C17.9556 11.7556 18 11.6333 18 11.5C18 11.3667 17.9556 11.2444 17.8556 11.1444C17.7556 11.0444 17.6333 11 17.5 11Z" fill="#010101"/>
  <path d="M19.5 11C19.3667 11 19.2444 11.0444 19.1444 11.1444C19.0444 11.2444 19 11.3667 19 11.5C19 11.6333 19.0556 11.7556 19.1444 11.8556C19.2444 11.9556 19.3667 12 19.5 12C19.6333 12 19.7556 11.9556 19.8556 11.8556C19.9556 11.7556 20 11.6333 20 11.5C20 11.3667 19.9556 11.2444 19.8556 11.1444C19.7556 11.0444 19.6333 11 19.5 11Z" fill="#010101"/>
  <path d="M20 4.02648H18.9927V8.88799H5.0073C4.84672 8.88799 4.77372 8.80244 4.77372 8.61711V3C4.45255 3.08554 4.0146 3.24236 3.48905 3.44196C2.94891 3.65581 2.43796 3.94094 1.91241 4.2831C1.40146 4.63951 0.948905 5.06721 0.569343 5.58045C0.189781 6.09369 0 6.70672 0 7.4053C0 7.67617 0.0437956 7.94704 0.116788 8.23218C0.189781 8.51731 0.350365 8.78819 0.569343 9.03055C0.788321 9.27291 1.10949 9.48676 1.51825 9.6721C1.92701 9.85743 2.46715 9.95723 3.12409 10L3.19708 9.00204C2.43796 8.94501 1.88321 8.80244 1.53285 8.57434C1.18248 8.34623 1.0073 7.9613 1.0073 7.4053C1.0073 7.00611 1.10949 6.63544 1.29927 6.32179C1.48905 6.00815 1.73723 5.72302 2 5.48065C2.27737 5.23829 2.56934 5.0387 2.89051 4.86762C3.21168 4.69654 3.47445 4.55397 3.72263 4.43992V8.61711C3.73723 9.03055 3.83942 9.32994 4.0438 9.54379C4.24818 9.75764 4.51095 9.87169 4.84671 9.87169H19.9708V4.02648H20Z" fill="#010101"/>
  <path d="M26.1854 4.04121C25.9191 3.72885 25.5587 3.48156 25.1514 3.28633C24.7285 3.0911 24.2428 3 23.6789 3C23.0836 3 22.5666 3.0911 22.1279 3.2603C21.6893 3.4295 21.3446 3.62473 21.0627 3.81995L21.705 4.52277C22.0966 4.2885 22.4413 4.13232 22.7546 4.04121C23.0679 3.95011 23.3655 3.91106 23.6475 3.91106C23.9922 3.91106 24.3212 3.97614 24.6031 4.10629C24.8851 4.23644 25.1201 4.41865 25.3081 4.63991C25.4961 4.86117 25.6371 5.12147 25.7467 5.40781C25.8564 5.70716 25.9034 6.01952 25.9034 6.33188C25.9034 6.74837 25.8564 7.09978 25.7624 7.39913C25.6684 7.68546 25.5744 7.91974 25.4961 8.08894H21V9H26.1854C26.2324 8.92191 26.3107 8.79176 26.4047 8.62256C26.4987 8.45336 26.5927 8.25813 26.6867 8.02386C26.7807 7.78959 26.8433 7.52928 26.906 7.24295C26.9687 6.95661 27 6.65727 27 6.3449C27 5.92842 26.9373 5.52494 26.7963 5.12147C26.6554 4.718 26.4517 4.36659 26.1854 4.05423V4.04121Z" fill="#010101"/>
  <path d="M57.5 3C57.6333 3 57.7556 2.95556 57.8556 2.85556C57.9556 2.75556 58 2.63334 58 2.5C58 2.36667 57.9556 2.24445 57.8556 2.14445C57.7556 2.04445 57.6333 2 57.5 2C57.3667 2 57.2444 2.05556 57.1444 2.14445C57.0444 2.24445 57 2.36667 57 2.5C57 2.63334 57.0444 2.75556 57.1444 2.85556C57.2444 2.95556 57.3667 3 57.5 3Z" fill="#010101"/>
  <path d="M55.5 3C55.6444 3 55.7556 2.95556 55.8556 2.85556C55.9556 2.75556 56 2.63334 56 2.5C56 2.36667 55.9556 2.24445 55.8556 2.14445C55.7556 2.04445 55.6333 2 55.5 2C55.3667 2 55.2444 2.05556 55.1444 2.14445C55.0444 2.24445 55 2.36667 55 2.5C55 2.63334 55.0556 2.75556 55.1444 2.85556C55.2444 2.95556 55.3667 3 55.5 3Z" fill="#010101"/>
  <path d="M73.7494 3.60399C73.1677 3.60399 72.6296 3.67521 72.1497 3.80342C71.6699 3.93162 71.2481 4.13105 70.8991 4.38746C70.5501 4.64387 70.2738 4.97151 70.0993 5.34188C69.9103 5.71225 69.823 6.1396 69.823 6.62393C69.823 7.64957 70.2447 8.44729 71.0882 9.00285H57.7822V4.13105H56.7788V9.00285H46.2649V3.50427H45.7268C44.7961 3.56125 43.9672 3.68946 43.2546 3.88889C42.5421 4.10256 41.9022 4.35897 41.3642 4.65812C40.8261 4.95727 40.3608 5.29914 39.9827 5.68376C39.6046 6.05413 39.2847 6.43874 39.0374 6.80911V4.92877H38.034V9.00285H29.0034V0H28V10H75V3.7037C74.7528 3.66097 74.5492 3.64672 74.3747 3.63248C74.2002 3.63248 74.0111 3.61823 73.793 3.61823L73.7494 3.60399ZM45.2469 9.01709H39.0665C39.1392 8.74644 39.2847 8.39031 39.5028 7.92022C39.7209 7.45014 40.0554 6.9943 40.5207 6.52421C40.9861 6.05413 41.5968 5.64102 42.3676 5.2849C43.1238 4.91453 44.0835 4.68661 45.2469 4.58689V9.01709ZM73.953 9.03134C72.8914 8.88889 72.1207 8.61823 71.6117 8.20512C71.1027 7.79202 70.8555 7.2792 70.8555 6.65242C70.8555 6.22507 70.9428 5.86895 71.1027 5.59829C71.2772 5.32764 71.4954 5.11396 71.7717 4.97151C72.048 4.81481 72.3533 4.7151 72.7169 4.65812C73.0659 4.60114 73.4149 4.57265 73.7785 4.57265C73.8076 4.57265 73.8221 4.57265 73.8366 4.57265C73.8366 4.57265 73.8657 4.57265 73.8948 4.57265H73.9675V9.00285L73.953 9.03134Z" fill="#010101"/>
  <path d="M72.5 2C72.6333 2 72.7556 1.94444 72.8556 1.85555C72.9556 1.75555 73 1.63333 73 1.5C73 1.36667 72.9444 1.24445 72.8556 1.14445C72.7556 1.04445 72.6333 1 72.5 1C72.3667 1 72.2444 1.04445 72.1444 1.14445C72.0444 1.24445 72 1.36667 72 1.5C72 1.63333 72.0444 1.75555 72.1444 1.85555C72.2444 1.95555 72.3667 2 72.5 2Z" fill="#010101"/>
  <path d="M74.5 1C74.3667 1 74.2444 1.04444 74.1444 1.14444C74.0444 1.24444 74 1.36666 74 1.5C74 1.63333 74.0444 1.75555 74.1444 1.85555C74.2444 1.95555 74.3667 2 74.5 2C74.6333 2 74.7556 1.94444 74.8556 1.85555C74.9556 1.76666 75 1.63333 75 1.5C75 1.36666 74.9444 1.24444 74.8556 1.14444C74.7556 1.04444 74.6333 1 74.5 1Z" fill="#010101"/>
  <path d="M83.3907 8.20513C83.2282 7.82052 83.0522 7.39316 82.822 6.95157C82.5919 6.50997 82.3482 6.03989 82.0503 5.55556C82.4294 4.72935 82.7273 3.90313 82.9574 3.04843C83.1741 2.20798 83.2824 1.43874 83.2824 0.754984V0H82.3346V0.740741C82.3346 1.28205 82.2534 1.89459 82.0774 2.5641C81.9014 3.23362 81.6847 3.91738 81.4139 4.60114C81.0077 4.08832 80.6557 3.67521 80.3849 3.33333C80.1141 2.99145 79.8569 2.69231 79.6267 2.4359C79.3965 2.16524 79.1528 1.90883 78.9362 1.66667C78.706 1.4245 78.4352 1.12536 78.1238 0.797723L77.4739 1.49573C77.6634 1.7094 77.9207 1.98006 78.2186 2.30769C78.53 2.63533 78.8414 2.99145 79.1799 3.37607C79.5048 3.76068 79.8298 4.1453 80.1412 4.54416C80.4526 4.94302 80.7234 5.29915 80.94 5.62678C80.6828 6.11111 80.412 6.55271 80.1277 6.96581C79.8433 7.37892 79.5319 7.7208 79.207 8.03419C78.882 8.33333 78.5435 8.5755 78.205 8.74644C77.8665 8.91738 77.5145 9.00285 77.1489 9.00285H77V10H84L83.7698 9.25926C83.675 8.96011 83.5532 8.60399 83.3907 8.21937V8.20513ZM79.5861 8.98861C79.7892 8.81767 79.9652 8.64672 80.1277 8.49003C80.2901 8.33333 80.4391 8.16239 80.5745 7.99145C80.7234 7.82051 80.8588 7.60684 81.0077 7.37892C81.1567 7.151 81.3191 6.88034 81.5087 6.56695C81.793 7.05128 82.0232 7.50712 82.2128 7.93447C82.4023 8.36182 82.5513 8.71795 82.6596 9.00285H79.5725L79.5861 8.98861Z" fill="#010101"/>
  <path d="M86 0H85V10H86V0Z" fill="#010101"/>
  <path d="M92.5 2C92.6333 2 92.7556 1.95555 92.8556 1.85555C92.9556 1.75555 93 1.63333 93 1.5C93 1.36667 92.9556 1.24445 92.8556 1.14445C92.7556 1.04445 92.6333 1 92.5 1C92.3667 1 92.2444 1.04445 92.1444 1.14445C92.0444 1.24445 92 1.36667 92 1.5C92 1.63333 92.0444 1.75555 92.1444 1.85555C92.2444 1.95555 92.3667 2 92.5 2Z" fill="#010101"/>
  <path d="M94.5 2C94.6333 2 94.7556 1.95555 94.8556 1.85555C94.9556 1.75555 95 1.63333 95 1.5C95 1.36667 94.9556 1.24445 94.8556 1.14445C94.7556 1.04445 94.6333 1 94.5 1C94.3667 1 94.2444 1.04445 94.1444 1.14445C94.0444 1.24445 94 1.36667 94 1.5C94 1.63333 94.0556 1.75555 94.1444 1.85555C94.2444 1.95555 94.3667 2 94.5 2Z" fill="#010101"/>
  <path d="M104.5 11C104.356 11 104.244 11.0444 104.144 11.1444C104.044 11.2444 104 11.3667 104 11.5C104 11.6333 104.044 11.7556 104.144 11.8556C104.244 11.9556 104.367 12 104.5 12C104.633 12 104.756 11.9556 104.856 11.8556C104.956 11.7556 105 11.6333 105 11.5C105 11.3667 104.956 11.2444 104.856 11.1444C104.756 11.0444 104.633 11 104.5 11Z" fill="#010101"/>
  <path d="M106.5 11C106.356 11 106.244 11.0444 106.144 11.1444C106.044 11.2444 106 11.3667 106 11.5C106 11.6333 106.044 11.7556 106.144 11.8556C106.244 11.9556 106.367 12 106.5 12C106.633 12 106.756 11.9556 106.856 11.8556C106.956 11.7556 107 11.6333 107 11.5C107 11.3667 106.956 11.2444 106.856 11.1444C106.756 11.0444 106.633 11 106.5 11Z" fill="#010101"/>
  <path d="M133.5 3C133.633 3 133.756 2.95505 133.856 2.85393C133.956 2.75281 134 2.62921 134 2.49438C134 2.35955 133.956 2.23595 133.856 2.14606C133.756 2.05618 133.633 2 133.5 2C133.367 2 133.244 2.04494 133.144 2.14606C133.044 2.23595 133 2.35955 133 2.49438C133 2.62921 133.044 2.75281 133.144 2.85393C133.244 2.95505 133.367 3 133.5 3Z" fill="#010101"/>
  <path d="M144.5 3C144.633 3 144.756 2.95556 144.856 2.85556C144.956 2.75556 145 2.63334 145 2.5C145 2.36667 144.956 2.24445 144.856 2.14445C144.756 2.04445 144.633 2 144.5 2C144.367 2 144.244 2.05556 144.144 2.14445C144.044 2.23334 144 2.36667 144 2.5C144 2.63334 144.044 2.75556 144.144 2.85556C144.244 2.95556 144.367 3 144.5 3Z" fill="#010101"/>
  <path d="M142.5 3C142.644 3 142.756 2.95556 142.856 2.85556C142.956 2.75556 143 2.63334 143 2.5C143 2.36667 142.956 2.24445 142.856 2.14445C142.756 2.04445 142.633 2 142.5 2C142.367 2 142.244 2.05556 142.144 2.14445C142.044 2.24445 142 2.36667 142 2.5C142 2.63334 142.056 2.75556 142.144 2.85556C142.244 2.95556 142.367 3 142.5 3Z" fill="#010101"/>
  <path d="M161.016 8.90909H145.361V4.12587H144.362V8.90909H133.915V4.13986H132.917V8.90909H120.43V3.55245C120.141 3.58042 119.721 3.65035 119.215 3.76224C118.694 3.87413 118.173 4.08392 117.667 4.34965C117.146 4.62937 116.712 4.97902 116.321 5.42657C115.945 5.87413 115.757 6.41958 115.757 7.06294C115.757 7.49651 115.815 7.86014 115.93 8.15385C116.046 8.44755 116.205 8.6993 116.393 8.90909H107.176V4.13986H106.178V8.90909H95.9629C95.8038 8.90909 95.7314 8.82517 95.7314 8.64336V3.13287C95.4131 3.21678 94.979 3.37063 94.4581 3.56644C93.9228 3.77623 93.4163 4.05595 92.8955 4.39161C92.389 4.74126 91.9405 5.16084 91.5643 5.66434C91.1881 6.16783 91 6.76923 91 7.45455C91 7.72028 91.0434 7.98601 91.1158 8.26573C91.1881 8.54545 91.3328 8.81119 91.5643 9.04895C91.7813 9.28671 92.0997 9.4965 92.5048 9.67832C92.9099 9.86014 93.4453 9.95804 94.0964 10L94.1687 9.02098C93.4163 8.96503 92.8665 8.82517 92.5193 8.6014C92.172 8.37762 91.9984 8 91.9984 7.45455C91.9984 7.06294 92.0997 6.6993 92.2878 6.39161C92.4759 6.08392 92.7218 5.8042 92.9823 5.56644C93.2572 5.32867 93.5466 5.13287 93.8649 4.96504C94.1832 4.79721 94.4437 4.65734 94.6896 4.54545V8.64336C94.7041 9.04895 94.8054 9.34266 95.008 9.55245C95.2105 9.76224 95.471 9.87413 95.8037 9.87413H162V0H161.002V8.8951L161.016 8.90909ZM119.403 8.86713C118.564 8.83916 117.898 8.71329 117.435 8.46154C116.972 8.22378 116.741 7.74825 116.741 7.04895C116.741 6.6993 116.842 6.39161 117.03 6.13986C117.218 5.87413 117.45 5.65035 117.724 5.46853C117.999 5.28671 118.303 5.11888 118.607 5.00699C118.911 4.88112 119.186 4.78322 119.417 4.72727V8.88112L119.403 8.86713Z" fill="#010101"/>
  <path d="M164 0H163V10H164V0Z" fill="#010101"/>
  <path d="M172.5 2C172.644 2 172.756 1.95555 172.856 1.85555C172.956 1.75555 173 1.63333 173 1.5C173 1.36667 172.956 1.24445 172.856 1.14445C172.756 1.04445 172.633 1 172.5 1C172.367 1 172.244 1.04445 172.144 1.14445C172.044 1.24445 172 1.36667 172 1.5C172 1.63333 172.044 1.75555 172.144 1.85555C172.244 1.95555 172.367 2 172.5 2Z" fill="#010101"/>
  <path d="M170.5 2C170.633 2 170.756 1.95555 170.856 1.85555C170.956 1.75555 171 1.63333 171 1.5C171 1.36667 170.944 1.24445 170.856 1.14445C170.756 1.04445 170.633 1 170.5 1C170.367 1 170.244 1.04445 170.144 1.14445C170.044 1.24445 170 1.36667 170 1.5C170 1.63333 170.044 1.75555 170.144 1.85555C170.244 1.95555 170.367 2 170.5 2Z" fill="#010101"/>
  <path d="M172.179 3.59792C171.809 3.75833 171.438 3.9625 171.052 4.19583C170.682 4.42917 170.327 4.70625 170.034 5.0125C169.725 5.31875 169.478 5.65417 169.293 6.04791C169.093 6.42708 169 6.85 169 7.31667C169 7.82708 169.139 8.25 169.401 8.58542C169.664 8.93542 170.003 9.2125 170.389 9.41667C170.775 9.62083 171.207 9.78125 171.654 9.86875C172.102 9.95625 172.503 10 172.858 10H174V3C173.799 3.04375 173.552 3.10208 173.228 3.20417C172.904 3.30625 172.565 3.4375 172.194 3.59792H172.179ZM172.92 8.95H172.796C172.519 8.95 172.225 8.92083 171.917 8.87708C171.608 8.83333 171.299 8.73125 171.037 8.6C170.759 8.46875 170.528 8.29375 170.358 8.08958C170.173 7.88542 170.096 7.62292 170.096 7.33125C170.096 6.9375 170.204 6.5875 170.404 6.28125C170.605 5.975 170.852 5.69792 171.145 5.45C171.438 5.21667 171.747 5.0125 172.071 4.8375C172.395 4.6625 172.688 4.53125 172.935 4.42917V8.95H172.92Z" fill="#010101"/>
  <path d="M189.865 1.46666C190.157 1.46666 190.465 1.53334 190.789 1.65334L191 1.2C190.611 1.06667 190.222 1 189.832 1C189.541 1 189.281 1.06667 189.038 1.2C188.795 1.33334 188.665 1.56 188.665 1.88C188.665 2.02667 188.697 2.16 188.746 2.29333C188.811 2.42667 188.859 2.50667 188.924 2.53334H188V3H190.903V2.53334H190.368C190.043 2.53334 189.784 2.48 189.573 2.37333C189.362 2.26667 189.249 2.10667 189.249 1.88C189.249 1.72 189.314 1.61334 189.427 1.56C189.541 1.49334 189.686 1.46666 189.881 1.46666H189.865Z" fill="#010101"/>
  <path d="M189.98 8.9H176.651V4.01428H175.646V10.3286C175.646 10.6714 175.646 11 175.602 11.3286C175.573 11.6429 175.5 11.9286 175.398 12.1714C175.282 12.4143 175.122 12.6143 174.903 12.7714C174.685 12.9286 174.379 13 174 13V14C174.597 14 175.078 13.8857 175.428 13.6714C175.777 13.4429 176.039 13.1571 176.229 12.8C176.418 12.4429 176.535 12.0429 176.578 11.6143C176.637 11.1857 176.651 10.7571 176.651 10.3286V9.88571H191V4H189.995V8.88571L189.98 8.9Z" fill="#010101"/>
  <path d="M193 0H192V10H193V0Z" fill="#010101"/>
  <path d="M199.796 5.10846C199.655 4.70499 199.452 4.35358 199.185 4.04121C198.919 3.72885 198.559 3.48156 198.151 3.28633C197.728 3.0911 197.243 3 196.679 3C196.084 3 195.567 3.0911 195.128 3.2603C194.689 3.4295 194.345 3.62473 194.063 3.81995L194.705 4.52277C195.097 4.2885 195.441 4.13232 195.755 4.04121C196.068 3.95011 196.366 3.91106 196.648 3.91106C196.992 3.91106 197.321 3.97614 197.603 4.10629C197.885 4.23644 198.12 4.41865 198.308 4.63991C198.496 4.86117 198.637 5.12147 198.747 5.40781C198.856 5.70716 198.903 6.01952 198.903 6.33188C198.903 6.74837 198.856 7.09978 198.762 7.39913C198.668 7.68546 198.574 7.91974 198.496 8.08894H194V9H199.185C199.232 8.92191 199.311 8.79176 199.405 8.62256C199.499 8.45336 199.593 8.25813 199.687 8.02386C199.781 7.78959 199.843 7.52928 199.906 7.24295C199.969 6.95661 200 6.65727 200 6.3449C200 5.92842 199.937 5.52494 199.796 5.12147V5.10846Z" fill="#010101"/>
  <path d="M0 18H2.47875C3.51275 18 4.24929 18.4105 4.64589 19.3737C4.97167 20.1316 5 21.9316 5 22.2158C5 24.1421 4.84419 25.2474 4.50425 25.8474C4.06516 26.621 3.25779 27 1.84136 27H0V18ZM1.03399 26.0053H2.01133C3.44193 26.0053 3.96601 25.4053 3.96601 23.3053V21.4895C3.96601 19.6737 3.47026 18.9947 2.39377 18.9947H1.03399V26.0053Z" fill="#010101"/>
  <path d="M7 27V18H10.9331V18.9947H7.97659V21.8842H10.7191V22.8789H7.97659V25.9895H11V26.9842H7.01338L7 27Z" fill="#010101"/>
  <path d="M12.0152 27V18H14.5836C15.7538 18 17 18.4421 17 20.5737C17 22.7053 15.465 23.0368 14.5684 23.0368H13.1094V27H12H12.0152ZM13.1246 22.0421H14.3404C14.7964 22.0421 15.8754 21.9158 15.8754 20.5105C15.8754 19.1053 14.8875 18.9947 14.6444 18.9947H13.1246V22.0421Z" fill="#010101"/>
  <path d="M19.7511 18H21.1572L24 27H22.762L22.1354 24.8526H18.7729L18.1157 27H17L19.7664 18H19.7511ZM20.4236 19.0579H20.393L19.0328 23.8579H21.8144L20.4083 19.0579H20.4236Z" fill="#010101"/>
  <path d="M25.0641 22.8632V27H24V18H26.8717C28.344 18 28.8688 19.1211 28.8688 20.2421C28.8688 21.3 28.3294 22.1053 27.3528 22.2947V22.3263C28.3149 22.4842 28.6501 22.8316 28.7085 24.6474C28.7085 25.0263 28.8397 26.4474 29 27H27.8921C27.586 26.3684 27.6589 25.2 27.5714 24C27.484 22.8947 26.6676 22.8474 26.3178 22.8474H25.0787L25.0641 22.8632ZM25.0641 21.8684H26.6531C27.4111 21.8684 27.7755 21.1579 27.7755 20.3684C27.7755 19.7211 27.4694 18.9947 26.6531 18.9947H25.0496V21.8684H25.0641Z" fill="#010101"/>
  <path d="M35 18V18.9947H32.9893V27H32.0107V18.9947H30V18H35Z" fill="#010101"/>
  <path d="M37.0284 27H36V18H37.7845L39.9622 25.5632H39.9924L42.1853 18H44V27H42.896V18.9947H42.8658L40.4461 27H39.4026L37.0435 18.9947H37.0132V27H37.0284Z" fill="#010101"/>
  <path d="M45 27V18H48.9331V18.9947H45.9766V21.8842H48.7191V22.8789H45.9766V25.9895H49V26.9842H45.0134L45 27Z" fill="#010101"/>
  <path d="M56.9847 18V27H55.4694L52.0255 19.2H51.9949V27H51V18H52.5765L55.9745 25.7053H56.0051V18H57H56.9847Z" fill="#010101"/>
  <path d="M62 18V18.9947H59.9893V27H59.0107V18.9947H57V18H62Z" fill="#010101"/>
  <path d="M66 23.6611V20.8229C66 19.0927 66.8101 18 68.5 18C70.1899 18 71 19.1079 71 20.8229V23.6611C71 26.059 70.1899 27 68.5 27C66.8101 27 66 26.059 66 23.6611ZM69.9665 23.7066V20.7774C69.9665 18.9713 68.8212 18.9106 68.5 18.9106C68.1788 18.9106 67.0335 18.9713 67.0335 20.7774V23.7066C67.0335 25.6037 67.5363 26.0742 68.5 26.0742C69.4637 26.0742 69.9665 25.5885 69.9665 23.7066Z" fill="#010101"/>
  <path d="M72 27V18H76V18.9947H73.0318V21.8842H75.8445V22.8789H73.0318V27H72Z" fill="#010101"/>
  <path d="M79 27V18H82.9331V18.9947H79.9766V21.8842H82.7191V22.8789H79.9766V25.9895H83V26.9842H79.0134L79 27Z" fill="#010101"/>
  <path d="M88.7824 20.5909C88.7824 20.1061 88.7531 19.6061 88.5332 19.3333C88.3133 19.0606 87.8148 18.9545 87.5949 18.9545C86.7153 18.9545 86.3634 19.5 86.3341 19.6212C86.3048 19.7121 86.0849 19.9394 86.0849 21.4091V23.7121C86.0849 25.8333 86.7593 26.0758 87.5802 26.0758C87.9028 26.0758 88.885 25.9545 88.8997 24.2727H89.9992C90.0432 27 88.1813 27 87.6389 27C86.598 27 85 26.9242 85 23.5758V21.1364C85 18.697 86.0409 18 87.6829 18C89.3249 18 89.9699 18.8788 89.8673 20.5606H88.7678L88.7824 20.5909Z" fill="#010101"/>
  <path d="M91 23.6611V20.8229C91 19.0927 91.8101 18 93.5 18C95.1899 18 96 19.1079 96 20.8229V23.6611C96 26.059 95.1899 27 93.5 27C91.8101 27 91 26.059 91 23.6611ZM94.9665 23.7066V20.7774C94.9665 18.9713 93.8212 18.9106 93.5 18.9106C93.1788 18.9106 92.0335 18.9713 92.0335 20.7774V23.7066C92.0335 25.6037 92.5363 26.0742 93.5 26.0742C94.4637 26.0742 94.9665 25.5885 94.9665 23.7066Z" fill="#010101"/>
  <path d="M104 18V27H102.469L99.0255 19.2H98.9949V27H98V18H99.5765L102.974 25.7053H103.005V18H104Z" fill="#010101"/>
  <path d="M105 23.6611V20.8229C105 19.0927 105.81 18 107.5 18C109.19 18 110 19.1079 110 20.8229V23.6611C110 26.059 109.19 27 107.5 27C105.81 27 105 26.059 105 23.6611ZM108.966 23.7066V20.7774C108.966 18.9713 107.821 18.9106 107.5 18.9106C107.179 18.9106 106.034 18.9713 106.034 20.7774V23.7066C106.034 25.6037 106.536 26.0742 107.5 26.0742C108.464 26.0742 108.966 25.5885 108.966 23.7066Z" fill="#010101"/>
  <path d="M113.028 27H112V18H113.784L115.962 25.5632H115.992L118.185 18H120V27H118.896V18.9947H118.866L116.446 27H115.403L113.043 18.9947H113.013V27H113.028Z" fill="#010101"/>
  <path d="M122 27H121V18H122V27Z" fill="#010101"/>
  <path d="M127.782 20.5909C127.782 20.1061 127.753 19.6061 127.533 19.3333C127.313 19.0606 126.815 18.9545 126.595 18.9545C125.715 18.9545 125.363 19.5 125.334 19.6212C125.305 19.7121 125.085 19.9394 125.085 21.4091V23.7121C125.085 25.8333 125.759 26.0758 126.58 26.0758C126.903 26.0758 127.885 25.9545 127.9 24.2727H128.999C129.043 27 127.181 27 126.639 27C125.598 27 124 26.9242 124 23.5758V21.1364C124 18.697 125.041 18 126.683 18C128.325 18 128.97 18.8788 128.867 20.5606H127.768L127.782 20.5909Z" fill="#010101"/>
  <path d="M132.014 18H134.486C135.517 18 136.251 18.4105 136.647 19.3737C136.972 20.1316 137 21.9316 137 22.2158C137 24.1421 136.845 25.2474 136.506 25.8474C136.068 26.621 135.263 27 133.85 27H132V18H132.014ZM133.045 26.0053H134.02C135.446 26.0053 135.969 25.4053 135.969 23.3053V21.4895C135.969 19.6737 135.475 18.9947 134.401 18.9947H133.045V26.0053Z" fill="#010101"/>
  <path d="M139 27V18H142.933V18.9947H139.977V21.8842H142.719V22.8789H139.977V25.9895H143V26.9842H139.013L139 27Z" fill="#010101"/>
  <path d="M146.617 27H145.368L143 18H144.134L146 25.9105H146.029L147.938 18H149L146.603 27H146.617Z" fill="#010101"/>
  <path d="M150 27V18H153.933V18.9947H150.977V21.8842H153.719V22.8789H150.977V25.9895H154V26.9842H150.013L150 27Z" fill="#010101"/>
  <path d="M156 27V18H157.035V26.0053H160V27H156Z" fill="#010101"/>
  <path d="M161 23.6611V20.8229C161 19.0927 161.81 18 163.5 18C165.19 18 166 19.1079 166 20.8229V23.6611C166 26.059 165.19 27 163.5 27C161.81 27 161 26.059 161 23.6611ZM164.966 23.7066V20.7774C164.966 18.9713 163.821 18.9106 163.5 18.9106C163.179 18.9106 162.034 18.9713 162.034 20.7774V23.7066C162.034 25.6037 162.536 26.0742 163.5 26.0742C164.464 26.0742 164.966 25.5885 164.966 23.7066Z" fill="#010101"/>
  <path d="M167.015 27V18H169.584C170.754 18 172 18.4421 172 20.5737C172 22.7053 170.465 23.0368 169.568 23.0368H168.109V27H167H167.015ZM168.125 22.0421H169.34C169.796 22.0421 170.875 21.9158 170.875 20.5105C170.875 19.1053 169.888 18.9947 169.644 18.9947H168.125V22.0421Z" fill="#010101"/>
  <path d="M174.028 27H173V18H174.784L176.962 25.5632H176.992L179.185 18H181V27H179.896V18.9947H179.866L177.446 27H176.403L174.043 18.9947H174.013V27H174.028Z" fill="#010101"/>
  <path d="M183 27V18H186.933V18.9947H183.977V21.8842H186.719V22.8789H183.977V25.9895H187V26.9842H183.013L183 27Z" fill="#010101"/>
  <path d="M194 18V27H192.469L189.026 19.2H188.995V27H188V18H189.577L192.974 25.7053H193.005V18H194Z" fill="#010101"/>
  <path d="M200 18V18.9947H197.989V27H197.011V18.9947H195V18H200Z" fill="#010101"/>
</svg>